<?xml version="1.0" encoding="utf-8"?>
<!-- Generator: Adobe Illustrator 27.8.1, SVG Export Plug-In . SVG Version: 6.00 Build 0)  -->
<svg version="1.1" id="Layer_1" xmlns="http://www.w3.org/2000/svg" xmlns:xlink="http://www.w3.org/1999/xlink" x="0px" y="0px"
	 viewBox="0 0 612 792" style="enable-background:new 0 0 612 792;" xml:space="preserve">
<style type="text/css">
	.st0{fill:none;stroke:#000000;stroke-miterlimit:10;}
</style>
<path class="st0" d="M253.97,304.15c-0.13,1.89-0.81,2.45-0.33,3.65c0.41,1.03,1.04,0.95,1.66,2.21c0.66,1.35,0.73,3.06,0.11,3.43
	c-0.39,0.23-0.81-0.2-1.33,0.11c-0.37,0.22-0.51,0.66-0.66,1.11c-0.21,0.63-0.22,1.15-0.22,1.22c-0.05,1.74-3.85,7.48-7.74,9.07
	c-0.41,0.17-1.21,0.45-1.66,1.22c-0.51,0.87-0.03,1.47-0.55,2.21c-0.58,0.82-1.47,0.54-1.99,1.33c-0.43,0.65-0.17,1.37-0.11,1.99
	c0.28,3.11-4.62,4.24-5.31,8.41c-0.19,1.13-0.22,3.43-0.22,3.43c-0.11,3.16-0.11,3.21-0.11,3.21c-0.21,5.07-11.89,13.4-11.06,20.79
	c0.08,0.73,0.27,1.26,0.33,1.44c1.22,3.33,5.64,6.1,9.07,5.53c0.7-0.12,1.53-0.4,2.65-0.11c1.16,0.3,1.63,0.95,2.32,1.44
	c2.34,1.64,4.68-0.42,8.96,0.33c2.29,0.4,1.79,1.03,4.2,1.55c3.12,0.67,5.15-0.11,9.4-0.88c4.75-0.86,4.03-0.21,8.29-1
	c7-1.29,7.49-2.78,13.6-3.54c3.01-0.37,3.73-0.12,6.19-0.77c2.57-0.68,6.6-1.75,7.52-4.31c0.33-0.91,0.4-2.38-4.87-9.62
	c-5.03-6.93-7.45-8.84-7.63-12.83c-0.11-2.46,0.79-2.28,0.77-4.76c-0.03-5.33-4.19-9.59-9.51-15.04c0,0-4.63-4.74-6.41-8.63
	c-0.41-0.88-0.77-1.88-0.77-1.88c-0.28-0.76-0.42-1.14-0.44-1.33c-0.18-1.49,1.81-2,2.54-3.87c0.77-1.96-0.86-2.83-0.11-4.87
	c0.56-1.52,2.05-2.66,3.43-3.1c1.91-0.61,3.52,0.16,3.87-0.55c0.23-0.47-0.44-0.83-0.55-2.1c-0.1-1.18,0.41-1.62,0.11-2.21
	c-0.43-0.84-1.94-0.88-2.21-0.88c-0.55,0-1.93,0.1-5.86,3.43c-1.81,1.53-2.36,2.23-3.76,2.65c-0.38,0.11-0.48,0.11-2.65,0.33
	c-3.67,0.38-4.05,0.46-4.53,0.11c-1.01-0.73-1.19-2.46-0.88-3.65c0.44-1.74,1.91-2.29,1.66-2.88c-0.28-0.65-2.38-0.73-3.87,0.22
	c-1.42,0.91-1.87,2.5-1.99,3.1C252.86,300.99,254.15,301.45,253.97,304.15z"/>
</svg>
