<?xml version="1.0" encoding="utf-8"?>
<!-- Generator: Adobe Illustrator 27.2.0, SVG Export Plug-In . SVG Version: 6.00 Build 0)  -->
<svg version="1.1" id="Layer_1" xmlns="http://www.w3.org/2000/svg" xmlns:xlink="http://www.w3.org/1999/xlink" x="0px" y="0px"
	 viewBox="0 0 612 792" style="enable-background:new 0 0 612 792;" xml:space="preserve">
<style type="text/css">
	.st0{fill:none;stroke:#231F20;stroke-width:4;stroke-miterlimit:10;}
	.st1{fill:#D99F89;}
</style>
<path class="st0" d="M300.02,470.83c-1.42,0.15-1.12,2.75-5,9.88c-3.82,7.02-6,7.98-7.77,11.52c-2.94,5.88-0.2,9.81,5.55,25.93
	c3.96,11.1,5.95,16.65,6.66,21.4c0.98,6.48,0.97,15.81-3.89,27.57c6.69,1.91,10.78,1.35,13.32,0.41c3.67-1.35,3.7-3.34,8.88-6.58
	c3.26-2.05,7.67-4.81,11.66-4.12c4.21,0.73,5.32,4.91,8.33,9.47c4.85,7.36,11.99,11.59,18.32,15.34
	c15.37,9.12,39.29,12.93,50.77,6.66c1.32-0.72,4.67-2.55,5.39-5.5c0.77-3.11-1.93-5.29-5.83-10.96c-3.07-4.47-2.07-4.11-5.41-9.35
	c-6.07-9.55-12.93-16.31-13.83-15.95c-0.72,0.29,3.51,4.61,1.11,8.64c-1.45,2.45-4.5,3.54-5,3.7c-4.87,1.67-10.83-0.09-16.68-2.65
	c-19.91-8.74-29.39-20.39-29.39-20.39C312.33,505.26,305.25,470.29,300.02,470.83z"/>
<path class="st0" d="M192.47,465.41c-1.75,0.17-1.38,3.22-6.16,11.59c-4.7,8.23-7.4,9.36-9.58,13.52
	c-3.63,6.9-0.25,11.51,6.84,30.41c4.89,13.02,7.33,19.54,8.21,25.1c1.2,7.6,1.19,18.55-4.79,32.34c8.24,2.24,13.29,1.58,16.42,0.48
	c4.52-1.58,4.57-3.91,10.95-7.72c4.02-2.4,9.45-5.64,14.37-4.83c5.19,0.86,6.56,5.76,10.26,11.1c5.98,8.63,14.78,13.59,22.58,18
	c18.95,10.69,48.44,15.17,62.58,7.81c1.63-0.85,5.75-2.99,6.65-6.45c0.94-3.65-2.38-6.21-7.18-12.86
	c-3.78-5.25-2.56-4.83-6.66-10.97c-7.49-11.2-15.94-19.13-17.05-18.71c-0.89,0.34,4.32,5.4,1.37,10.14
	c-1.79,2.87-5.55,4.15-6.16,4.34c-6.01,1.96-13.35-0.1-20.56-3.11c-24.55-10.25-36.23-23.92-36.24-23.92
	C207.64,505.8,198.91,464.77,192.47,465.41z"/>
<rect x="423.59" y="1288.59" style="fill:none;" width="0" height="2.88"/>
<g>
	<path class="st1" d="M283.52,560.06c-5.31-9.44-9.22-19.34-12.31-29.57c-2.71-13.73-3.82-27.98-7.23-41.38
		c-1.82-7.14-3.68-14.25-5.12-21.45c-0.18-1.51-0.37-3.02-0.53-4.53c-1.16-10.6-1.93-21.24-2.26-31.89
		c0.14-3.67,0.38-7.33,0.74-10.99c0.14-1.4-0.23-2.49-0.9-3.28c0.13-18.79,1.68-37.56,4.96-56.1c1.11-6.29-8.52-8.99-9.64-2.66
		c-4.3,24.33-5.86,48.97-5.1,73.59c-0.23,10.56,0.62,20.9,2.21,31.19c0.07,0.68,0.14,1.35,0.21,2.03c0.12,1.03,0.24,2.06,0.36,3.09
		c-0.12,0.02-0.24,0.04-0.36,0.05l0.37-0.03c2.69,23.04,6.32,47.02,13.86,69.32c1.14,5.07,2.54,10.07,4.35,14.96
		c-10.43-5.83-18.86-15.02-23.36-26.32c-2.35-5.91-12.03-3.33-9.64,2.66c7.62,19.12,23.7,33.66,43.78,38.65
		C282.12,568.46,285.69,563.91,283.52,560.06z"/>
	<path class="st1" d="M248.53,468.16l-0.76,0.05C248.03,468.21,248.28,468.19,248.53,468.16z"/>
</g>
<path class="st1" d="M298.9,560.59c-0.01-0.02-0.02-0.03-0.03-0.05c0.38-2.51-1.54-5.2-4.02-5.84
	c-9.57-14.34-17.68-29.83-23.18-46.08c-3.52-15.94-5.4-32.14-4.02-48.65c0.11-1.3-0.22-2.33-0.81-3.1
	c-3.26-31.46-2.92-63.29,1.35-94.64c1.94-14.22,4.68-28.35,8.17-42.27c1.38-0.24,2.7-1.04,3.53-2.16c0.02-1.98,0.04-3.97,0.04-5.95
	c-0.22-0.63-0.43-1.26-0.65-1.88c0.24-0.73,0.47-1.46,0.66-2.19c0-1.77,0.01-3.54,0-5.31c-1.14-2.79-4.18-5.39-5.89-7.43
	c-1.25-1.5-2.48-3.02-3.73-4.52c-1.02-1.8-2.08-3.59-3.19-5.35c-0.79-1.24-1.85-1.93-2.98-2.2c-1.88-2.32-3.76-4.64-5.62-6.98
	c-2.16-2.71-5.2-1.89-6.92,0.22c-0.33,0-0.66,0.04-0.99,0.1c-5.95-3.8-15.08-8.23-19.84-2.2c-3.03,0.47-5.66,2.01-7.07,5.37
	c-2.63,6.29-2.78,14.38-3.08,21.1c-0.68,15.48-0.76,31.17,0.09,46.65c0.44,8.13,0.86,16.64,3.25,24.42
	c-1.51,9.32-2.44,18.74-2.9,28.2c0.08,0.16,0.16,0.32,0.23,0.49c6.83,18.69,2.72,38.38-0.37,57.87c-0.35,3.56-0.62,7.09-0.66,10.58
	c-0.01,1.18-0.39,2.13-0.97,2.89c0.17,7.94,0.54,15.87,1.2,23.8c1.38,16.75,3.85,35.92,20.01,44.98
	c6.22,6.61,13.02,12.66,20.37,18.06c7.16,5.25,15.88,9.45,24.52,8.95c2.95,0.72,5.99,0.97,9.18,0.63
	C297.95,567.75,301.32,564,298.9,560.59z M255.92,446.92c-0.53,0.7-0.9,1.55-1.03,2.58c-0.16,1.32-0.3,2.64-0.42,3.96
	c-2.4-26.33-3.93-52.74-4.54-79.17c3.03-4.68,5.07-10.21,6.9-15.76c0.55,0.34,1.15,0.58,1.78,0.69
	C254.55,388.24,253.63,417.67,255.92,446.92z M265.63,543.05c0.95-1.69,1-3.94-0.6-5.94c-0.48-0.6-0.96-1.2-1.45-1.81
	c0.59-0.99,0.88-2.23,0.65-3.69c-1.31-8.2-2.53-16.42-3.66-24.65c0.49,1.59,1,3.17,1.54,4.74c2.74,12.13,6.38,24.1,10.24,35.93
	C270.06,546.17,267.82,544.64,265.63,543.05z"/>
<path class="st1" d="M390.05,553.98c-1.49-14.01-10.34-24.28-16.93-35.98c-8.31-25.3-11.76-51.91-14.97-78.33
	c-0.26-2.18-1.63-3.61-3.28-4.3c-2.95-21.92-4.98-43.95-6.1-66.04c-0.49-9.73-0.58-19.5-0.67-29.27
	c1.51-11.42,3.44-22.82,3.64-34.35c0.13-7.48-0.59-14.91-2.46-22.09c0.14-0.68,0.3-1.35,0.43-2.03c1.13-5.7,2.71-12.05,1.01-17.8
	c-1.52-5.15-5.74-9.17-9.42-12.86c-4.52-4.54-9.34-8.76-14.4-12.7c-1.48-1.15-3.11-2.57-4.86-3.8c-0.21-0.91-0.42-1.82-0.62-2.73
	c-1.14-5.19-9.52-4.41-9.81,0.64c-4.5,2.21-4.88,8.88-5.55,13.29c-2.02,13.35-1.83,26.65,0.22,39.98c0.03,0.17,0.08,0.31,0.12,0.46
	c-2.81,72.26,17.46,143.21,17.5,215.44c0,0.47,0.06,0.9,0.16,1.3c-1.49,15.18,6.49,28.57,18.11,38.08
	c11.54,9.44,27.26,20.15,42.89,18.1C387.51,558.66,390.37,556.95,390.05,553.98z"/>
<path class="st1" d="M252.22,531.61h-14.75c-6.6,0-12-5.4-12-12V269.87c0-6.6,5.4-12,12-12h14.75c6.6,0,12,5.4,12,12v249.74
	C264.22,526.21,258.82,531.61,252.22,531.61z"/>
<path class="st1" d="M350.79,492.32h-15.94c-6.6,0-12-5.4-12-12V307.08c0-6.6,5.4-12,12-12h15.94c6.6,0,12,5.4,12,12v173.24
	C362.79,486.92,357.39,492.32,350.79,492.32z"/>
</svg>
