<?xml version="1.0" encoding="utf-8"?>
<!-- Generator: Adobe Illustrator 27.2.0, SVG Export Plug-In . SVG Version: 6.00 Build 0)  -->
<svg version="1.1" xmlns="http://www.w3.org/2000/svg" xmlns:xlink="http://www.w3.org/1999/xlink" x="0px" y="0px"
	 viewBox="0 0 595.28 841.89" style="enable-background:new 0 0 595.28 841.89;" xml:space="preserve">
<style type="text/css">
	.st0{fill:#BE2026;}
	.st1{fill:none;stroke:#000000;stroke-width:5;stroke-miterlimit:10;}
	.st2{fill:#17BBEE;}
	.st3{fill:#D89F8C;}
	.st4{fill:#B0C4CD;stroke:#231F20;stroke-width:0.75;stroke-miterlimit:10;}
	.st5{fill:url(#SVGID_1_);stroke:#010101;stroke-miterlimit:10;}
	.st6{fill:#010101;}
	.st7{fill:#FFFFFF;}
	.st8{fill:#01A79D;}
	.st9{fill:#EB3292;}
	.st10{fill:#EB0D8C;}
	.st11{opacity:0.51;fill:#D83694;stroke:#010101;stroke-miterlimit:10;enable-background:new    ;}
	.st12{fill:#5652A3;stroke:#010101;stroke-width:0.5;stroke-miterlimit:10;}
	.st13{fill:#D65CA2;stroke:#010101;stroke-width:0.5;stroke-miterlimit:10;}
	.st14{fill:#6352A3;stroke:#010101;stroke-width:0.5;stroke-miterlimit:10;}
	.st15{fill:#3753A4;stroke:#010101;stroke-width:0.5;stroke-miterlimit:10;}
	.st16{fill:#B97A51;stroke:#010101;stroke-width:0.5;stroke-miterlimit:10;}
	.st17{fill:#D666A7;stroke:#010101;stroke-width:5;stroke-miterlimit:10;}
</style>
<g id="Layer_2">
	<path class="st0" d="M-129.5,23.58c0.64,0,0.64-1,0-1"/>
	<path class="st0" d="M583.28,786.18H30.06c-6.6,0-12-5.4-12-12V97.76c0-6.6,5.4-12,12-12h553.22c6.6,0,12,5.4,12,12v676.42
		C595.28,780.78,589.88,786.18,583.28,786.18z"/>
	<line class="st1" x1="56.97" y1="631.67" x2="536.76" y2="637.15"/>
	<line class="st1" x1="60.2" y1="520.87" x2="539.99" y2="526.34"/>
	<line class="st1" x1="57.59" y1="405.91" x2="537.38" y2="411.39"/>
	<line class="st1" x1="52" y1="313.45" x2="531.79" y2="318.93"/>
	<line class="st1" x1="52" y1="246.18" x2="531.79" y2="251.65"/>
	<line class="st1" x1="50.34" y1="179.4" x2="486.73" y2="184.38"/>
</g>
<g id="Layer_1">
	<path class="st2" d="M416.98,772.98"/>
	<g>
		<path class="st3" d="M329.6,618.12c0.94,6.15,0.96,7.7,3.74,21.47c0.5,2.49,1.51,9.31,3.5,22.96c0.48,3.27,3.86,26.81,3.74,40.56
			c-0.02,2.07-0.13,4.92-0.7,8.35c-0.86,5.14-1.97,6.86-2.57,9.54c-1.56,7.03,1.93,14.07,6.77,23.86c1.8,3.64,4.52,8.56,8.43,13.85
			c2.16,2.44,6.58,6.69,13.06,7.92c1.61,0.31,2.42,0.45,2.96-0.02c3.6-3.11-5-21.29-9.81-46.49c-1.78-9.31-2.48-22.42-3.9-48.63
			c-1.47-27.21-0.63-33.19,0.9-38.87c2.54-9.44,2.71-9.11,3.55-16.04c2.19-18.14-2.7-42.65-14.97-48.08
			c-0.65-0.29-8.12-3.45-13.13,1.44C323.38,577.56,326.74,599.49,329.6,618.12z"/>
		<path class="st3" d="M368.51,620.32c0.34,2.49,0.6,4.84,1.07,8.28c1.39,10.17,1.67,9.04,1.79,11.71c0.29,6.48-1.41,7.8-2.14,19.05
			c-0.15,2.33-0.24,3.76-0.23,5.51c0.14,14.95,7.86,25.68,7.9,34.58c0.02,3.93-0.54,7.77-0.54,7.77c-0.66,4.78-1.51,6.39-1.96,8.88
			c-1.19,6.55,1.47,13.1,5.18,22.21c1.38,3.39,3.46,7.97,6.44,12.89c2.11,3.49,5.55,7.26,9.98,7.38c2.1,0.06,5-0.73,5.79-2.66
			c1.15-2.81-2.75-6.76-4.2-8.43c-6.05-6.95-6.06-15.94-6.81-32.21c-0.7-15.11-2.79-30.15-2.98-45.27
			c-0.55-44.49-3.93-86.24-4.98-86.22c-0.79,0.01-2.09,23.27-0.83,23.4c1.68,0.18,7.56-40.44,2.29-41.96
			c-1.35-0.39-2.72,2.02-6.75,2.19c-3.91,0.17-4.82-1.99-6.39-1.28C365.9,568.54,365.41,597.25,368.51,620.32z"/>
	</g>
	<path class="st4" d="M372.48,716.22c-0.47,0.07-0.37,1.29-1.66,4.65c-1.27,3.3-1.99,3.76-2.58,5.42
		c-0.98,2.77-0.07,4.62,1.84,12.21c1.32,5.23,1.98,7.84,2.21,10.07c0.32,3.05,0.32,7.44-1.29,12.98c2.22,0.9,3.58,0.63,4.42,0.19
		c1.22-0.64,1.23-1.57,2.95-3.1c1.08-0.96,2.55-2.26,3.87-1.94c1.4,0.35,1.77,2.31,2.77,4.46c1.61,3.46,3.98,5.46,6.08,7.22
		c5.1,4.29,13.05,6.09,16.86,3.14c0.44-0.34,1.55-1.2,1.79-2.59c0.25-1.47-0.64-2.49-1.93-5.16c-1.02-2.11-0.69-1.94-1.8-4.4
		c-2.02-4.49-4.29-7.68-4.59-7.51c-0.24,0.13,1.16,2.17,0.37,4.07c-0.48,1.15-1.5,1.66-1.66,1.74c-1.62,0.79-3.6-0.04-5.54-1.25
		c-6.61-4.11-9.76-9.6-9.76-9.6C376.57,732.43,374.22,715.97,372.48,716.22z"/>
	<path class="st3" d="M350.13,535.73"/>
	<path class="st3" d="M430.93,490.56"/>
	<path class="st3" d="M397.96,470.13c-1.65-6.18-0.76-6.77-2.16-12.96c-2.71-11.98-9.56-25.33-13.76-24.35
		c-3.79,0.88-1.46,10.12-7.36,13.81c-4.58,2.87-9.72-0.37-26.79-6.05c-20.24-6.74-24.91-6.15-28.12-5.22
		c-6.32,1.84-13.68,6.97-14.93,14.08c-0.24,1.4-0.5,4.28,2.25,10.42c1.43,3.2,12.43,26.81,31.54,30.13c2.88,0.5,7.04,0.73,8.73,3.66
		c1.65,2.86,0.55,7.59-1.69,8.45c-2.02,0.77-4.66-1.7-5.91-2.82c-12.5-11.14-22.93-8.9-36.05-23.09
		c-5.25-5.68-13.32-14.4-11.6-23.98c0.74-4.12,3.36-7.3,8.61-13.66c6.12-7.42,9.4-11.19,15.16-14.58
		c5.52-3.25,11.64-5.08,13.51-10.63c0.32-0.96,0.13-1.28,0.72-2.57c1.25-2.72,3.74-3.95,6.93-9.54c8.6-15.06,3.2-28.38,8.29-31.02
		c5.81-3,19.85,10.68,21.68,26.69c0.32,2.85,0.22,5.36,0,7.36c0,0,3.44,0.48,7.39,2.04c4.98,1.96,5.3,5.55,10.48,8.55
		c3.55,2.06,4.36,1.24,6.98,2.76c2.5,1.46,5.51,4.4,8.45,15.21c3.07,11.28,1.93,15.94,5.35,29.29c1.77,6.89,2.86,8.72,4.6,10.06
		c5.82,4.5,15.63,1.07,19.26-0.2c11.45-4,16.42-11.38,19.96-9.29c1.77,1.05,2.29,3.95,1.86,6.04c-1.03,4.94-7.6,6.19-18.59,10.87
		c-17.19,7.31-19.19,11.93-24.12,10.02C402.56,487.29,400.12,478.18,397.96,470.13z"/>
	
		<linearGradient id="SVGID_1_" gradientUnits="userSpaceOnUse" x1="1222.9418" y1="486.1456" x2="1347.8267" y2="486.1456" gradientTransform="matrix(-0.836 0 0 -1 1424.2661 842.1102)">
		<stop  offset="0.0975" style="stop-color:#F38CB9"/>
		<stop  offset="1" style="stop-color:#FBEE3B"/>
	</linearGradient>
	<path class="st5" d="M380.34,302.66c1.66-0.3,4.13-0.58,7.2-0.32c0.03,0,0.45,0.04,0.85,0.09c2.87,0.34,7.29,0.86,9.92,3.56
		c3.77,3.87,4.72,13.07,2.06,17.81c-1.61,2.87-3.83,2.86-5.24,6.65c-0.96,2.59-0.44,3.99-0.75,6.65c-0.9,7.81-6.91,8.58-9.54,16.62
		c-1.82,5.56,0.68,6.29-0.75,13.77c-1.83,9.54-7.26,15.42-9.92,18.29c-4.12,4.45-7.96,8.6-12.91,8.07
		c-4.99-0.53-8.32-5.48-11.42-10.21c-7.56-11.56-9.14-24.24-9.92-23.99c-0.59,0.19,1.23,7.22,0.94,16.15
		c-0.17,5.27-0.53,16.04-5.8,23.51c-7.24,10.25-17.39,5.28-21.71,15.67c-1.83,4.41-1.31,8.46-4.3,10.69
		c-2.5,1.86-6.13,1.48-8.42-0.71c-3.92-3.76-3.82-12.76-1.68-18.76c3.13-8.78,9.65-8.42,10.67-15.44c0.92-6.35-4.21-8.12-3.74-15.2
		c0.37-5.61,3.71-6.27,12.16-20.19c2.16-3.56,3.88-6.41,5.8-10.69c1.01-2.24,3.23-7.48,5.24-15.44c2.83-11.21,1.59-13.46,3.37-19.95
		c2.2-8.01,7.28-16.24,14.04-20.66c15.88-10.38,33.82,5.03,35.37,6.41c3.01,2.67,5.17,5.42,6.55,7.36"/>
	<path class="st3" d="M387.99,335.97c1.79,2.8-0.68,8.42-2.01,11.4c-1.08,2.41-1.65,2.71-2.21,4.7c-1.12,3.95-0.09,7,0.2,9.39
		c0.22,1.8,0.2,4.8-7.04,17.22c-6.32,10.84-9.47,16.26-12.26,16.99c-6.69,1.76-15.67-5.37-19.7-13.19
		c-3.53-6.84-5.26-18.07-10.05-20.35c-0.38-0.18-1.6-0.7-2.61-2.01c-2-2.59-1.64-6.24-1.61-6.48c0.56-4.98,5.38-5.35,8.64-10.51
		c4.74-7.51,0.1-15.56,3.42-17.66c3.87-2.46,10.96,8.02,21.11,8.94c3.81,0.35,7.64,0.22,7.64,0.22c3.29-0.11,3.78-0.39,6.43-0.45
		C383.71,334.04,386.72,333.97,387.99,335.97z"/>
	<g>
		<path class="st6" d="M358,349.12c0.06-0.03,0.12-0.05,0.18-0.08c0,0,0,0,0.01,0c-0.01,0-0.02,0.01-0.03,0.01
			c0.02-0.01,0.04-0.02,0.05-0.03h0.01l0.01-0.01c0.11-0.06,0.23-0.13,0.34-0.2c0.23-0.15,0.45-0.31,0.66-0.49
			c0.05-0.04,0.1-0.09,0.15-0.14c0.02-0.02,0.04-0.03,0.05-0.05c0.1-0.1,0.19-0.2,0.29-0.3c0.19-0.21,0.37-0.44,0.54-0.68
			c0.22-0.32,0.69-0.3,0.91,0c0.25,0.34,0.24,0.79,0,1.13c-0.76,1.09-1.75,1.89-2.83,2.39c-0.32,0.15-0.72-0.16-0.79-0.56
			C357.47,349.65,357.67,349.27,358,349.12z"/>
		<path class="st6" d="M358.19,349.03c0.03-0.01,0.04-0.02,0.04-0.02h-0.01C358.21,349.02,358.2,349.03,358.19,349.03z"/>
	</g>
	<path class="st7" d="M349.75,350.56c0.07-0.35,0.32-0.56,0.61-0.61c1.92-0.31,3.92-0.47,5.79,0.09c0.22,0.03,0.42,0.09,0.62,0.17
		c0.48,0.1,0.95,0.35,1.35,0.72c0.36-0.08,0.77,0.17,0.77,0.76c-0.01,1.24,0.18,2.42,0.57,3.57c0.16,0.46-0.24,1.05-0.62,1.01
		c-3.35-0.36-7.16-1.06-9.07-4.96C349.63,351.03,349.65,350.77,349.75,350.56z M353.81,352.25c0.07-0.19,0.15-0.37,0.24-0.54
		c-0.51,0.08-1.03,0.17-1.54,0.2c-0.23,0.01-0.47,0.01-0.7-0.01c0.52,0.6,1.12,1.07,1.78,1.42
		C353.56,352.93,353.64,352.56,353.81,352.25z"/>
	<path class="st6" d="M347.96,350.66c0.32-0.49,0.62-0.99,0.92-1.49c1.76-0.12,3.48-0.82,5.26-0.78c0.52,0.01,1.03,0.07,1.54,0.16
		l0,0c-0.03-0.4,0.14-0.76,0.45-0.88c0.1-0.04,0.19-0.08,0.28-0.13c0.14-0.08,0.29-0.17,0.42-0.27c0.08-0.06,0.16-0.12,0.24-0.19
		c0.03-0.03,0.07-0.06,0.1-0.09c0.01-0.01,0.01-0.01,0.02-0.02c0.14-0.14,0.27-0.3,0.4-0.46c0.06-0.08,0.12-0.16,0.17-0.25
		c0,0,0.01-0.01,0.01-0.02l0,0c0.03-0.05,0.06-0.1,0.09-0.15c0.1-0.17,0.22-0.31,0.39-0.37c0.15-0.05,0.36-0.03,0.5,0.08
		c0.28,0.22,0.44,0.73,0.23,1.1c-0.47,0.85-1.1,1.53-1.84,1.98c0.65,0.21,1.29,0.51,1.89,0.9c0.14,0.08,0.28,0.16,0.42,0.24
		c0.09,0.05,0.16,0.12,0.21,0.2c0.03-0.01,0.05-0.02,0.08-0.02c0.07,0,0.13-0.01,0.2-0.02c0.02,0,0.08-0.01,0.06-0.01
		c0,0,0,0,0.01,0c0.12-0.03,0.25-0.06,0.37-0.1c0.13-0.04,0.26-0.09,0.38-0.15c0.02-0.01,0.04-0.02,0.06-0.03c0,0,0,0,0.01-0.01
		c0.06-0.04,0.12-0.07,0.18-0.11c0.11-0.07,0.22-0.15,0.33-0.24c0.06-0.04,0.11-0.09,0.17-0.14c0.02-0.01,0.09-0.09,0.02-0.02
		c-0.08,0.08,0.02-0.02,0.04-0.04c0.21-0.21,0.39-0.45,0.56-0.71c0.21-0.33,0.69-0.3,0.91,0c0.26,0.35,0.23,0.78,0,1.13
		c-0.63,0.98-1.54,1.63-2.52,1.89c-0.09,0.08-0.21,0.13-0.35,0.13c-0.05,0-0.1-0.01-0.15-0.02c-0.01,0-0.02,0-0.03,0.01
		c0.01,1.48,0.11,2.94,0.32,4.4c0.07,0.46-0.17,1.07-0.62,1.01c-2.14-0.25-4.33-0.49-6.35-1.47c-1.81-0.88-3.42-2.3-4.66-4.17
		c-0.16-0.24-0.19-0.51-0.13-0.75c-0.08,0-0.15,0.01-0.23,0.01C348.17,350.79,348.05,350.74,347.96,350.66z M354.94,353.83
		c0.04,0.15,0.12,0.35,0.22,0.51c-0.05-0.07,0.1,0.13,0.12,0.16c0.02,0.02,0.19,0.2,0.13,0.14c0.07,0.07,0.15,0.12,0.23,0.18
		c0.07,0.04,0.08,0.05,0.03,0.02c0.04,0.02,0.08,0.04,0.13,0.06c0.04,0.02,0.07,0.04,0.11,0.06c0.99,0.25,2,0.4,3.01,0.52
		c-0.14-1.26-0.22-2.53-0.23-3.8c0-0.1,0.01-0.19,0.04-0.27c-0.17-0.12-0.34-0.23-0.51-0.33c-0.88-0.46-1.8-0.78-2.75-0.95
		c-0.07-0.01-0.15-0.02-0.23-0.03c0,0.05,0,0.1-0.01,0.14c-0.19,1.01-0.45,2-0.4,3.01C354.86,353.43,354.88,353.62,354.94,353.83z
		 M353.68,354.15c-0.03-0.13-0.06-0.26-0.07-0.4c-0.15-1.25,0.12-2.49,0.35-3.7c-0.23,0.01-0.46,0.02-0.68,0.04
		c-1.14,0.11-2.3,0.52-3.44,0.66C350.89,352.24,352.19,353.42,353.68,354.15z"/>
	<path class="st8" d="M355.14,350.06c0.54-0.39,1.23-0.06,1.78,0.15c0.16,0.06,0.31,0.13,0.47,0.21c0.63-0.03,1.23,0.48,1.6,1.1
		c0.41,0.68,0.53,1.6,0.36,2.41c-0.02,0.09-0.06,0.18-0.1,0.25c0.25,0.71,0.57,1.66-0.1,2.15c-0.27,0.19-0.61,0.21-0.91,0.26
		c-0.27,0.04-0.54,0.08-0.81,0.07c-0.59-0.01-1.19-0.19-1.66-0.63c-0.98-0.91-1.29-2.42-1.27-3.88
		C354.52,351.39,354.55,350.48,355.14,350.06z"/>
	<path class="st6" d="M354.22,355.37c0.04-0.19,0.24-0.36,0.4-0.28c0.77,0.39,1.6,0.53,2.41,0.71c0.76,0.18,1.55,0.46,2.29,0.12
		c-0.02-0.23-0.04-0.47-0.06-0.7c-0.19,0.08-0.38,0.12-0.57,0.12c-0.91,0.07-1.81-0.46-2.33-1.43c-0.33-0.62-0.46-1.4-0.51-2.13
		c-0.03-0.47,0.02-0.97,0.2-1.39c-0.42-0.1-0.83-0.19-1.26-0.23c-0.41-0.04-0.41-0.85,0-0.8c1.65,0.18,3.24,0.75,4.71,1.69
		c0.19,0.12,0.19,0.36,0.11,0.53c0.13,1.64,0.26,3.28,0.4,4.92c0.02,0.22-0.16,0.4-0.32,0.4c-0.11,0-0.2-0.07-0.25-0.17
		c-0.31,0.13-0.64,0.2-0.97,0.18c-0.44-0.02-0.88-0.15-1.32-0.25c-0.9-0.21-1.85-0.34-2.7-0.78
		C354.28,355.78,354.17,355.6,354.22,355.37z M357.28,350.78c0.02,0.32,0.01,0.66,0,1c0.09,0.4,0.26,0.78,0.45,1.11
		c0.14,0.24,0.32,0.47,0.55,0.58c0.26,0.12,0.56,0.08,0.84,0.05c-0.05-0.63-0.11-1.27-0.16-1.9
		C358.42,351.28,357.86,351.01,357.28,350.78z"/>
	<path class="st7" d="M356.97,350.82c0.23-0.38,0.68-0.45,1.03-0.32c0.33,0.13,0.62,0.42,0.83,0.75c0.08,0.12,0.14,0.24,0.19,0.38
		c0.1,0.15,0.17,0.33,0.24,0.5c0.17,0.43,0.42,0.94,0.2,1.42c-0.2,0.42-0.64,0.53-0.99,0.37c-0.33-0.15-0.62-0.45-0.86-0.75
		c-0.23-0.3-0.43-0.64-0.59-1.01C356.85,351.74,356.72,351.23,356.97,350.82z"/>
	<path class="st6" d="M356.09,349.72c0.04,0.04,0.25,0.06,0.31,0.07c0.16,0.04,0.31,0.08,0.47,0.12c0.04,0.01,0.08,0.02,0.13,0.04
		c0.44-0.06,0.85,0.11,1.23,0.38c0.26,0.09,0.52,0.17,0.77,0.26c0-0.03,0-0.06,0-0.09c0.01-0.51,0.66-0.52,0.64,0
		c0,0.12,0,0.24,0,0.37c0.15,0.16,0.13,0.46,0,0.62c0,0.2,0.02,0.41,0.02,0.61c0.09,0.24,0.15,0.5,0.16,0.79
		c0,0.14-0.04,0.24-0.11,0.31c0.04,0.54,0.09,1.07,0.17,1.6c0.03,0.21-0.05,0.43-0.23,0.49c-0.15,0.05-0.37-0.07-0.4-0.28
		c-0.12-0.9-0.19-1.8-0.22-2.71c-0.16-0.34-0.42-0.64-0.66-0.88c-0.12-0.12-0.25-0.24-0.38-0.35c-0.22-0.07-0.44-0.14-0.65-0.21
		c-0.12-0.04-0.24-0.06-0.37-0.1c-0.01,0-0.03,0-0.04,0.01c-0.12,0.04-0.22-0.01-0.29-0.1c-0.1-0.03-0.2-0.06-0.3-0.08
		c-0.32-0.08-0.67-0.09-0.8-0.53C355.41,349.62,355.89,349.41,356.09,349.72z"/>
	<path class="st6" d="M368.39,371.17c0.73-0.73,1.4-1.48,1.79-2.56c0.35-0.96,0.46-2.07,0.31-3.11c-0.07-0.5,0.55-0.72,0.62-0.21
		c0.17,1.2,0.07,2.42-0.32,3.55c-0.42,1.22-1.14,2.08-1.96,2.9C368.53,372.06,368.07,371.5,368.39,371.17z"/>
	<path class="st6" d="M364.33,369.41h1.62c0.17,0,0.33,0.18,0.32,0.4c-0.01,0.22-0.14,0.4-0.32,0.4h-1.62
		c-0.17,0-0.33-0.18-0.32-0.4C364.01,369.59,364.15,369.41,364.33,369.41z"/>
	<g>
		<path class="st9" d="M360.55,376.47c0.95-0.67,1.88-1.29,3.01-1.07c0.49,0.09,0.93,0.33,1.32,0.7c0.48,0.46,0.84,1.17,1.46,1.33
			c0.58,0.15,1.19-0.03,1.78,0.12c0.45,0.12,1.03,0.31,1.23,0.88c0.09,0.24-0.02,0.47-0.17,0.56c0.05,0.17,0.04,0.37-0.12,0.49
			c-0.7,0.54-1.17,1.44-1.21,2.47c-0.03,0.8,0.03,1.5-0.51,2.06c-0.96,1-2.45,1.51-3.66,1.08c-1.39-0.5-2.25-2.13-3.01-3.55
			c-0.1-0.18-0.07-0.37-0.12-0.7C360.24,378.72,360.31,376.5,360.55,376.47c0.15-0.02,0.45,0.82,1.04,3.98 M356.6,375.83"/>
	</g>
	<path class="st6" d="M362.39,379.77c1.35-0.17,2.76,0.31,3.84,1.32c0.14,0.13,0.21,0.35,0.12,0.55c-0.08,0.17-0.3,0.27-0.44,0.14
		c-1.01-0.94-2.26-1.38-3.52-1.22c-0.17,0.02-0.32-0.2-0.32-0.4C362.06,379.94,362.21,379.79,362.39,379.77z"/>
	<g>
		<path class="st6" d="M378.55,350.75c0.05-0.04,0.11-0.08,0.16-0.12c0,0,0,0,0.01,0c-0.01,0.01-0.01,0.01-0.02,0.02
			c0.02-0.01,0.03-0.03,0.05-0.04l0.01-0.01l0.01-0.01c0.1-0.09,0.2-0.18,0.3-0.28c0.2-0.2,0.39-0.42,0.57-0.65
			c0.04-0.06,0.09-0.11,0.13-0.17c0.01-0.02,0.03-0.04,0.04-0.06c0.08-0.12,0.16-0.24,0.23-0.36c0.15-0.26,0.29-0.53,0.42-0.8
			c0.17-0.37,0.62-0.47,0.89-0.23c0.3,0.27,0.36,0.72,0.18,1.11c-0.57,1.25-1.41,2.29-2.39,3.04c-0.29,0.22-0.73,0.02-0.87-0.35
			C378.11,351.41,378.24,350.99,378.55,350.75z"/>
		<path class="st6" d="M378.71,350.62c0.02-0.02,0.04-0.03,0.03-0.03c0,0-0.01,0-0.01,0.01S378.72,350.61,378.71,350.62z"/>
	</g>
	<path class="st7" d="M370.69,354.21c0.01-0.36,0.22-0.63,0.5-0.75c1.83-0.78,3.76-1.43,5.69-1.35c0.22-0.02,0.43-0.02,0.63,0.01
		c0.49-0.02,0.98,0.11,1.44,0.38c0.34-0.17,0.79-0.02,0.87,0.55c0.19,1.22,0.57,2.33,1.13,3.35c0.23,0.41-0.06,1.09-0.45,1.15
		c-3.34,0.48-7.19,0.74-9.69-2.61C370.65,354.71,370.63,354.44,370.69,354.21z M374.94,354.86c0.04-0.2,0.09-0.4,0.15-0.59
		c-0.49,0.2-0.98,0.42-1.48,0.58c-0.23,0.07-0.46,0.12-0.68,0.17c0.61,0.46,1.27,0.77,1.97,0.95
		C374.8,355.59,374.82,355.2,374.94,354.86z"/>
	<path class="st6" d="M369.58,353.06c1.72-0.55,3.29-1.67,5.06-2.08c0.51-0.12,1.02-0.19,1.53-0.22l0,0
		c-0.1-0.38,0.01-0.78,0.3-0.98c0.09-0.06,0.17-0.13,0.26-0.19c0.13-0.11,0.25-0.23,0.37-0.36c0.07-0.08,0.14-0.16,0.2-0.24
		c0.03-0.04,0.06-0.07,0.08-0.11c0.01-0.01,0.01-0.02,0.02-0.03c0.12-0.17,0.22-0.36,0.32-0.55c0.05-0.09,0.09-0.19,0.13-0.29
		c0,0,0-0.01,0.01-0.02l0,0c0.02-0.06,0.04-0.11,0.06-0.17c0.07-0.19,0.16-0.36,0.32-0.46c0.14-0.09,0.35-0.12,0.5-0.04
		c0.31,0.15,0.54,0.6,0.4,1.02c-0.32,0.95-0.83,1.77-1.48,2.39c0.67,0.05,1.34,0.18,2,0.41c0.15,0.04,0.3,0.08,0.45,0.13
		c0.1,0.03,0.17,0.08,0.23,0.14c0.02-0.01,0.05-0.03,0.07-0.04c0.06-0.02,0.13-0.04,0.19-0.07c0.01-0.01,0.07-0.03,0.06-0.03
		c0,0,0,0,0.01,0c0.12-0.06,0.23-0.12,0.35-0.19c0.12-0.07,0.24-0.16,0.35-0.24c0.02-0.02,0.04-0.03,0.06-0.05c0,0,0,0,0.01-0.01
		c0.05-0.05,0.11-0.1,0.16-0.15c0.1-0.1,0.19-0.2,0.28-0.31c0.05-0.06,0.09-0.12,0.14-0.18c0.01-0.02,0.08-0.11,0.02-0.03
		c-0.06,0.1,0.02-0.03,0.03-0.05c0.17-0.26,0.31-0.54,0.44-0.83c0.16-0.37,0.63-0.46,0.89-0.23c0.31,0.28,0.35,0.71,0.18,1.11
		c-0.46,1.11-1.25,1.98-2.17,2.48c-0.08,0.1-0.18,0.18-0.32,0.21c-0.05,0.01-0.1,0.02-0.15,0.02c-0.01,0-0.02,0.01-0.03,0.01
		c0.25,1.45,0.58,2.86,1.02,4.23c0.14,0.44,0.01,1.09-0.45,1.15c-2.14,0.29-4.32,0.6-6.46,0.13c-1.92-0.42-3.72-1.41-5.24-2.93
		c-0.2-0.2-0.26-0.46-0.25-0.7c-0.07,0.02-0.15,0.05-0.22,0.07c-0.16,0.04-0.3,0.01-0.42-0.07c-0.01,0-0.02,0-0.04,0
		C369.05,354.19,369.31,353.62,369.58,353.06z M376.12,355.59c0.04,0.16,0.09,0.34,0.18,0.54c0.06,0.14,0.18,0.31,0.3,0.45
		c-0.06-0.06,0.12,0.11,0.14,0.12c0.02,0.02,0.22,0.15,0.15,0.11c0.08,0.05,0.17,0.08,0.26,0.11c0.08,0.02,0.09,0.03,0.03,0.02
		c0.04,0.01,0.09,0.02,0.13,0.02c0.04,0.01,0.08,0.02,0.11,0.03c1.01,0,2.03-0.1,3.03-0.23c-0.34-1.2-0.62-2.42-0.83-3.67
		c-0.02-0.1-0.02-0.19-0.01-0.27c-0.18-0.08-0.37-0.14-0.55-0.2c-0.94-0.24-1.89-0.32-2.84-0.25c-0.08,0.01-0.15,0.02-0.22,0.03
		c0.01,0.05,0.02,0.09,0.02,0.14C376,353.58,375.91,354.61,376.12,355.59z M375.11,356.76c-0.05-0.12-0.1-0.24-0.14-0.37
		c-0.35-1.19-0.28-2.47-0.25-3.71c-0.22,0.06-0.44,0.13-0.66,0.21c-1.1,0.39-2.17,1.08-3.27,1.5
		C372.08,355.57,373.54,356.41,375.11,356.76z"/>
	<path class="st8" d="M375.89,352.38c0.47-0.52,1.2-0.37,1.77-0.29c0.17,0.02,0.33,0.05,0.49,0.09c0.61-0.18,1.29,0.16,1.75,0.68
		c0.51,0.57,0.77,1.44,0.74,2.28c0,0.1-0.03,0.19-0.06,0.27c0.36,0.63,0.83,1.48,0.25,2.13c-0.23,0.26-0.56,0.36-0.85,0.48
		c-0.26,0.11-0.51,0.21-0.78,0.27c-0.58,0.13-1.19,0.11-1.73-0.2c-1.11-0.64-1.66-2.05-1.86-3.49
		C375.49,353.84,375.38,352.95,375.89,352.38z"/>
	<path class="st6" d="M375.84,357.82c0.01-0.2,0.17-0.41,0.34-0.37c0.81,0.19,1.65,0.12,2.48,0.1c0.77-0.02,1.59,0.06,2.26-0.46
		c-0.06-0.22-0.11-0.45-0.17-0.67c-0.17,0.13-0.35,0.21-0.54,0.25c-0.88,0.29-1.85,0-2.51-0.82c-0.43-0.52-0.68-1.26-0.85-1.96
		c-0.11-0.45-0.14-0.96-0.03-1.41c-0.42,0-0.85,0.02-1.27,0.08c-0.41,0.06-0.54-0.73-0.13-0.78c1.64-0.23,3.3-0.07,4.89,0.49
		c0.2,0.07,0.25,0.3,0.19,0.5c0.39,1.58,0.79,3.15,1.19,4.73c0.05,0.21-0.09,0.43-0.25,0.47c-0.11,0.03-0.21-0.02-0.28-0.11
		c-0.28,0.2-0.59,0.35-0.92,0.42c-0.44,0.09-0.89,0.07-1.33,0.08c-0.92,0.02-1.87,0.12-2.77-0.09
		C375.97,358.21,375.83,358.06,375.84,357.82z M378.11,352.56c0.07,0.31,0.11,0.64,0.16,0.97c0.15,0.37,0.38,0.7,0.62,0.97
		c0.18,0.2,0.39,0.39,0.63,0.43c0.28,0.05,0.56-0.06,0.83-0.16c-0.15-0.61-0.31-1.22-0.46-1.83
		C379.3,352.76,378.71,352.64,378.11,352.56z"/>
	<path class="st7" d="M377.81,352.68c0.17-0.43,0.59-0.61,0.95-0.56c0.35,0.04,0.67,0.25,0.94,0.53c0.09,0.1,0.18,0.2,0.25,0.32
		c0.12,0.12,0.22,0.28,0.31,0.44c0.24,0.38,0.56,0.82,0.42,1.34c-0.13,0.46-0.55,0.68-0.91,0.61c-0.34-0.07-0.68-0.28-0.96-0.53
		c-0.28-0.23-0.53-0.52-0.74-0.85C377.83,353.61,377.63,353.14,377.81,352.68z"/>
	<path class="st6" d="M376.77,351.81c0.05,0.03,0.26,0,0.31,0c0.16,0,0.32,0,0.48,0c0.04,0,0.09,0,0.13,0
		c0.42-0.16,0.85-0.1,1.26,0.06c0.27,0.02,0.53,0.04,0.8,0.07c0-0.03-0.01-0.06-0.01-0.09c-0.07-0.51,0.56-0.67,0.63-0.16
		c0.02,0.12,0.04,0.24,0.06,0.36c0.18,0.12,0.2,0.42,0.1,0.61c0.03,0.2,0.08,0.4,0.12,0.59c0.13,0.22,0.23,0.46,0.28,0.73
		c0.03,0.14,0,0.25-0.06,0.33c0.12,0.52,0.26,1.03,0.42,1.53c0.06,0.2,0.02,0.43-0.14,0.54c-0.14,0.09-0.37,0.03-0.43-0.18
		c-0.26-0.85-0.47-1.72-0.65-2.6c-0.21-0.3-0.52-0.52-0.79-0.7c-0.13-0.09-0.28-0.18-0.43-0.25c-0.22-0.02-0.45-0.03-0.68-0.04
		c-0.12,0-0.25,0-0.37-0.01c-0.01,0.01-0.03,0.01-0.04,0.02c-0.12,0.07-0.22,0.04-0.3-0.02c-0.1,0-0.21-0.01-0.31,0
		c-0.33,0-0.67,0.08-0.87-0.33C376.08,351.88,376.52,351.56,376.77,351.81z"/>
	<path class="st7" d="M352.9,350.43c1.66,0,1.66,3.2,0,3.2C351.24,353.64,351.24,350.43,352.9,350.43z"/>
	<path class="st6" d="M349.09,351.67c0.12-0.46,0.43-0.62,0.79-0.56c0.43,0.08,0.73,0.48,1,0.86c0.12,0.16,0.25,0.31,0.38,0.45
		c0.01,0.01,0.04,0.04,0.06,0.06c0.02,0.02,0.05,0.05,0.06,0.05c0.08,0.07,0.15,0.13,0.23,0.19c0.29,0.23,0.6,0.43,0.91,0.61
		c0.18,0.11,0.35,0.21,0.53,0.31c0.1,0.06,0.2,0.11,0.29,0.17c0.01,0.01,0.01,0.01,0.01,0.01s0,0,0.01,0
		c0.03,0.01,0.15,0.04,0.03,0.03c0.06,0.01,0.12,0.03,0.18,0.05c-0.12-1.15-0.08-2.32,0.1-3.47c0.07-0.41,0.48-0.69,0.79-0.56
		c0.35,0.14,0.52,0.54,0.45,0.99c-0.03,0.17-0.05,0.34-0.07,0.52c0,0.03-0.01,0.11-0.01,0.13c-0.01,0.08-0.01,0.16-0.02,0.24
		c-0.02,0.34-0.03,0.68-0.03,1.03c0,0.16,0.01,0.32,0.02,0.47c0.01,0.09,0.01,0.18,0.02,0.28c0,0.02,0.01,0.14,0.02,0.17
		c0.04,0.33,0.09,0.65,0.15,0.97c0.08,0.41-0.1,0.89-0.45,0.99c-0.28,0.08-0.58-0.08-0.72-0.39c-0.11,0.14-0.26,0.22-0.42,0.2
		c-0.44-0.05-0.84-0.32-1.23-0.56h-0.01c-0.23,0-0.4-0.13-0.5-0.31c-0.02-0.01-0.04-0.03-0.06-0.04c-0.1-0.03-0.18-0.09-0.25-0.17
		c-0.07-0.05-0.15-0.1-0.22-0.15c-0.33-0.24-0.65-0.53-0.93-0.85c-0.14-0.16-0.26-0.34-0.39-0.52c-0.03-0.04-0.06-0.08-0.09-0.12
		c-0.01-0.01-0.02-0.02-0.02-0.03c-0.02-0.01-0.05-0.03-0.06-0.04c-0.03-0.01-0.08-0.02-0.08-0.02
		C349.21,352.6,348.99,352.05,349.09,351.67z"/>
	<path class="st7" d="M372.95,354.14c0.06-0.08,0.13-0.13,0.21-0.17c0.08-0.05,0.16-0.07,0.25-0.07c0.17,0.01,0.34,0.08,0.46,0.23
		c0.04,0.05,0.06,0.11,0.09,0.16c0.04-0.11,0.1-0.2,0.2-0.23c0.03-0.01,0.06-0.01,0.09,0c0.05-0.03,0.09-0.05,0.14-0.05
		c0.18,0.01,0.31,0.18,0.32,0.4c-0.01,0.08,0,0.17,0.01,0.25c0.02,0.15,0.04,0.29,0.05,0.44c0,0.06,0,0.13,0,0.19
		c0.03,0.16,0.05,0.31,0.06,0.47l0,0c0.01,0.04,0.02,0.08,0.03,0.12c0.03,0.17-0.02,0.37-0.15,0.45c-0.09,0.06-0.19,0.06-0.28,0.02
		c-0.05,0.04-0.09,0.08-0.15,0.1c-0.16,0.05-0.35,0.04-0.5-0.08c-0.08-0.06-0.14-0.14-0.19-0.23c-0.05-0.06-0.11-0.11-0.16-0.16
		c-0.03-0.03-0.07-0.06-0.1-0.1c-0.03-0.03-0.07-0.05-0.1-0.08c-0.03-0.01-0.05-0.02-0.08-0.04c-0.08-0.03-0.15-0.09-0.21-0.17
		c-0.12-0.16-0.19-0.35-0.19-0.57c0-0.11,0-0.23,0-0.34C372.76,354.5,372.83,354.28,372.95,354.14z"/>
	<path class="st7" d="M361.36,378.7c1.05,0.06,2.1,0.23,3.13,0.49c0.33,0.08,0.55,0.59,0.45,0.99c-0.11,0.43-0.44,0.65-0.79,0.56
		c-0.24-0.06-0.49-0.12-0.73-0.17c-0.11-0.02-0.23-0.05-0.34-0.07c-0.04-0.01-0.08-0.01-0.12-0.02c0.03,0-0.11-0.02-0.13-0.02
		c-0.31-0.05-0.61-0.08-0.92-0.11c-0.09,0.07-0.2,0.11-0.32,0.1c-0.31-0.05-0.62-0.16-0.78-0.54
		C360.59,379.4,360.85,378.67,361.36,378.7z"/>
	<path class="st10" d="M356.93,375.54c1.17,0.57,2.18,0.91,3.43,0.53c1.11-0.34,2.26-0.84,3.41-0.39c0.47,0.18,0.89,0.51,1.25,0.91
		c0.19,0.21,0.36,0.44,0.53,0.68c0.21,0.31,0.13,0.32,0.43,0.22c0.97-0.34,2.17,0.11,3.03,0.66c0.15,0.1,0.24,0.24,0.29,0.39
		c0.29,0.28,0.43,0.79,0.08,1.16c-1.3,1.34-0.43,3.72-1.56,5.18c-0.5,0.65-1.19,0.94-1.89,1.05c-0.79,0.12-1.74,0.2-2.5-0.13
		c-0.8-0.34-1.43-1.2-2.04-1.9c-0.66-0.77-1.3-1.56-1.92-2.37s-1.23-1.64-1.84-2.48c-0.5-0.69-1.39-1.54-1.51-2.5
		C356.07,375.99,356.42,375.29,356.93,375.54z"/>
	<path class="st6" d="M379.05,343.17c2.18,0.96,4.29,2.09,5.89,3.8c0.57,0.61-0.55,1.75-1.12,1.15c-1.53-1.63-3.53-2.68-5.61-3.59
		C377.45,344.17,378.28,342.83,379.05,343.17z"/>
	<path class="st3" d="M398.12,390.73"/>
	<path class="st11" d="M391.18,349.05c-0.11-5-1.89-10.34-6.95-12.27c-4.47-1.7-8.2,1.27-11.45,3.95c-0.8,0.66-1.62,1.31-2.55,1.79
		c-0.28,0.14-0.57,0.31-0.89,0.36c-0.01-0.04-0.02-0.07-0.03-0.12c-0.6-2.47-2.95-4.77-5-6.1c-3.1-2.02-6.82-2.37-10.2-1.36
		c-0.29,0.04-0.58,0.12-0.88,0.28c-0.02,0.01-0.05,0.03-0.07,0.04c-1.19,0.46-2.33,1.08-3.36,1.87c-1.24,0.72-2.47,1.46-3.68,2.23
		c-2.29,1.45-5.01,3.08-4.13,6.29c0.67,2.42,2.8,4.71,4.33,6.64c1.6,2.02,3.4,3.84,5.46,5.39c3.92,2.93,9.17,4.49,13.99,3.14
		c1.85-0.52,4.07-2.09,6.05-1.61c1.34,0.32,2.57,1.97,3.66,3.06c0.77,0.76,1.61,1.48,2.54,2.03c0.73,1,1.75,1.71,3.16,1.69
		c0.83-0.02,1.54-0.32,2.12-0.8c1.51-0.33,2.92-1.11,4.1-2.18C391.23,359.88,391.28,353.85,391.18,349.05z"/>
	<path class="st6" d="M388.55,340.37c-2.68-3.66-6.8-5.3-11.26-4.32c-2.4,0.53-4.65,1.68-6.75,2.92c-0.56,0.33-1.22,0.72-1.81,1.17
		c-1.04-1.79-2.91-3.06-4.88-3.95c-3.19-1.43-6.79-3.04-10.37-2.67c-3.45,0.36-5.79,2.68-8.66,4.33c-2,1.15-4.32,1.73-5.97,3.28
		c-3.56-1.82-6.87-4.1-9.82-6.82c-1.18-1.09-2.96,0.68-1.77,1.77c3.12,2.87,6.62,5.32,10.4,7.24c0.13,0.49,0.57,0.88,1.07,0.95
		c0.09,0.63,0.46,1.19,0.78,1.74c0.6,1,1.21,2.01,1.83,3c2.29,3.64,4.86,7.2,8.24,9.9c3.13,2.5,6.87,4.3,10.92,4.5
		c2.21,0.11,4.04-0.58,6.06-1.37c1.7-0.67,3.23-0.85,4.88,0c2.72,1.39,4.72,3.9,7.55,5.11c3.38,1.45,6.95,0.22,9.19-2.59
		c2.65-3.32,3-7.99,3.2-12.08C391.59,348.3,391.09,343.84,388.55,340.37z M388.82,353.41c-0.23,3.28-0.49,7.21-2.76,9.81
		c-2.07,2.38-4.81,2.56-7.38,0.95c-2.16-1.36-3.92-3.31-6.24-4.41c-2.78-1.33-5.15-0.66-7.87,0.43c-3.38,1.34-6.98,0.64-10.13-1.02
		c-3.51-1.85-6.32-4.75-8.63-7.94c-1.2-1.66-2.29-3.39-3.36-5.14c-0.23-0.38-0.45-0.75-0.68-1.13c-0.4-0.67-0.63-0.65-0.06-1.16
		c0.82-0.72,1.87-1.29,2.78-1.9c0.47-0.32,0.62-0.86,0.54-1.34c0.24-0.11,0.48-0.22,0.7-0.34c2.29-1.24,4.23-3.28,6.79-3.98
		c2.88-0.8,5.91,0.4,8.55,1.48c2.31,0.95,5.66,2.22,5.98,5.08c0,0.29,0.05,0.59,0.16,0.91c0.37,1.01,1.67,1.24,2.28,0.3
		c0.79-1.23,1.82-2.16,3.09-2.88c0.35-0.2,0.54-0.49,0.59-0.79c0.16-0.08,0.29-0.14,0.38-0.19c1.72-0.9,3.59-1.69,5.54-1.88
		c3.44-0.33,6.31,1.52,8.01,4.43C388.97,345.93,389.08,349.79,388.82,353.41z"/>
	<polygon class="st12" points="343.09,311.34 340.38,308.44 336.46,309.03 338.38,305.56 336.61,302.01 340.5,302.76 343.33,299.98 
		343.82,303.92 347.34,305.75 343.75,307.43 	"/>
	<polygon class="st13" points="357.54,305.66 357.71,309.78 361.2,311.98 357.33,313.41 356.32,317.41 353.76,314.18 349.65,314.46 
		351.93,311.02 350.4,307.19 354.37,308.3 	"/>
	<polygon class="st13" points="391.42,317.41 387.99,317.85 386.4,320.93 384.92,317.8 381.5,317.24 384.02,314.86 383.5,311.44 
		386.54,313.11 389.63,311.55 388.99,314.95 	"/>
	<polygon class="st14" points="395.24,308.99 392.47,309.1 391,311.45 390.03,308.86 387.35,308.18 389.51,306.46 389.32,303.7 
		391.63,305.23 394.2,304.2 393.46,306.86 	"/>
	<path class="st15" d="M496.17,575.86"/>
	<path class="st6" d="M446.69,713.27"/>
	<path class="st6" d="M373.29,251.65"/>
	<path class="st4" d="M335.64,427.09c3.89-2.58,9.55,5.23,23.14,5.22c12.62-0.01,16.83-6.75,20.96-4.48
		c9.27,5.11-12.72,38.74-7.16,80.84c3.32,25.16,13.05,27.33,14.15,56.06c0.42,11.02,1.13,37.49-14.74,48.02
		c-4.36,2.89-9.05,3.91-11.41,4.42c-11.08,2.41-26.86,1.33-34.23-6.33c-6.8-7.07-2.29-26.62,7-65.43
		c11.95-49.89,12.82-53.29,12.36-61.67C344.08,453.52,329.17,431.39,335.64,427.09z"/>
	<g>
		<path class="st16" d="M476.39,357.27c0.18,0.04,0.29,0.06,0.44,0.06"/>
		<path class="st16" d="M451.34,358.31c0.83,0.89,2.6,2.11,4.22,1.79"/>
	</g>
	<path class="st6" d="M349.32,344.2c2.27-0.72,4.6-1.26,6.93-1.04c0.83,0.08,0.75,1.68-0.08,1.6c-2.22-0.21-4.42,0.31-6.59,1.01
		C348.78,346.02,348.52,344.45,349.32,344.2z"/>
	<path class="st6" d="M360.55,380.84"/>
	<path class="st6" d="M360.37,377.29"/>
	<path d="M368.17,380.63c-0.24-0.13-0.54-0.06-0.68,0.18c-0.02,0.04-0.05,0.08-0.07,0.12c-0.03-0.08-0.04-0.15-0.08-0.22
		c0.03-0.22-0.07-0.45-0.34-0.52c-0.12-0.03-0.25-0.07-0.37-0.1c-0.21-0.11-0.42-0.21-0.63-0.31c-0.65-0.44-1.35-0.86-2.1-1.07
		c-0.66-0.19-1.33-0.11-1.96,0.08c-0.24-0.07-0.48-0.13-0.72-0.2c-0.35-0.1-0.58,0.17-0.61,0.46c-0.19,0.03-0.37,0.08-0.53,0.15
		c-0.02-0.07-0.05-0.14-0.06-0.22c-0.06-0.25-0.36-0.43-0.62-0.35c-0.27,0.09-0.41,0.34-0.35,0.62c0.2,0.83,0.6,1.59,1.14,2.24
		c0.17,0.2,0.53,0.19,0.71,0c0.2-0.21,0.18-0.49,0-0.71c0,0,0,0,0,0c0.38-0.14,0.75-0.35,1.15-0.46c0.33-0.1,0.68-0.15,1.03-0.17
		c0.75,0.21,1.51,0.42,2.26,0.62c0.08,0.06,0.16,0.13,0.24,0.19c0.41,0.33,0.87,0.69,1.04,1.2c0.01,0.02,0.02,0.04,0.04,0.06
		c-0.04,0.07-0.08,0.13-0.12,0.19c-0.13,0.22-0.06,0.56,0.18,0.68c0.24,0.13,0.54,0.06,0.68-0.18c0.32-0.53,0.64-1.06,0.95-1.6
		C368.49,381.09,368.41,380.75,368.17,380.63z"/>
	<g>
		<g>
			<path class="st17" d="M259.58,660.75c16.17-28.05,24.06-35.79,24.64-51.94c0.35-9.96-2.54-9.23-2.47-19.27
				c0.1-21.58,13.47-38.82,30.56-60.89c0,0,14.88-19.19,20.6-34.94c1.32-3.56,2.47-7.61,2.47-7.61c0.9-3.08,1.35-4.62,1.41-5.38
				c0.58-6.03-5.81-8.1-8.16-15.67c-2.47-7.93,2.77-11.46,0.35-19.72c-1.8-6.15-6.59-10.77-11.03-12.55
				c-6.14-2.47-11.31,0.65-12.44-2.23c-0.74-1.9,1.41-3.36,1.77-8.5c0.32-4.78-1.32-6.56-0.35-8.95c1.38-3.4,6.23-3.56,7.1-3.56
				c1.77,0,6.2,0.41,18.83,13.89c5.81,6.19,4.54,1.44,9.03,3.14c1.22,0.45,6.72-0.6,13.69,0.29c11.79,1.54,11.15,1.12,12.69-0.29
				c3.25-2.95,3.56-0.59,2.57-5.4c-1.41-7.04-6.14-9.27-5.33-11.66c0.9-2.63,7.65-2.95,12.44,0.89c4.57,3.68,6.01,10.12,6.4,12.55
				c1.49,8.61-2.65,10.48-2.08,21.41c0.42,7.65,2.6,9.92,1.06,14.78c-1.32,4.17-3.34,3.84-5.33,8.95
				c-2.12,5.46-2.35,12.39-0.35,13.89c1.25,0.93,2.6-0.81,4.28,0.45c1.19,0.89,1.64,2.67,2.12,4.49c0.67,2.55,0.71,4.66,0.71,4.94
				c0.16,7.04,12.37,30.28,24.87,36.72c1.32,0.69,3.89,1.82,5.33,4.94c1.64,3.52,0.1,5.95,1.77,8.95c1.86,3.32,4.72,2.19,6.4,5.38
				c1.38,2.63,0.55,5.55,0.35,8.06c-0.9,12.59,14.85,17.17,17.07,34.05c0.61,4.57,0.71,13.89,0.71,13.89c0.35,12.79,0.35,13,0.35,13
				c0.67,20.53,38.1,54.25,35.44,84.17"/>
		</g>
		<path class="st17" d="M477.17,697.3c-17.04,27.93-25.63,32.91-30.34,31.91c-1.65-0.35-4.97-1.6-8.52-0.45
			c-3.73,1.21-5.24,3.84-7.46,5.83c-7.52,6.64-15.04-1.7-28.8,1.34c-7.36,1.62-5.75,4.17-13.5,6.28
			c-10.03,2.71-16.55-0.45-30.21-3.56c-15.27-3.48-12.95-0.85-26.65-4.05c-22.5-5.22-24.07-11.25-43.71-14.33
			c-7.12-1.12-11.65-1.38-14.33-1.64c-5.19-0.5-20.71-4.76-26.73-12.98c-7.36-10.05-3.13-29.47,12.65-44.9"/>
	</g>
	<path class="st3" d="M454.28,460.67c-0.07-0.03-0.19-0.08-0.34-0.13c-0.62-0.22-2.9-1.01-5.46-0.27c-0.47,0.14-1.33,0.39-2.2,1.03
		c-2.14,1.57-2.49,4.05-2.65,5.2c-0.21,1.49-0.6,4.36,1.17,5.83c1,0.83,2.47,1.02,6.69,0.31c6.61-1.11,13.5-3.32,13.32-4.03
		c-0.12-0.47-3.31-0.21-5.19-0.05c-2.19,0.18-3.49,0.47-3.54,0.3c-0.12-0.42,8-2.56,7.82-3.54c-0.09-0.5-2.33-0.5-3.13-0.5
		c-3.15,0.01-6.12,0.81-6.1,0.95c0.04,0.19,6.55-0.12,7.23-2.24c0.19-0.58-0.05-1.32-0.52-1.62c-0.63-0.41-1.69-0.07-3.63,0.56
		c-0.84,0.27-1.36,0.49-1.4,0.42c-0.13-0.22,5.03-2.43,4.72-3.88c-0.11-0.51-0.85-0.74-1.33-0.9c-2.89-0.92-4.9,1.34-6.56,0.53
		c-1.84-0.9-1.12-4.57-2.19-4.69c-0.47-0.05-0.94,0.62-1.39,1.32c-0.93,1.43-2.12,3.44-3.31,6.04"/>
	<g>
		<path class="st4" d="M103.71,176.25c-0.86,0.08-0.68,1.56-3.04,5.6c-2.32,3.98-3.65,4.53-4.72,6.54
			c-1.79,3.34-0.12,5.57,3.37,14.71c2.41,6.3,3.62,9.45,4.05,12.14c0.59,3.68,0.59,8.97-2.36,15.64c4.07,1.08,6.55,0.77,8.1,0.23
			c2.23-0.77,2.25-1.89,5.4-3.74c1.98-1.16,4.66-2.73,7.09-2.33c2.56,0.42,3.24,2.79,5.06,5.37c2.95,4.17,7.29,6.58,11.13,8.71
			c9.34,5.17,23.89,7.34,30.86,3.78c0.8-0.41,2.84-1.45,3.28-3.12c0.47-1.77-1.18-3-3.54-6.22c-1.87-2.54-1.26-2.33-3.29-5.31
			c-3.69-5.42-7.86-9.25-8.41-9.05c-0.44,0.16,2.13,2.61,0.67,4.9c-0.88,1.39-2.74,2.01-3.04,2.1c-2.96,0.95-6.58-0.05-10.14-1.51
			c-12.11-4.96-17.87-11.57-17.87-11.57C111.19,195.79,106.89,175.94,103.71,176.25z"/>
	</g>
</g>
</svg>
