<?xml version="1.0" encoding="utf-8"?>
<!-- Generator: Adobe Illustrator 27.2.0, SVG Export Plug-In . SVG Version: 6.00 Build 0)  -->
<svg version="1.1" xmlns="http://www.w3.org/2000/svg" xmlns:xlink="http://www.w3.org/1999/xlink" x="0px" y="0px"
	 viewBox="0 0 595.28 841.89" style="enable-background:new 0 0 595.28 841.89;" xml:space="preserve">
<style type="text/css">
	.st0{fill:#00BBEF;}
	.st1{fill:#D89F8B;}
	.st2{fill:#B0C4CD;stroke:#231F20;stroke-width:0.75;stroke-miterlimit:10;}
	.st3{fill:#B97A51;}
	.st4{fill:url(#SVGID_1_);stroke:#000000;stroke-miterlimit:10;}
	.st5{fill:#FFFFFF;}
	.st6{fill:#00A79D;}
	.st7{fill:#ED2D92;}
	.st8{fill:#EC008C;}
	.st9{opacity:0.51;fill:#D93393;stroke:#000000;stroke-miterlimit:10;enable-background:new    ;}
	.st10{fill:#5ACBF5;stroke:#000000;stroke-width:8;stroke-miterlimit:10;}
	.st11{fill:#5451A2;stroke:#000000;stroke-width:0.5;stroke-miterlimit:10;}
	.st12{fill:#D75AA1;stroke:#000000;stroke-width:0.5;stroke-miterlimit:10;}
	.st13{fill:#6251A2;stroke:#000000;stroke-width:0.5;stroke-miterlimit:10;}
	.st14{fill:#B97A51;stroke:#000000;stroke-width:0.5;stroke-miterlimit:10;}
	.st15{fill:#F1F2F2;}
	.st16{fill:#3C2415;}
	.st17{fill:#2E1400;stroke:#000000;stroke-miterlimit:10;}
	.st18{fill:#3A130E;stroke:#000000;stroke-width:0.5;stroke-miterlimit:10;}
	.st19{fill:#3652A4;stroke:#000000;stroke-width:0.5;stroke-miterlimit:10;}
	.st20{stroke:#000000;stroke-width:0.75;stroke-miterlimit:10;}
	.st21{stroke:#000000;stroke-miterlimit:10;}
	.st22{opacity:0.44;fill:#2E3192;enable-background:new    ;}
	.st23{fill:#F7A791;stroke:#231F20;stroke-miterlimit:10;}
	.st24{fill:#110B0E;stroke:#231F20;stroke-miterlimit:10;}
	.st25{fill:#1F3F1C;stroke:#231F20;stroke-miterlimit:10;}
	.st26{fill:#231F20;}
	.st27{fill:#006838;}
	.st28{fill:#BE1E2D;}
	.st29{opacity:0.59;fill:#6EBD44;stroke:#231F20;stroke-miterlimit:10;}
	.st30{fill:#6EBD44;stroke:#231F20;stroke-miterlimit:10;}
</style>
<g id="Layer_2">
	<path class="st0" d="M277.38,609.82"/>
	<g>
		<path class="st1" d="M190,454.96c0.94,6.15,0.96,7.7,3.74,21.47c0.5,2.49,1.51,9.31,3.5,22.96c0.48,3.27,3.86,26.81,3.74,40.56
			c-0.02,2.07-0.13,4.92-0.7,8.35c-0.86,5.14-1.97,6.86-2.57,9.54c-1.56,7.03,1.93,14.07,6.77,23.86c1.8,3.64,4.52,8.56,8.43,13.85
			c2.16,2.44,6.58,6.69,13.06,7.92c1.61,0.31,2.42,0.45,2.96-0.02c3.6-3.11-5-21.29-9.81-46.49c-1.78-9.31-2.48-22.42-3.9-48.63
			c-1.47-27.21-0.63-33.19,0.9-38.87c2.54-9.44,2.71-9.11,3.55-16.04c2.19-18.14-2.7-42.65-14.97-48.08
			c-0.65-0.29-8.12-3.45-13.13,1.44C183.77,414.41,187.14,436.33,190,454.96z"/>
		<path class="st1" d="M228.91,457.17c0.34,2.49,0.6,4.84,1.07,8.28c1.39,10.17,1.67,9.04,1.79,11.71c0.29,6.48-1.41,7.8-2.14,19.05
			c-0.15,2.33-0.24,3.76-0.23,5.51c0.14,14.95,7.86,25.68,7.9,34.58c0.02,3.93-0.54,7.77-0.54,7.77c-0.66,4.78-1.51,6.39-1.96,8.88
			c-1.19,6.55,1.47,13.1,5.18,22.21c1.38,3.39,3.46,7.97,6.44,12.89c2.11,3.49,5.55,7.26,9.98,7.38c2.1,0.06,5-0.73,5.79-2.66
			c1.15-2.81-2.75-6.76-4.2-8.43c-6.05-6.95-6.06-15.94-6.81-32.21c-0.7-15.11-2.79-30.15-2.98-45.27
			c-0.55-44.49-3.93-86.24-4.98-86.22c-0.79,0.01-2.09,23.27-0.83,23.4c1.68,0.18,7.56-40.44,2.29-41.96
			c-1.35-0.39-2.72,2.02-6.75,2.19c-3.91,0.17-4.82-1.99-6.39-1.28C226.29,405.38,225.8,434.09,228.91,457.17z"/>
	</g>
	<path class="st2" d="M232.88,553.07c-0.47,0.07-0.37,1.29-1.66,4.65c-1.27,3.3-1.99,3.76-2.58,5.42
		c-0.98,2.77-0.07,4.62,1.84,12.21c1.32,5.23,1.98,7.84,2.21,10.07c0.32,3.05,0.32,7.44-1.29,12.98c2.22,0.9,3.58,0.63,4.42,0.19
		c1.22-0.64,1.23-1.57,2.95-3.1c1.08-0.96,2.55-2.26,3.87-1.94c1.4,0.35,1.77,2.31,2.77,4.46c1.61,3.46,3.98,5.46,6.08,7.22
		c5.1,4.29,13.05,6.09,16.86,3.14c0.44-0.34,1.55-1.2,1.79-2.59c0.25-1.47-0.64-2.49-1.93-5.16c-1.02-2.11-0.69-1.94-1.8-4.4
		c-2.02-4.49-4.29-7.68-4.59-7.51c-0.24,0.13,1.16,2.17,0.37,4.07c-0.48,1.15-1.5,1.66-1.66,1.74c-1.62,0.79-3.6-0.04-5.54-1.25
		c-6.61-4.11-9.76-9.6-9.76-9.6C236.96,569.28,234.61,552.81,232.88,553.07z"/>
	<g id="Layer_1">
		<g id="Layer_4">
		</g>
		<g id="Layer_1_00000070077239380380391430000008322784165172108680_">
		</g>
		<path class="st1" d="M210.52,372.58"/>
		<g>
			<path class="st1" d="M237.45,247.79c-1.79,6.36,0.89,12.48,2.69,16.89c2.87,7.06,6.18,9.93,11.03,16.05
				c10.73,13.56,20.38,32.19,18.93,41.69c-0.44,2.9-1.93,6.55-0.9,11.26c0.4,1.83,1.18,3.72,0.22,5.16
				c-0.79,1.2-2.06,1.01-2.69,2.35c-0.45,0.95,9.84,1.96,10.02,4.34c0.13,1.63-3.9,2.75-3.97,4.96c-0.03,1.01,3.29,1.11,3.8,1.65
				c0.46,0.49-1.26-2.13-0.66-2.48c1.15-0.68-6.34,0.58-6.09-5.18c0.08-1.99,0.26-3.09,0.55-4.16c0.21-0.75,1.27-4.62,2.98-4.74
				c0.8-0.06,0.9,0.76,2.43,1.27c1.55,0.52,2.04-0.12,2.87,0.46c1.2,0.85,0.76,2.6,1.77,3.01c0.92,0.37,1.7-0.93,2.32-0.58
				c0.99,0.55-0.35,4.13,0.88,6.47c0.14,0.27,0.53,1.02,1.33,1.39c0.52,0.24,0.79,0.13,1.1,0.23c1.58,0.52,2.67,6.08,0.66,9.94
				c-0.31,0.6-0.73,1.22-0.99,2.31c-0.17,0.71-0.57,2.35,0.22,3.93c0.12,0.23,0.95,1.94,1.77,1.85c2.23-0.24,1.78-13.56,5.12-14.19
				c1.08-0.21,2,1.02,4.26,0.67c0.87-0.13,1.55-0.26,2.1-0.81c1.54-1.54-0.64-5.1,0.77-6.47c0.88-0.85,2.17,0.08,2.87-0.58
				c1.89-1.76-3.42-10.52-3.42-10.52c-36.77-60.59-55.81-91.97-60.85-88.83C238.11,245.43,237.89,246.22,237.45,247.79z"/>
			<path class="st3" d="M292.2,310.65c-3.11,1.85-1.18,5.38-4.93,11.81c-0.82,1.41-6.09,10.45-15.01,13.63
				c-1.78,0.63-4.36,1.27-5.58,3.63c-0.83,1.62-1.11,4.23,0.21,5.45c1.12,1.04,3,0.71,4.07,0.23c1.52-0.68,2.11-1.98,2.36-1.82
				c0.39,0.25-1.39,3.27-1.93,7.72c-0.36,2.95,0.17,3.77,0.43,4.09c0.91,1.13,2.2,0.66,3,2.04c0.71,1.23,0.65,2.64,0.65,2.64
				c0,0.09-0.01,0.07-0.01,0.09c0.04,1.34,4.83,0.66,6.65,3.41c0.7,1.06,0.57,2.04,1.29,2.27c0.87,0.28,1.91-0.86,2.36-1.36
				c8.54-9.54,12.81-14.31,13.51-20.66c0.54-4.94-1.13-4.57-0.43-8.86c1.51-9.27,9.33-11.23,8.79-16.35
				C307.06,313.03,297.03,307.77,292.2,310.65z"/>
		</g>
		<g id="Layer_3">
			<g>
				<path class="st1" d="M227.42,233.77c0.32,2.85,0.22,5.36,0,7.36c0,0,13.75,1.9,17.88,10.59c1.86,3.93,1.24,8.14,0.63,12.11
					c-0.26,1.71-2.32,14.41-10.85,19.66c-7.38,4.54-13.35-4.45-26.78-6.05c-17.14-2.04-36.99,7.83-37.6,16.67
					c-0.58,8.43,16.38,15.17,26.75,35.19c1,1.93,1.85,3.81,1.08,4.77c-2.48,3.12-21.03-4.74-33.71-18.43
					c-5.08-5.49-14.53-15.69-12.3-26.56c0.85-4.16,3.44-7.33,8.61-13.66c5.34-6.54,8.9-10.9,15.16-14.58
					c5.52-3.25,11.64-5.08,13.51-10.63c0.32-0.96,0.13-1.28,0.72-2.57c1.25-2.72,3.74-3.95,6.93-9.54
					c8.6-15.06,3.2-28.38,8.29-31.02C211.55,204.08,225.58,217.76,227.42,233.77z"/>
				
					<linearGradient id="SVGID_1_" gradientUnits="userSpaceOnUse" x1="1387.7367" y1="649.0801" x2="1512.6216" y2="649.0801" gradientTransform="matrix(-0.836 0 0 -1 1422.4301 841.8898)">
					<stop  offset="0.0975" style="stop-color:#F38BB9"/>
					<stop  offset="1" style="stop-color:#FDEF38"/>
				</linearGradient>
				<path class="st4" d="M240.74,139.51c1.66-0.3,4.13-0.58,7.2-0.32c0.03,0,0.45,0.04,0.85,0.09c2.87,0.34,7.29,0.86,9.92,3.56
					c3.77,3.87,4.72,13.07,2.06,17.81c-1.61,2.87-3.83,2.86-5.24,6.65c-0.96,2.59-0.44,3.99-0.75,6.65
					c-0.9,7.81-6.91,8.58-9.54,16.62c-1.82,5.56,0.68,6.29-0.75,13.77c-1.83,9.54-7.26,15.42-9.92,18.29
					c-4.12,4.45-7.96,8.6-12.91,8.07c-4.99-0.53-8.32-5.48-11.42-10.21c-7.56-11.56-9.14-24.24-9.92-23.99
					c-0.59,0.19,1.23,7.22,0.94,16.15c-0.17,5.27-0.53,16.04-5.8,23.51c-7.24,10.25-17.39,5.28-21.71,15.67
					c-1.83,4.41-1.31,8.46-4.3,10.69c-2.5,1.86-6.13,1.48-8.42-0.71c-3.92-3.76-3.82-12.76-1.68-18.76
					c3.13-8.78,9.65-8.42,10.67-15.44c0.92-6.35-4.21-8.12-3.74-15.2c0.37-5.61,3.71-6.27,12.16-20.19
					c2.16-3.56,3.88-6.41,5.8-10.69c1.01-2.24,3.23-7.48,5.24-15.44c2.83-11.21,1.59-13.46,3.37-19.95
					c2.2-8.01,7.28-16.24,14.04-20.66c15.88-10.38,33.82,5.03,35.37,6.41c3.01,2.67,5.17,5.42,6.55,7.36"/>
				<path class="st1" d="M248.39,172.82c1.79,2.8-0.68,8.42-2.01,11.4c-1.08,2.41-1.65,2.71-2.21,4.7c-1.12,3.95-0.09,7,0.2,9.39
					c0.22,1.8,0.2,4.8-7.04,17.22c-6.32,10.84-9.47,16.26-12.26,16.99c-6.69,1.76-15.67-5.37-19.7-13.19
					c-3.53-6.84-5.26-18.07-10.05-20.35c-0.38-0.18-1.6-0.7-2.61-2.01c-2-2.59-1.64-6.24-1.61-6.48c0.56-4.98,5.38-5.35,8.64-10.51
					c4.74-7.51,0.1-15.56,3.42-17.66c3.87-2.46,10.96,8.02,21.11,8.94c3.81,0.35,7.64,0.22,7.64,0.22c3.29-0.11,3.78-0.39,6.43-0.45
					C244.11,170.89,247.12,170.82,248.39,172.82z"/>
				<g>
					<path d="M218.4,185.97c0.06-0.03,0.12-0.05,0.18-0.08c0,0,0,0,0.01,0c-0.01,0-0.02,0.01-0.03,0.01
						c0.02-0.01,0.04-0.02,0.05-0.03h0.01l0.01-0.01c0.11-0.06,0.23-0.13,0.34-0.2c0.23-0.15,0.45-0.31,0.66-0.49
						c0.05-0.04,0.1-0.09,0.15-0.14c0.02-0.02,0.04-0.03,0.05-0.05c0.1-0.1,0.19-0.2,0.29-0.3c0.19-0.21,0.37-0.44,0.54-0.68
						c0.22-0.32,0.69-0.3,0.91,0c0.25,0.34,0.24,0.79,0,1.13c-0.76,1.09-1.75,1.89-2.83,2.39c-0.32,0.15-0.72-0.16-0.79-0.56
						C217.87,186.5,218.07,186.12,218.4,185.97z"/>
					<path d="M218.59,185.88c0.03-0.01,0.04-0.02,0.04-0.02h-0.01C218.61,185.87,218.6,185.88,218.59,185.88z"/>
				</g>
				<path class="st5" d="M210.15,187.41c0.07-0.35,0.32-0.56,0.61-0.61c1.92-0.31,3.92-0.47,5.79,0.09
					c0.22,0.03,0.42,0.09,0.62,0.17c0.48,0.1,0.95,0.35,1.35,0.72c0.36-0.08,0.77,0.17,0.77,0.76c-0.01,1.24,0.18,2.42,0.57,3.57
					c0.16,0.46-0.24,1.05-0.62,1.01c-3.35-0.36-7.16-1.06-9.07-4.96C210.03,187.88,210.05,187.62,210.15,187.41z M214.21,189.1
					c0.07-0.19,0.15-0.37,0.24-0.54c-0.51,0.08-1.03,0.17-1.54,0.2c-0.23,0.01-0.47,0.01-0.7-0.01c0.52,0.6,1.12,1.07,1.78,1.42
					C213.96,189.78,214.04,189.41,214.21,189.1z"/>
				<path d="M208.36,187.51c0.32-0.49,0.62-0.99,0.92-1.49c1.76-0.12,3.48-0.82,5.26-0.78c0.52,0.01,1.03,0.07,1.54,0.16l0,0
					c-0.03-0.4,0.14-0.76,0.45-0.88c0.1-0.04,0.19-0.08,0.28-0.13c0.14-0.08,0.29-0.17,0.42-0.27c0.08-0.06,0.16-0.12,0.24-0.19
					c0.03-0.03,0.07-0.06,0.1-0.09c0.01-0.01,0.01-0.01,0.02-0.02c0.14-0.14,0.27-0.3,0.4-0.46c0.06-0.08,0.12-0.16,0.17-0.25
					c0,0,0.01-0.01,0.01-0.02l0,0c0.03-0.05,0.06-0.1,0.09-0.15c0.1-0.17,0.22-0.31,0.39-0.37c0.15-0.05,0.36-0.03,0.5,0.08
					c0.28,0.22,0.44,0.73,0.23,1.1c-0.47,0.85-1.1,1.53-1.84,1.98c0.65,0.21,1.29,0.51,1.89,0.9c0.14,0.08,0.28,0.16,0.42,0.24
					c0.09,0.05,0.16,0.12,0.21,0.2c0.03-0.01,0.05-0.02,0.08-0.02c0.07,0,0.13-0.01,0.2-0.02c0.02,0,0.08-0.01,0.06-0.01
					c0,0,0,0,0.01,0c0.12-0.03,0.25-0.06,0.37-0.1c0.13-0.04,0.26-0.09,0.38-0.15c0.02-0.01,0.04-0.02,0.06-0.03c0,0,0,0,0.01-0.01
					c0.06-0.04,0.12-0.07,0.18-0.11c0.11-0.07,0.22-0.15,0.33-0.24c0.06-0.04,0.11-0.09,0.17-0.14c0.02-0.01,0.09-0.09,0.02-0.02
					c-0.08,0.08,0.02-0.02,0.04-0.04c0.21-0.21,0.39-0.45,0.56-0.71c0.21-0.33,0.69-0.3,0.91,0c0.26,0.35,0.23,0.78,0,1.13
					c-0.63,0.98-1.54,1.63-2.52,1.89c-0.09,0.08-0.21,0.13-0.35,0.13c-0.05,0-0.1-0.01-0.15-0.02c-0.01,0-0.02,0-0.03,0.01
					c0.01,1.48,0.11,2.94,0.32,4.4c0.07,0.46-0.17,1.07-0.62,1.01c-2.14-0.25-4.33-0.49-6.35-1.47c-1.81-0.88-3.42-2.3-4.66-4.17
					c-0.16-0.24-0.19-0.51-0.13-0.75c-0.08,0-0.15,0.01-0.23,0.01C208.57,187.64,208.45,187.59,208.36,187.51z M215.34,190.68
					c0.04,0.15,0.12,0.35,0.22,0.51c-0.05-0.07,0.1,0.13,0.12,0.16c0.02,0.02,0.19,0.2,0.13,0.14c0.07,0.07,0.15,0.12,0.23,0.18
					c0.07,0.04,0.08,0.05,0.03,0.02c0.04,0.02,0.08,0.04,0.13,0.06c0.04,0.02,0.07,0.04,0.11,0.06c0.99,0.25,2,0.4,3.01,0.52
					c-0.14-1.26-0.22-2.53-0.23-3.8c0-0.1,0.01-0.19,0.04-0.27c-0.17-0.12-0.34-0.23-0.51-0.33c-0.88-0.46-1.8-0.78-2.75-0.95
					c-0.07-0.01-0.15-0.02-0.23-0.03c0,0.05,0,0.1-0.01,0.14c-0.19,1.01-0.45,2-0.4,3.01C215.26,190.28,215.28,190.47,215.34,190.68
					z M214.08,191c-0.03-0.13-0.06-0.26-0.07-0.4c-0.15-1.25,0.12-2.49,0.35-3.7c-0.23,0.01-0.46,0.02-0.68,0.04
					c-1.14,0.11-2.3,0.52-3.44,0.66C211.29,189.09,212.59,190.27,214.08,191z"/>
				<path class="st6" d="M215.54,186.91c0.54-0.39,1.23-0.06,1.78,0.15c0.16,0.06,0.31,0.13,0.47,0.21c0.63-0.03,1.23,0.48,1.6,1.1
					c0.41,0.68,0.53,1.6,0.36,2.41c-0.02,0.09-0.06,0.18-0.1,0.25c0.25,0.71,0.57,1.66-0.1,2.15c-0.27,0.19-0.61,0.21-0.91,0.26
					c-0.27,0.04-0.54,0.08-0.81,0.07c-0.59-0.01-1.19-0.19-1.66-0.63c-0.98-0.91-1.29-2.42-1.27-3.88
					C214.92,188.24,214.95,187.33,215.54,186.91z"/>
				<path d="M214.62,192.22c0.04-0.19,0.24-0.36,0.4-0.28c0.77,0.39,1.6,0.53,2.41,0.71c0.76,0.18,1.55,0.46,2.29,0.12
					c-0.02-0.23-0.04-0.47-0.06-0.7c-0.19,0.08-0.38,0.12-0.57,0.12c-0.91,0.07-1.81-0.46-2.33-1.43c-0.33-0.62-0.46-1.4-0.51-2.13
					c-0.03-0.47,0.02-0.97,0.2-1.39c-0.42-0.1-0.83-0.19-1.26-0.23c-0.41-0.04-0.41-0.85,0-0.8c1.65,0.18,3.24,0.75,4.71,1.69
					c0.19,0.12,0.19,0.36,0.11,0.53c0.13,1.64,0.26,3.28,0.4,4.92c0.02,0.22-0.16,0.4-0.32,0.4c-0.11,0-0.2-0.07-0.25-0.17
					c-0.31,0.13-0.64,0.2-0.97,0.18c-0.44-0.02-0.88-0.15-1.32-0.25c-0.9-0.21-1.85-0.34-2.7-0.78
					C214.68,192.63,214.57,192.45,214.62,192.22z M217.68,187.63c0.02,0.32,0.01,0.66,0,1c0.09,0.4,0.26,0.78,0.45,1.11
					c0.14,0.24,0.32,0.47,0.55,0.58c0.26,0.12,0.56,0.08,0.84,0.05c-0.05-0.63-0.11-1.27-0.16-1.9
					C218.82,188.13,218.26,187.86,217.68,187.63z"/>
				<path class="st5" d="M217.37,187.67c0.23-0.38,0.68-0.45,1.03-0.32c0.33,0.13,0.62,0.42,0.83,0.75
					c0.08,0.12,0.14,0.24,0.19,0.38c0.1,0.15,0.17,0.33,0.24,0.5c0.17,0.43,0.42,0.94,0.2,1.42c-0.2,0.42-0.64,0.53-0.99,0.37
					c-0.33-0.15-0.62-0.45-0.86-0.75c-0.23-0.3-0.43-0.64-0.59-1.01C217.25,188.59,217.12,188.08,217.37,187.67z"/>
				<path d="M216.49,186.57c0.04,0.04,0.25,0.06,0.31,0.07c0.16,0.04,0.31,0.08,0.47,0.12c0.04,0.01,0.08,0.02,0.13,0.04
					c0.44-0.06,0.85,0.11,1.23,0.38c0.26,0.09,0.52,0.17,0.77,0.26c0-0.03,0-0.06,0-0.09c0.01-0.51,0.66-0.52,0.64,0
					c0,0.12,0,0.24,0,0.37c0.15,0.16,0.13,0.46,0,0.62c0,0.2,0.02,0.41,0.02,0.61c0.09,0.24,0.15,0.5,0.16,0.79
					c0,0.14-0.04,0.24-0.11,0.31c0.04,0.54,0.09,1.07,0.17,1.6c0.03,0.21-0.05,0.43-0.23,0.49c-0.15,0.05-0.37-0.07-0.4-0.28
					c-0.12-0.9-0.19-1.8-0.22-2.71c-0.16-0.34-0.42-0.64-0.66-0.88c-0.12-0.12-0.25-0.24-0.38-0.35c-0.22-0.07-0.44-0.14-0.65-0.21
					c-0.12-0.04-0.24-0.06-0.37-0.1c-0.01,0-0.03,0-0.04,0.01c-0.12,0.04-0.22-0.01-0.29-0.1c-0.1-0.03-0.2-0.06-0.3-0.08
					c-0.32-0.08-0.67-0.09-0.8-0.53C215.81,186.47,216.29,186.26,216.49,186.57z"/>
				<path d="M228.79,208.02c0.73-0.73,1.4-1.48,1.79-2.56c0.35-0.96,0.46-2.07,0.31-3.11c-0.07-0.5,0.55-0.72,0.62-0.21
					c0.17,1.2,0.07,2.42-0.32,3.55c-0.42,1.22-1.14,2.08-1.96,2.9C228.93,208.91,228.47,208.35,228.79,208.02z"/>
				<path d="M224.73,206.26h1.62c0.17,0,0.33,0.18,0.32,0.4s-0.14,0.4-0.32,0.4h-1.62c-0.17,0-0.33-0.18-0.32-0.4
					C224.41,206.44,224.55,206.26,224.73,206.26z"/>
				<g>
					<path class="st7" d="M217.09,212.96c-0.06-0.08-0.09-0.17-0.09-0.28c0-0.1,0.04-0.22,0.09-0.28c0.01-0.01,0.03-0.02,0.04-0.04
						c-0.11-0.33,0.15-0.78,0.43-0.52c1.01,0.95,2.04,2.43,3.39,1.48c0.95-0.67,1.88-1.29,3.01-1.07c0.49,0.09,0.93,0.33,1.32,0.7
						c0.48,0.46,0.84,1.17,1.46,1.33c0.58,0.15,1.19-0.03,1.78,0.12c0.45,0.12,1.03,0.31,1.23,0.88c0.09,0.24-0.02,0.47-0.17,0.56
						c0.05,0.17,0.04,0.37-0.12,0.49c-0.7,0.54-1.17,1.44-1.21,2.47c-0.03,0.8,0.03,1.5-0.51,2.06c-0.96,1-2.45,1.51-3.66,1.08
						c-1.39-0.5-2.25-2.13-3.01-3.55c-0.96-1.8-2-3.33-3.51-4.45c-0.12-0.09-0.16-0.23-0.15-0.37c-0.07-0.17-0.15-0.34-0.24-0.49
						C217.15,213.04,217.12,213,217.09,212.96z M220.92,216.69c0.85,1.45,1.55,3.41,2.9,4.26c0.67,0.42,1.43,0.41,2.14,0.15
						c0.36-0.13,0.7-0.33,1.02-0.57c0.44-0.33,0.61-0.65,0.63-1.3c0.04-1.51,0.46-2.78,1.53-3.6c0.01-0.01,0.02-0.01,0.03-0.01
						c-0.17-0.3-0.66-0.42-0.92-0.48c-0.35-0.08-0.69-0.04-1.05-0.03c-0.48,0.01-0.92-0.08-1.32-0.43c-0.41-0.35-0.7-0.86-1.11-1.21
						c-0.59-0.5-1.32-0.57-2.01-0.36c-0.98,0.3-1.74,1.41-2.79,1.34c-0.5-0.03-0.93-0.27-1.33-0.58
						C219.52,214.66,220.29,215.6,220.92,216.69z"/>
				</g>
				<path d="M222.79,216.62c1.35-0.17,2.76,0.31,3.84,1.32c0.14,0.13,0.21,0.35,0.12,0.55c-0.08,0.17-0.3,0.27-0.44,0.14
					c-1.01-0.94-2.26-1.38-3.52-1.22c-0.17,0.02-0.32-0.2-0.32-0.4C222.46,216.79,222.61,216.64,222.79,216.62z"/>
				<g>
					<path d="M238.95,187.6c0.05-0.04,0.11-0.08,0.16-0.12c0,0,0,0,0.01,0c-0.01,0.01-0.01,0.01-0.02,0.02
						c0.02-0.01,0.03-0.03,0.05-0.04l0.01-0.01l0.01-0.01c0.1-0.09,0.2-0.18,0.3-0.28c0.2-0.2,0.39-0.42,0.57-0.65
						c0.04-0.06,0.09-0.11,0.13-0.17c0.01-0.02,0.03-0.04,0.04-0.06c0.08-0.12,0.16-0.24,0.23-0.36c0.15-0.26,0.29-0.53,0.42-0.8
						c0.17-0.37,0.62-0.47,0.89-0.23c0.3,0.27,0.36,0.72,0.18,1.11c-0.57,1.25-1.41,2.29-2.39,3.04c-0.29,0.22-0.73,0.02-0.87-0.35
						C238.51,188.26,238.64,187.84,238.95,187.6z"/>
					<path d="M239.11,187.47c0.02-0.02,0.04-0.03,0.03-0.03c0,0-0.01,0-0.01,0.01C239.13,187.46,239.12,187.46,239.11,187.47z"/>
				</g>
				<path class="st5" d="M231.09,191.06c0.01-0.36,0.22-0.63,0.5-0.75c1.83-0.78,3.76-1.43,5.69-1.35c0.22-0.02,0.43-0.02,0.63,0.01
					c0.49-0.02,0.98,0.11,1.44,0.38c0.34-0.17,0.79-0.02,0.87,0.55c0.19,1.22,0.57,2.33,1.13,3.35c0.23,0.41-0.06,1.09-0.45,1.15
					c-3.34,0.48-7.19,0.74-9.69-2.61C231.05,191.56,231.03,191.29,231.09,191.06z M235.34,191.71c0.04-0.2,0.09-0.4,0.15-0.59
					c-0.49,0.2-0.98,0.42-1.48,0.58c-0.23,0.07-0.46,0.12-0.68,0.17c0.61,0.46,1.27,0.77,1.97,0.95
					C235.2,192.44,235.22,192.05,235.34,191.71z"/>
				<path d="M229.98,189.91c1.72-0.55,3.29-1.67,5.06-2.08c0.51-0.12,1.02-0.19,1.53-0.22l0,0c-0.1-0.38,0.01-0.78,0.3-0.98
					c0.09-0.06,0.17-0.13,0.26-0.19c0.13-0.11,0.25-0.23,0.37-0.36c0.07-0.08,0.14-0.16,0.2-0.24c0.03-0.04,0.06-0.07,0.08-0.11
					c0.01-0.01,0.01-0.02,0.02-0.03c0.12-0.17,0.22-0.36,0.32-0.55c0.05-0.09,0.09-0.19,0.13-0.29c0,0,0-0.01,0.01-0.02l0,0
					c0.02-0.06,0.04-0.11,0.06-0.17c0.07-0.19,0.16-0.36,0.32-0.46c0.14-0.09,0.35-0.12,0.5-0.04c0.31,0.15,0.54,0.6,0.4,1.02
					c-0.32,0.95-0.83,1.77-1.48,2.39c0.67,0.05,1.34,0.18,2,0.41c0.15,0.04,0.3,0.08,0.45,0.13c0.1,0.03,0.17,0.08,0.23,0.14
					c0.02-0.01,0.05-0.03,0.07-0.04c0.06-0.02,0.13-0.04,0.19-0.07c0.01-0.01,0.07-0.03,0.06-0.03c0,0,0,0,0.01,0
					c0.12-0.06,0.23-0.12,0.35-0.19c0.12-0.07,0.24-0.16,0.35-0.24c0.02-0.02,0.04-0.03,0.06-0.05c0,0,0,0,0.01-0.01
					c0.05-0.05,0.11-0.1,0.16-0.15c0.1-0.1,0.19-0.2,0.28-0.31c0.05-0.06,0.09-0.12,0.14-0.18c0.01-0.02,0.08-0.11,0.02-0.03
					c-0.06,0.1,0.02-0.03,0.03-0.05c0.17-0.26,0.31-0.54,0.44-0.83c0.16-0.37,0.63-0.46,0.89-0.23c0.31,0.28,0.35,0.71,0.18,1.11
					c-0.46,1.11-1.25,1.98-2.17,2.48c-0.08,0.1-0.18,0.18-0.32,0.21c-0.05,0.01-0.1,0.02-0.15,0.02c-0.01,0-0.02,0.01-0.03,0.01
					c0.25,1.45,0.58,2.86,1.02,4.23c0.14,0.44,0.01,1.09-0.45,1.15c-2.14,0.29-4.32,0.6-6.46,0.13c-1.92-0.42-3.72-1.41-5.24-2.93
					c-0.2-0.2-0.26-0.46-0.25-0.7c-0.07,0.02-0.15,0.05-0.22,0.07c-0.16,0.04-0.3,0.01-0.42-0.07c-0.01,0-0.02,0-0.04,0
					C229.45,191.04,229.71,190.47,229.98,189.91z M236.52,192.44c0.04,0.16,0.09,0.34,0.18,0.54c0.06,0.14,0.18,0.31,0.3,0.45
					c-0.06-0.06,0.12,0.11,0.14,0.12c0.02,0.02,0.22,0.15,0.15,0.11c0.08,0.05,0.17,0.08,0.26,0.11c0.08,0.02,0.09,0.03,0.03,0.02
					c0.04,0.01,0.09,0.02,0.13,0.02c0.04,0.01,0.08,0.02,0.11,0.03c1.01,0,2.03-0.1,3.03-0.23c-0.34-1.2-0.62-2.42-0.83-3.67
					c-0.02-0.1-0.02-0.19-0.01-0.27c-0.18-0.08-0.37-0.14-0.55-0.2c-0.94-0.24-1.89-0.32-2.84-0.25c-0.08,0.01-0.15,0.02-0.22,0.03
					c0.01,0.05,0.02,0.09,0.02,0.14C236.4,190.43,236.31,191.46,236.52,192.44z M235.51,193.61c-0.05-0.12-0.1-0.24-0.14-0.37
					c-0.35-1.19-0.28-2.47-0.25-3.71c-0.22,0.06-0.44,0.13-0.66,0.21c-1.1,0.39-2.17,1.08-3.27,1.5
					C232.48,192.42,233.94,193.26,235.51,193.61z"/>
				<path class="st6" d="M236.29,189.23c0.47-0.52,1.2-0.37,1.77-0.29c0.17,0.02,0.33,0.05,0.49,0.09c0.61-0.18,1.29,0.16,1.75,0.68
					c0.51,0.57,0.77,1.44,0.74,2.28c0,0.1-0.03,0.19-0.06,0.27c0.36,0.63,0.83,1.48,0.25,2.13c-0.23,0.26-0.56,0.36-0.85,0.48
					c-0.26,0.11-0.51,0.21-0.78,0.27c-0.58,0.13-1.19,0.11-1.73-0.2c-1.11-0.64-1.66-2.05-1.86-3.49
					C235.89,190.69,235.78,189.8,236.29,189.23z"/>
				<path d="M236.24,194.67c0.01-0.2,0.17-0.41,0.34-0.37c0.81,0.19,1.65,0.12,2.48,0.1c0.77-0.02,1.59,0.06,2.26-0.46
					c-0.06-0.22-0.11-0.45-0.17-0.67c-0.17,0.13-0.35,0.21-0.54,0.25c-0.88,0.29-1.85,0-2.51-0.82c-0.43-0.52-0.68-1.26-0.85-1.96
					c-0.11-0.45-0.14-0.96-0.03-1.41c-0.42,0-0.85,0.02-1.27,0.08c-0.41,0.06-0.54-0.73-0.13-0.78c1.64-0.23,3.3-0.07,4.89,0.49
					c0.2,0.07,0.25,0.3,0.19,0.5c0.39,1.58,0.79,3.15,1.19,4.73c0.05,0.21-0.09,0.43-0.25,0.47c-0.11,0.03-0.21-0.02-0.28-0.11
					c-0.28,0.2-0.59,0.35-0.92,0.42c-0.44,0.09-0.89,0.07-1.33,0.08c-0.92,0.02-1.87,0.12-2.77-0.09
					C236.37,195.06,236.23,194.91,236.24,194.67z M238.51,189.41c0.07,0.31,0.11,0.64,0.16,0.97c0.15,0.37,0.38,0.7,0.62,0.97
					c0.18,0.2,0.39,0.39,0.63,0.43c0.28,0.05,0.56-0.06,0.83-0.16c-0.15-0.61-0.31-1.22-0.46-1.83
					C239.7,189.61,239.11,189.49,238.51,189.41z"/>
				<path class="st5" d="M238.21,189.53c0.17-0.43,0.59-0.61,0.95-0.56c0.35,0.04,0.67,0.25,0.94,0.53c0.09,0.1,0.18,0.2,0.25,0.32
					c0.12,0.12,0.22,0.28,0.31,0.44c0.24,0.38,0.56,0.82,0.42,1.34c-0.13,0.46-0.55,0.68-0.91,0.61c-0.34-0.07-0.68-0.28-0.96-0.53
					c-0.28-0.23-0.53-0.52-0.74-0.85C238.23,190.46,238.03,189.99,238.21,189.53z"/>
				<path d="M237.17,188.66c0.05,0.03,0.26,0,0.31,0c0.16,0,0.32,0,0.48,0c0.04,0,0.09,0,0.13,0c0.42-0.16,0.85-0.1,1.26,0.06
					c0.27,0.02,0.53,0.04,0.8,0.07c0-0.03-0.01-0.06-0.01-0.09c-0.07-0.51,0.56-0.67,0.63-0.16c0.02,0.12,0.04,0.24,0.06,0.36
					c0.18,0.12,0.2,0.42,0.1,0.61c0.03,0.2,0.08,0.4,0.12,0.59c0.13,0.22,0.23,0.46,0.28,0.73c0.03,0.14,0,0.25-0.06,0.33
					c0.12,0.52,0.26,1.03,0.42,1.53c0.06,0.2,0.02,0.43-0.14,0.54c-0.14,0.09-0.37,0.03-0.43-0.18c-0.26-0.85-0.47-1.72-0.65-2.6
					c-0.21-0.3-0.52-0.52-0.79-0.7c-0.13-0.09-0.28-0.18-0.43-0.25c-0.22-0.02-0.45-0.03-0.68-0.04c-0.12,0-0.25,0-0.37-0.01
					c-0.01,0.01-0.03,0.01-0.04,0.02c-0.12,0.07-0.22,0.04-0.3-0.02c-0.1,0-0.21-0.01-0.31,0c-0.33,0-0.67,0.08-0.87-0.33
					C236.48,188.73,236.92,188.41,237.17,188.66z"/>
				<path class="st5" d="M213.3,187.28c1.66,0,1.66,3.2,0,3.2C211.64,190.49,211.64,187.28,213.3,187.28z"/>
				<path d="M209.49,188.52c0.12-0.46,0.43-0.62,0.79-0.56c0.43,0.08,0.73,0.48,1,0.86c0.12,0.16,0.25,0.31,0.38,0.45
					c0.01,0.01,0.04,0.04,0.06,0.06s0.05,0.05,0.06,0.05c0.08,0.07,0.15,0.13,0.23,0.19c0.29,0.23,0.6,0.43,0.91,0.61
					c0.18,0.11,0.35,0.21,0.53,0.31c0.1,0.06,0.2,0.11,0.29,0.17c0.01,0.01,0.01,0.01,0.01,0.01s0,0,0.01,0
					c0.03,0.01,0.15,0.04,0.03,0.03c0.06,0.01,0.12,0.03,0.18,0.05c-0.12-1.15-0.08-2.32,0.1-3.47c0.07-0.41,0.48-0.69,0.79-0.56
					c0.35,0.14,0.52,0.54,0.45,0.99c-0.03,0.17-0.05,0.34-0.07,0.52c0,0.03-0.01,0.11-0.01,0.13c-0.01,0.08-0.01,0.16-0.02,0.24
					c-0.02,0.34-0.03,0.68-0.03,1.03c0,0.16,0.01,0.32,0.02,0.47c0.01,0.09,0.01,0.18,0.02,0.28c0,0.02,0.01,0.14,0.02,0.17
					c0.04,0.33,0.09,0.65,0.15,0.97c0.08,0.41-0.1,0.89-0.45,0.99c-0.28,0.08-0.58-0.08-0.72-0.39c-0.11,0.14-0.26,0.22-0.42,0.2
					c-0.44-0.05-0.84-0.32-1.23-0.56h-0.01c-0.23,0-0.4-0.13-0.5-0.31c-0.02-0.01-0.04-0.03-0.06-0.04
					c-0.1-0.03-0.18-0.09-0.25-0.17c-0.07-0.05-0.15-0.1-0.22-0.15c-0.33-0.24-0.65-0.53-0.93-0.85c-0.14-0.16-0.26-0.34-0.39-0.52
					c-0.03-0.04-0.06-0.08-0.09-0.12c-0.01-0.01-0.02-0.02-0.02-0.03c-0.02-0.01-0.05-0.03-0.06-0.04
					c-0.03-0.01-0.08-0.02-0.08-0.02C209.61,189.45,209.39,188.9,209.49,188.52z"/>
				<path class="st5" d="M233.35,190.99c0.06-0.08,0.13-0.13,0.21-0.17c0.08-0.05,0.16-0.07,0.25-0.07
					c0.17,0.01,0.34,0.08,0.46,0.23c0.04,0.05,0.06,0.11,0.09,0.16c0.04-0.11,0.1-0.2,0.2-0.23c0.03-0.01,0.06-0.01,0.09,0
					c0.05-0.03,0.09-0.05,0.14-0.05c0.18,0.01,0.31,0.18,0.32,0.4c-0.01,0.08,0,0.17,0.01,0.25c0.02,0.15,0.04,0.29,0.05,0.44
					c0,0.06,0,0.13,0,0.19c0.03,0.16,0.05,0.31,0.06,0.47l0,0c0.01,0.04,0.02,0.08,0.03,0.12c0.03,0.17-0.02,0.37-0.15,0.45
					c-0.09,0.06-0.19,0.06-0.28,0.02c-0.05,0.04-0.09,0.08-0.15,0.1c-0.16,0.05-0.35,0.04-0.5-0.08c-0.08-0.06-0.14-0.14-0.19-0.23
					c-0.05-0.06-0.11-0.11-0.16-0.16c-0.03-0.03-0.07-0.06-0.1-0.1c-0.03-0.03-0.07-0.05-0.1-0.08c-0.03-0.01-0.05-0.02-0.08-0.04
					c-0.08-0.03-0.15-0.09-0.21-0.17c-0.12-0.16-0.19-0.35-0.19-0.57c0-0.11,0-0.23,0-0.34
					C233.16,191.35,233.23,191.13,233.35,190.99z"/>
				<path class="st5" d="M221.76,215.55c1.05,0.06,2.1,0.23,3.13,0.49c0.33,0.08,0.55,0.59,0.45,0.99
					c-0.11,0.43-0.44,0.65-0.79,0.56c-0.24-0.06-0.49-0.12-0.73-0.17c-0.11-0.02-0.23-0.05-0.34-0.07
					c-0.04-0.01-0.08-0.01-0.12-0.02c0.03,0-0.11-0.02-0.13-0.02c-0.31-0.05-0.61-0.08-0.92-0.11c-0.09,0.07-0.2,0.11-0.32,0.1
					c-0.31-0.05-0.62-0.16-0.78-0.54C220.99,216.25,221.25,215.52,221.76,215.55z"/>
				<path class="st8" d="M217.36,211.86c1.17,0.57,2.18,0.91,3.43,0.53c1.11-0.34,2.26-0.84,3.41-0.39
					c0.47,0.18,0.89,0.51,1.25,0.91c0.19,0.21,0.36,0.44,0.53,0.68c0.21,0.31,0.13,0.32,0.43,0.22c0.97-0.34,2.17,0.11,3.03,0.66
					c0.15,0.1,0.24,0.24,0.29,0.39c0.29,0.28,0.43,0.79,0.08,1.16c-1.3,1.34-0.43,3.72-1.56,5.18c-0.5,0.65-1.19,0.94-1.89,1.05
					c-0.79,0.12-1.74,0.2-2.5-0.13c-0.8-0.34-1.43-1.2-2.04-1.9c-0.66-0.77-1.3-1.56-1.92-2.37s-1.23-1.64-1.84-2.48
					c-0.5-0.69-1.39-1.54-1.51-2.5C216.5,212.31,216.85,211.61,217.36,211.86z"/>
				<path d="M229.89,187.07c1.79-1.9,4.08-2.97,6.45-2.95c0.83,0.01,0.83,1.61,0,1.6c-2.01-0.02-4,0.85-5.53,2.48
					c-0.26,0.28-0.65,0.32-0.91,0C229.66,187.92,229.62,187.36,229.89,187.07z"/>
				<path d="M209.07,183.25c2.23-0.83,4.53-1.49,6.87-1.39c0.83,0.04,0.83,1.64,0,1.6c-2.23-0.1-4.4,0.54-6.53,1.34
					C208.62,185.09,208.28,183.54,209.07,183.25z"/>
				<path class="st1" d="M278.7,176.58"/>
				<path class="st1" d="M258.52,227.58"/>
				<path d="M227.99,217.4c-0.38-0.07-0.64-0.34-0.94-0.62c-0.4-0.38-0.81-0.67-1.32-0.86c-0.49-0.18-1-0.24-1.5-0.37
					c-0.54-0.14-1.04-0.35-1.53-0.62c-0.3-0.17-0.58-0.06-0.76,0.15c-0.14-0.03-0.29-0.02-0.43,0.06c-0.28,0.16-0.41,0.57-0.22,0.86
					c0.78,1.15,1.6,2.34,2.81,3.08c1.16,0.72,2.64,0.93,3.89,0.29c0.3-0.15,0.39-0.58,0.22-0.86c0-0.01-0.01-0.01-0.02-0.02
					c0.11-0.08,0.2-0.18,0.24-0.33C228.51,217.87,228.33,217.46,227.99,217.4z"/>
				<path class="st5" d="M228.36,217.07c-1.78-0.79-3.58-1.55-5.4-2.25c-0.31-0.12-0.69,0.13-0.77,0.44
					c-0.1,0.35,0.12,0.65,0.44,0.77c1.51,0.59,3,1.21,4.48,1.86c0.08,0.2,0.26,0.36,0.55,0.36c0.13,0,0.26,0,0.39,0
					c0.27,0,0.53-0.19,0.6-0.46C228.72,217.53,228.61,217.18,228.36,217.07z"/>
				<path class="st9" d="M250.18,186.27c-0.11-5-1.89-10.34-6.95-12.27c-4.47-1.7-8.2,1.27-11.45,3.95
					c-0.8,0.66-1.62,1.31-2.55,1.79c-0.28,0.14-0.57,0.31-0.89,0.36c-0.01-0.04-0.02-0.07-0.03-0.12c-0.6-2.47-2.95-4.77-5-6.1
					c-3.1-2.02-6.82-2.37-10.2-1.36c-0.29,0.04-0.58,0.12-0.88,0.28c-0.02,0.01-0.05,0.03-0.07,0.04c-1.19,0.46-2.33,1.08-3.36,1.87
					c-1.24,0.72-2.47,1.46-3.68,2.23c-2.29,1.45-5.01,3.08-4.13,6.29c0.67,2.42,2.8,4.71,4.33,6.64c1.6,2.02,3.4,3.84,5.46,5.39
					c3.92,2.93,9.17,4.49,13.99,3.14c1.85-0.52,4.07-2.09,6.05-1.61c1.34,0.32,2.57,1.97,3.66,3.06c0.77,0.76,1.61,1.48,2.54,2.03
					c0.73,1,1.75,1.71,3.16,1.69c0.83-0.02,1.54-0.32,2.12-0.8c1.51-0.33,2.92-1.11,4.1-2.18
					C250.23,197.1,250.28,191.07,250.18,186.27z"/>
				<path class="st10" d="M488.52,275.79"/>
				<path d="M248.95,177.22c-2.68-3.66-6.8-5.3-11.26-4.32c-2.4,0.53-4.65,1.68-6.75,2.92c-0.56,0.33-1.22,0.72-1.81,1.17
					c-1.04-1.79-2.91-3.06-4.88-3.95c-3.19-1.43-6.79-3.04-10.37-2.67c-3.45,0.36-5.79,2.68-8.66,4.33c-2,1.15-4.32,1.73-5.97,3.28
					c-3.56-1.82-6.87-4.1-9.82-6.82c-1.18-1.09-2.96,0.68-1.77,1.77c3.12,2.87,6.62,5.32,10.4,7.24c0.13,0.49,0.57,0.88,1.07,0.95
					c0.09,0.63,0.46,1.19,0.78,1.74c0.6,1,1.21,2.01,1.83,3c2.29,3.64,4.86,7.2,8.24,9.9c3.13,2.5,6.87,4.3,10.92,4.5
					c2.21,0.11,4.04-0.58,6.06-1.37c1.7-0.67,3.23-0.85,4.88,0c2.72,1.39,4.72,3.9,7.55,5.11c3.38,1.45,6.95,0.22,9.19-2.59
					c2.65-3.32,3-7.99,3.2-12.08C251.99,185.15,251.49,180.69,248.95,177.22z M249.22,190.26c-0.23,3.28-0.49,7.21-2.76,9.81
					c-2.07,2.38-4.81,2.56-7.38,0.95c-2.16-1.36-3.92-3.31-6.24-4.41c-2.78-1.33-5.15-0.66-7.87,0.43
					c-3.38,1.34-6.98,0.64-10.13-1.02c-3.51-1.85-6.32-4.75-8.63-7.94c-1.2-1.66-2.29-3.39-3.36-5.14
					c-0.23-0.38-0.45-0.75-0.68-1.13c-0.4-0.67-0.63-0.65-0.06-1.16c0.82-0.72,1.87-1.29,2.78-1.9c0.47-0.32,0.62-0.86,0.54-1.34
					c0.24-0.11,0.48-0.22,0.7-0.34c2.29-1.24,4.23-3.28,6.79-3.98c2.88-0.8,5.91,0.4,8.55,1.48c2.31,0.95,5.66,2.22,5.98,5.08
					c0,0.29,0.05,0.59,0.16,0.91c0.37,1.01,1.67,1.24,2.28,0.3c0.79-1.23,1.82-2.16,3.09-2.88c0.35-0.2,0.54-0.49,0.59-0.79
					c0.16-0.08,0.29-0.14,0.38-0.19c1.72-0.9,3.59-1.69,5.54-1.88c3.44-0.33,6.31,1.52,8.01,4.43
					C249.37,182.78,249.48,186.64,249.22,190.26z"/>
				<polygon class="st11" points="203.49,148.19 200.78,145.29 196.86,145.88 198.78,142.41 197.01,138.86 200.9,139.61 
					203.73,136.83 204.22,140.77 207.74,142.6 204.15,144.28 				"/>
				<polygon class="st12" points="217.94,142.51 218.11,146.63 221.6,148.83 217.73,150.26 216.72,154.26 214.16,151.03 
					210.05,151.31 212.33,147.87 210.8,144.04 214.77,145.15 				"/>
				<polygon class="st12" points="251.82,154.26 248.39,154.7 246.8,157.78 245.32,154.65 241.9,154.09 244.42,151.71 243.9,148.29 
					246.94,149.96 250.03,148.4 249.39,151.8 				"/>
				<polygon class="st13" points="255.64,145.84 252.87,145.95 251.4,148.3 250.43,145.71 247.75,145.03 249.91,143.31 
					249.72,140.55 252.03,142.08 254.6,141.05 253.86,143.71 				"/>
				<path class="st14" d="M283.81,150.34c0.31,4.82,2.44,8.12,2.44,8.12c2.97,4.61,6.19,3.7,7.63,7.31
					c1.65,4.12-1.02,9.12,0.81,12.5c0.23,0.43,0.65,1.2,1.46,1.46c0.99,0.31,1.56-0.46,3.25-0.49c0.64-0.01,1.8-0.03,2.27,0.65
					c0.45,0.64-0.19,1.23,0.16,2.11c0.42,1.05,1.54,0.75,2.44,1.79c1.13,1.32,0.1,2.71,1.14,3.9c0.94,1.08,2.04,0.22,3.41,1.14
					c2.04,1.37,0.89,4.16,2.92,6.33c0.83,0.89,2.6,2.11,4.22,1.79c4.29-0.86,4.19-11.85,8.12-12.34c0.46-0.06,0.91,0.04,2.27,0.81
					c5.16,2.94,5.99,7.83,10.44,8.7c0.18,0.04,0.29,0.06,0.44,0.06c3.09,0.17,5.5-5.75,6.98-8.44c7.42-13.48,11.09-20.29,9.26-23.71
					c-1.89-3.53-5.58-2.29-9.74-7.31c-3.04-3.66-3.51-7.25-4.22-9.58c-3.23-10.54-19.81-22.54-34.91-19
					C292.63,128.95,283.21,141.13,283.81,150.34z"/>
				<path d="M299.09,150.52c-2.57-0.07-5.14,0.03-7.7,0.33c-0.84,0.1-1.71,0.13-2.46,0.58c-0.72,0.43-1.24,1.15-1.62,1.88
					c-0.7,1.33-1.07,2.75-1.11,4.25c-0.04,1.31,1.18,2.56,2.5,2.5c1.39-0.06,2.45-1.1,2.5-2.5c0-0.12,0.01-0.24,0.02-0.36
					c0.03-0.28,0.02-0.24-0.03,0.13c-0.04-0.17,0.1-0.53,0.15-0.7c0.04-0.16,0.1-0.57,0.22-0.68c-0.14,0.32-0.16,0.36-0.04,0.11
					c0.04-0.09,0.09-0.18,0.13-0.26c0.32-0.03,0.65-0.05,0.96-0.08c2.16-0.2,4.32-0.26,6.48-0.2c1.31,0.04,2.56-1.18,2.5-2.5
					C301.52,151.64,300.49,150.56,299.09,150.52z"/>
				<path d="M299.61,158.77c-0.31-0.27-0.67-0.41-1.05-0.47c0.01-0.43-0.43-0.88-0.92-0.59c-1.12,0.65-2.03,1.64-2.61,2.8
					c-0.02,0.04-0.04,0.07-0.06,0.11c-0.83,0.39-0.96,1.46-0.93,2.31c0.03,0.67,0.16,1.29,0.52,1.8c0.05,0.12,0.11,0.23,0.18,0.35
					c0.5,0.8,1.41,1.31,2.37,1.25c2.29-0.14,3.14-2.89,3.24-4.81C300.39,160.58,300.36,159.42,299.61,158.77z M296.96,160.15
					c0.46-0.42,1.55-1.07,1.97-0.24c0.18,0.36,0.18,0.81,0.18,1.21c0,0.5-0.05,1-0.16,1.49c-0.01,0.04-0.03,0.08-0.03,0.12
					c-0.23-0.39-0.5-0.75-0.81-1.06c-0.29-0.28-0.62-0.46-0.97-0.56c-0.21-0.17-0.44-0.32-0.69-0.44
					C296.62,160.47,296.81,160.28,296.96,160.15z"/>
				<path d="M301.31,176.34c-0.3-0.16-0.68-0.08-0.86,0.22c-0.31,0.53-0.62,1.05-0.93,1.58c-0.17,0.28-0.07,0.7,0.22,0.86
					c0.3,0.16,0.68,0.08,0.86-0.22c0.31-0.53,0.62-1.05,0.93-1.58C301.7,176.91,301.6,176.49,301.31,176.34z"/>
				<path d="M307.18,178.26c-0.32-0.53-1.15-0.31-1.16,0.32c-0.03,1.38-0.36,2.72-0.97,3.95c-0.25,0.05-0.46,0.24-0.45,0.58
					c0.04,0.71,0.13,1.42,0.28,2.12c0.13,0.6,0.29,1.23,0.76,1.66c0.49,0.45,1.2,0.54,1.77,0.18c0.5-0.31,0.83-0.91,1.06-1.44
					C309.54,183.12,308.51,180.44,307.18,178.26z M307.58,184.27c-0.06,0.32-0.62,2.22-1.15,1.64c-0.26-0.28-0.31-0.82-0.38-1.18
					c-0.08-0.39-0.12-0.79-0.16-1.18c0.04-0.04,0.09-0.08,0.12-0.14c0.47-0.89,0.79-1.83,1-2.81
					C307.53,181.77,307.83,183.01,307.58,184.27z"/>
				<path d="M289.79,148.33"/>
				<path d="M301.43,158.67"/>
				<path class="st15" d="M299.28,160.61c-0.07-0.22-0.14-0.45-0.27-0.64c-0.19-0.28-0.49-0.47-0.84-0.46
					c-0.3,0.01-0.57,0.17-0.83,0.3c-0.21,0.11-0.42,0.24-0.62,0.37c-0.18,0.12-0.29,0.32-0.3,0.53c-0.3,0.11-0.6,0.27-0.76,0.54
					c-0.26,0.45,0,1,0.5,1.12c0.17,0.04,0.36,0.04,0.53,0.06c0.07,0.01,0.14,0.01,0.2,0.02c0.02,0,0.08,0.01,0.12,0.01
					c0.14,0.02,0.27,0.05,0.4,0.09c0.01,0,0.02,0.01,0.03,0.01c0.05,0.01,0.11,0.05,0.15,0.08c0.02,0.01,0.05,0.03,0.07,0.04
					c0.02,0.02,0.08,0.07,0.08,0.08c0.01,0.01,0,0,0.01,0.01s0.02,0.03,0.03,0.04s0.02,0.03,0.02,0.04s0,0,0,0.01
					c0.07,0.3,0.18,0.58,0.38,0.81c0.28,0.32,0.77,0.18,0.98-0.13C299.78,162.67,299.59,161.56,299.28,160.61z"/>
				<path d="M300.53,160.85c-0.29-0.77-0.76-1.47-1.54-1.8c-0.5-0.21-1.03-0.25-1.55-0.19c-0.09-0.01-0.18-0.02-0.27,0
					c-0.57,0.1-1.09,0.36-1.53,0.73c-0.39,0.29-0.72,0.65-0.95,1.08c-0.07,0.13-0.08,0.26-0.06,0.38c-0.1,0.27-0.18,0.55-0.2,0.84
					c-0.08,0.84,0.16,1.76,0.51,2.53c0.34,0.74,0.97,1.3,1.8,1.41c0.79,0.1,1.6-0.21,2.25-0.65c0.64-0.43,1.24-0.99,1.56-1.71
					C300.91,162.62,300.85,161.68,300.53,160.85z M299.52,162.58c-0.1,0.54-0.47,0.95-0.88,1.3c-0.39,0.33-0.89,0.63-1.4,0.71
					c-0.48,0.07-0.85-0.13-1.09-0.54c-0.29-0.49-0.46-1.13-0.49-1.69c-0.04-0.82,0.36-1.56,1.02-1.97c0.42-0.24,0.92-0.35,1.41-0.29
					c0.5,0.07,0.87,0.37,1.12,0.84C299.46,161.41,299.62,162.03,299.52,162.58z"/>
				<path class="st15" d="M295.42,163.09c-0.8,0-0.81,1.25,0,1.25C296.22,164.34,296.22,163.09,295.42,163.09z"/>
				<path d="M296.98,163.13c-0.16-0.22-0.38-0.38-0.64-0.46c-0.27-0.08-0.56-0.06-0.84-0.05c-0.16,0.01-0.16,0.26,0,0.25
					c0.04,0,0.08,0,0.13,0c-0.03,0.06-0.02,0.13,0.04,0.16c0.02,0.01,0.03,0.04,0.05,0.06c0.04,0.13,0.12,0.24,0.28,0.24
					c0.04,0,0.05-0.02,0.08-0.04c0.11,0.1,0.22,0.19,0.33,0.29c0.02,0.01,0.04,0.02,0.06,0.02c0.08,0.06,0.16,0.13,0.24,0.19
					c0.01,0.01,0.02,0,0.03,0c0.01,0.01,0.01,0.02,0.01,0.04c-0.07,0.25-0.13,0.51-0.18,0.76c-0.02,0.12,0.12,0.22,0.21,0.12
					c0.02-0.02,0.02-0.04,0.04-0.06c0.03,0.06,0.08,0.12,0.17,0.12c0.04,0,0.09-0.03,0.11-0.06c0.13-0.26,0.26-0.53,0.23-0.82
					C297.29,163.62,297.15,163.35,296.98,163.13z"/>
				<path class="st15" d="M308.12,183.36c-0.09-0.99-0.38-1.95-0.64-2.91c-0.08-0.3-0.38-0.49-0.69-0.45
					c-0.32,0.05-0.52,0.3-0.54,0.61c-0.06,0.86-0.28,1.67-0.56,2.48c-0.16,0.46-0.21,0.91-0.14,1.39c0.03,0.21,0.08,0.41,0.14,0.61
					c0.03,0.09,0.05,0.17,0.08,0.26c0.02,0.06,0.04,0.12,0.05,0.17c0.01,0.08,0.02,0.1,0.03,0.07c-0.01,0.23,0.07,0.45,0.29,0.58
					c0.06,0.03,0.12,0.05,0.18,0.06c0.49,0.29,1.14-0.35,1.32-0.77v-0.01c0.12-0.19,0.2-0.41,0.28-0.65
					C308.08,184.33,308.16,183.85,308.12,183.36z"/>
				<path class="st16" d="M298.18,162.44c-0.86-0.7-1.93-0.96-3.02-0.8c-0.32,0.05-0.53,0.47-0.44,0.77
					c0.06,0.18,0.17,0.3,0.31,0.37c0.08,0.25,0.3,0.43,0.58,0.44c0.06,0,0.12,0.01,0.18,0.01c0.03,0,0.05,0.01,0.08,0.02
					c0.06,0.01,0.12,0.03,0.18,0.05c0.03,0.01,0.06,0.02,0.1,0.03c0.02,0.01,0.1,0.04,0.02,0.01c0.01,0.01,0.03,0.01,0.03,0.02
					c0.03,0.01,0.06,0.03,0.09,0.05c0.05,0.03,0.11,0.06,0.16,0.09c0.02,0.01,0.04,0.02,0.05,0.04c0.05,0.05,0.1,0.09,0.14,0.13
					c0.02,0.02,0.04,0.04,0.05,0.06c0.01,0.01,0,0,0,0.01c0.02,0.04,0.06,0.08,0.08,0.13c0.01,0.02,0.03,0.05,0.04,0.07
					c0.01,0.05,0.03,0.11,0.05,0.15c0,0.02,0,0.03,0,0.05c0,0.01,0,0.04,0,0.06c0,0.01-0.01,0.02-0.01,0.03l0,0
					c-0.23,0.19-0.35,0.53-0.17,0.81s0.56,0.41,0.86,0.22c0.25-0.16,0.49-0.34,0.72-0.53c0.24-0.2,0.44-0.44,0.54-0.74
					C298.98,163.4,298.63,162.8,298.18,162.44z"/>
				<path class="st17" d="M332.54,110.42c1.63,1.69,1.41,1.84,8.13,13.89c6.92,12.4,9.17,15.86,8.13,20.66
					c-0.79,3.64-3.11,6.45-3.39,6.77c-2.42,2.87-5.21,4.08-6.77,4.74c-2.27,0.96-6.5,2.74-10.84,1.35c-4.68-1.5-4.89-5.22-8.13-5.08
					c-2.73,0.12-3.36,2.79-8.47,4.06c-1.44,0.36-2.59,0.44-3.73,0c-1.53-0.6-1.95-1.76-3.05-3.05c-2.12-2.49-3.58-1.74-7.79-4.4
					c-4.3-2.72-4.15-4.37-6.1-4.4c-1.93-0.03-2.29,2.74-6.25,4.51c-0.56,0.25-0.95,0.43-1.54,0.57c-2.4,0.57-5.61-0.05-7.79-2.37
					c-2.31-2.45-2.6-5.99-1.69-8.47c0.84-2.3,2.4-2.87,4.74-5.08c2.3-2.16,3.79-4.94,6.77-10.5c4.68-8.72,3.81-9.58,6.44-13.21
					c1.86-2.57,5.07-5.97,10.84-8.81c2.65-0.71,7.28-1.59,12.87-0.68C324.82,102.54,330.82,108.62,332.54,110.42z"/>
				<path class="st18" d="M354.81,155.61c-10.39,2.86-14.01,20.98-16.24,32.15c-3.72,18.62,0.62,23.46-1.18,39.96
					c-2.46,22.56-13.3,39.19-20.52,50.29c-16.61,25.51-32.34,32.09-29.76,45.15c1.33,6.75,7.1,12.96,13.34,14.37
					c15.57,3.52,34.55-22.71,43.1-39c7.76-14.78,8.79-24.92,11.29-24.63c4.3,0.5,3.9,30.87,9.24,83.13
					c2.76,27.01,4.23,31.06,8.21,34.89c9.38,9.03,35.11,3.06,86.2-9.24c16.17-3.89,19.9-5.19,22.58-9.24
					c8.91-13.49-9.88-33.38-30.79-80.05c-17.94-40.04-10.7-48.35-28.73-76.97c-10.05-15.95-18.96-24.59-35.92-41.05
					C364.87,155.25,358.7,154.54,354.81,155.61z"/>
				<path class="st19" d="M356.57,412.71"/>
				<path class="st20" d="M441.73,617.02c10.1,1.13,24.93,1.59,34.5-4.8c0,0,3.19-2.54,5.6-6.06c12.51-18.26-4.16-57.1-8.03-101.52
					c-2.94-33.77,1.89-66.4,2.27-68.88c1.61-10.5,4.53-24.35,5.4-45.07c0.56-13.21,0.31-24.12,0-31.4
					c-39.02,4.83-78.03,9.66-117.05,14.49c2.89,6.5,6.13,14.23,9.44,23.03c0,0,5.78,15.36,9.85,29.49
					c8.09,28.06,0.24,67.57-2.24,80.94c-4.37,23.51-9.19,57.61-10.16,101.69c6.41,3.56,15.42,7.12,23.68,4.11
					c12.55-4.57,19.39-22.84,24.84-90.41c1.93-23.93,3.9-56.58,4.18-95.76"/>
				<path d="M407.29,625.84c0-1.69,0-3.37,0-5.06c0-3.31,0-6.62-0.01-9.93c0-1.21-1.14-1.83-2.34-1.88c-1.26-0.97-3.17-1-4.9-0.97
					c-2.1,0.04-4.18,0.31-6.25,0.57c-4.02,0.52-8.01,0.82-12.08,0.73c-3.83-0.09-7.7-0.4-11.01,1.42c-2.52,1.39-4.17,3.39-6.3,5.08
					c-0.99,0.79-2.07,1.44-3.44,1.77c-1.75,0.42-3.55,0.49-5.36,0.63c-3.96,0.31-7.94,1.06-10.29,3.79
					c-2.18,2.53-1.38,5.79,1.59,7.69c3.14,2.01,7.4,2.13,11.27,2.42c7.38,0.57,15.23,0.67,22.22-1.56c0.25-0.08,0.5-0.16,0.74-0.25
					c0.16-0.02,0.32-0.04,0.48-0.07c1.29-0.27,2.49-0.86,3.61-1.42c0.27-0.02,0.4,0.05,0.76,0.27c0.27,0.16,0.88,0.71,1.21,1.04
					c0.96,0.91,1.85,1.83,3.07,2.54c1.54,0.89,3.39,1.32,5.29,1.41c1.93,0.1,3.92-0.24,5.7-0.78c1.73-0.52,4.19-1.15,5.27-2.4
					C407.75,629.49,407.3,627.41,407.29,625.84z"/>
				<path d="M480.43,611.58c0.16-1.6-2.96-2.72-4.29-1.39c-3.44,3.47-6.12,7.3-7.86,11.49c-0.41,1-0.76,2.01-1.06,3.04
					c-0.24,0.83-0.33,1.74-0.61,2.58c-1.08-0.66-2.36-1.08-3.71-1.26c-2.88-0.37-5.89-0.14-8.81-0.09c-3.17,0.05-6.36,0.1-9.53,0.15
					c-5.7,0.09-11.42,0.18-17.12,0.27c0.11-0.02,0.23-0.05,0.34-0.08c2.92-0.58,6.03-0.71,9.02-0.32c1.34,0.17,2.7-0.27,3.09-1.37
					c0.33-0.93-0.41-2.24-1.76-2.42c-4.88-0.63-9.92-0.36-14.56,1.04c1.6-0.58,3.19-1.17,4.79-1.75c2.38-0.87,4.76-1.74,7.14-2.61
					c2.08-0.76,4.2-1.5,6.05-2.57c3.7-2.14,6.6-5.81,4.84-9.5c-0.47-0.99-1.7-1.67-3.09-1.37c-1.21,0.26-2.23,1.41-1.76,2.42
					c1.48,3.1-2.57,5.3-5.61,6.52c-4.34,1.73-8.83,3.25-13.24,4.87c-0.1,0.04-0.2,0.07-0.3,0.11c-1.95-0.02-3.6,0.72-4.9,1.78
					c-0.52,0.2-1.05,0.38-1.58,0.59c-1.94,0.75-3.42,2.09-3.22,3.87c0.11,0.98,0.68,1.8,1.47,2.5c0.17,0.44,0.47,0.85,0.93,1.22
					c0.73,0.58,1.68,0.87,2.67,1.01c1.5,0.7,3.11,1.26,4.77,1.67c8.99,2.28,18.38,0.43,27.34-0.93c2.11-0.32,4.25-0.69,6.41-0.74
					c2.07-0.05,3.45,0.35,4.99,1.42c1.65,1.15,3.35,1.95,5.57,2.17c2.06,0.2,4.09-0.14,5.95-0.82c4.31-1.55,6.7-5.07,7.42-8.59
					C481.13,620.19,479.99,615.89,480.43,611.58z M475.56,622.22c-0.21,2.5-1.15,5.52-4.04,6.96c-0.2,0.1-0.41,0.19-0.62,0.28
					c0.32-0.56,0.54-1.16,0.67-1.74c0.72-3.33,2.04-6.57,3.97-9.57C475.63,619.49,475.68,620.86,475.56,622.22z"/>
				<path class="st21" d="M467.91,630.31h-4.52c-5.1,0-9.27-3.26-9.27-7.24l0,0c0-3.99,4.17-7.24,9.27-7.24h4.52
					c5.1,0,9.27,3.26,9.27,7.24l0,0C477.18,627.05,473.01,630.31,467.91,630.31z"/>
				<path class="st21" d="M461.11,628.25h-31.3c-1.83,0-3.31-1.17-3.31-2.59l0,0c0-1.43,1.5-2.59,3.31-2.59h31.3
					c1.83,0,3.31,1.17,3.31,2.59l0,0C464.43,627.09,462.94,628.25,461.11,628.25z"/>
				<path class="st21" d="M430.93,631.88H445c5.68,0,10.34-3.63,10.34-8.08l0,0c0-4.44-4.65-8.08-10.34-8.08h-14.07
					c-5.68,0-10.34,3.63-10.34,8.08l0,0C420.59,628.24,425.24,631.88,430.93,631.88z"/>
				<path d="M233.69,88.5"/>
				<path d="M330.64,107.82c-0.83,3.47-1.31,7.01-1.48,10.57c-0.48,0.01-0.95,0.28-1.12,0.88c-3.78,13.59-12.44,25-20.87,36.04
					c-1.7,0.21-3.4-0.47-5.04-0.8c-1.78-0.36-3.6-0.36-5.35,0.15c-3.3,0.97-5.82,3.5-6.95,6.72c-0.54,1.52,1.88,2.17,2.41,0.66
					c0.97-2.76,3.42-4.78,6.31-5.22c2.73-0.42,5.3,0.91,7.99,0.99c-0.25,1.11-0.85,2.18-1.39,3.13c-0.76,1.32-1.66,2.54-2.72,3.64
					c-2.08,2.15-4.65,3.71-7.57,4.38c-1.57,0.36-0.9,2.77,0.66,2.41c3.4-0.78,6.47-2.67,8.85-5.2c1.18-1.26,2.22-2.67,3.06-4.18
					c0.87-1.56,1.77-3.37,1.73-5.2c0.04-0.04,0.07-0.07,0.11-0.11c8.46-11.07,17.05-22.52,20.99-36.08c0.65,0.03,1.33-0.37,1.35-1.2
					c0.11-3.68,0.59-7.33,1.45-10.91C333.42,106.92,331.01,106.25,330.64,107.82z"/>
				<path class="st22" d="M307.27,157.98c0-0.61-0.58-1.33-1.25-1.25c-0.54,0.07-1.01-0.29-1.5-0.49c-0.67-0.27-1.36-0.4-2.08-0.45
					c-1.38-0.09-2.77,0.21-4.1,0.51c-0.48,0.11-0.75,0.4-0.85,0.74c-0.76,0.11-1.51,0.3-2.19,0.69c-0.89,0.51-1.57,1.3-2.48,1.78
					c-0.43,0.23-0.62,0.67-0.61,1.1c-0.89-0.1-1.81,0.91-1.25,1.86c0.45,0.78,1.19,1.35,2.07,1.56c0.21,0.14,0.39,0.31,0.56,0.49
					c0.37,1.41,0.59,2.84,0.64,4.3c0.03,0.93,1.04,1.57,1.88,1.08c0.77-0.45,1.52-0.93,2.27-1.43c0.04,0.05,0.08,0.1,0.13,0.15
					c0.62,0.69,1.88,0.34,2.09-0.55c0.03-0.14,0.05-0.28,0.06-0.41c0.06-0.2,0.08-0.42,0.02-0.67c-0.01-0.04-0.03-0.08-0.04-0.11
					c0.33-0.24,0.65-0.49,0.97-0.74c0.02,0,0.04,0,0.06,0c1.23-0.12,1.94-0.95,2.24-1.98c0.45-0.46,0.86-0.96,1.21-1.53
					c0.68-1.11,1.18-2.35,1.73-3.52c0.05-0.11,0.08-0.24,0.11-0.36C307.15,158.55,307.27,158.3,307.27,157.98z"/>
				<path d="M308.44,156.01c-1.79,0.18-3.61-0.34-5.39-0.45c-1.83-0.11-3.68-0.05-5.5,0.2c-3.33,0.45-5.79,2.34-7.52,5.17
					c-0.35,0.57-0.18,1.12,0.2,1.47c0.04,0.33,0.2,0.66,0.56,0.9c0.99,0.66,1.68,1.66,2.12,2.75c0.39,0.95,0.83,2.31,0.83,3.41
					c-0.19,0.32-0.26,0.69-0.09,1.09c0.22,0.52,0.89,0.95,1.47,0.72c0.73-0.28,1.45-0.6,2.16-0.95c0.23,0.2,0.52,0.34,0.83,0.33
					c0.11-0.01,0.22-0.03,0.33-0.04c0.21-0.06,0.4-0.17,0.55-0.32c0.67-0.55,1.3-1.15,1.87-1.8c0.12-0.14,0.21-0.3,0.28-0.47
					c3.56-2.52,6.56-5.88,8.28-9.82c0.04-0.1,0.06-0.21,0.09-0.31c0.11-0.18,0.19-0.37,0.19-0.61
					C309.69,156.64,309.11,155.94,308.44,156.01z M296.01,168.17c-0.14-0.85-0.31-1.69-0.6-2.51c-0.57-1.62-1.5-3.02-2.82-4.08
					c0.61-0.88,1.33-1.69,2.22-2.28c1.21-0.8,2.58-1.05,4.01-1.17c1.57-0.14,3.15-0.15,4.72-0.03c0.98,0.07,1.96,0.27,2.95,0.37
					C304.17,162.67,300.32,166.1,296.01,168.17z"/>
			</g>
		</g>
		<path class="st2" d="M196.04,263.94c3.89-2.58,9.55,5.23,23.14,5.22c12.62-0.01,16.83-6.75,20.96-4.48
			c9.27,5.11-12.72,38.74-7.16,80.84c3.32,25.16,13.05,27.33,14.15,56.06c0.42,11.02,1.13,37.49-14.74,48.02
			c-4.36,2.89-9.05,3.91-11.41,4.42c-11.08,2.41-26.86,1.33-34.23-6.33c-6.8-7.07-2.29-26.62,7-65.43
			c11.95-49.89,12.82-53.29,12.36-61.67C204.47,290.37,189.56,268.23,196.04,263.94z"/>
		<path class="st1" d="M151.08,316.47"/>
		<path class="st2" d="M197.36,554.82c-0.49,0.06-0.38,1.21-1.71,4.36c-1.31,3.1-2.06,3.53-2.67,5.09
			c-1.01,2.6-0.07,4.33,1.91,11.45c1.36,4.9,2.04,7.36,2.29,9.45c0.33,2.86,0.33,6.99-1.33,12.18c2.29,0.84,3.7,0.6,4.57,0.18
			c1.26-0.6,1.27-1.47,3.05-2.91c1.12-0.9,2.63-2.12,4-1.82c1.45,0.32,1.83,2.17,2.86,4.18c1.67,3.25,4.11,5.12,6.29,6.78
			c5.27,4.03,13.48,5.71,17.42,2.94c0.45-0.32,1.6-1.13,1.85-2.43c0.26-1.38-0.66-2.34-2-4.84c-1.05-1.98-0.71-1.82-1.86-4.13
			c-2.08-4.22-4.44-7.2-4.75-7.04c-0.25,0.13,1.2,2.04,0.38,3.82c-0.5,1.08-1.55,1.56-1.71,1.64c-1.67,0.74-3.72-0.04-5.72-1.17
			c-6.83-3.86-10.09-9.01-10.09-9.01C201.59,570.03,199.16,554.58,197.36,554.82z"/>
		<path class="st2" d="M396.88,605.55c-4.55,0.56-9.1,1.12-13.66,1.67"/>
		<path class="st20" d="M405.78,612.56c0,1.8-1.47,3.27-3.27,3.27h-24.91c-1.8,0-3.27-1.47-3.27-3.27v-0.35
			c0-1.8,1.47-3.27,3.27-3.27h24.91"/>
		<path class="st20" d="M451.32,621.04h1.43c4.32,0,7.85-3.53,7.85-7.85v-11.29c0-4.32-3.53-7.85-7.85-7.85h-1.43
			c-4.32,0-7.85,3.53-7.85,7.85v11.29C443.47,617.5,447,621.04,451.32,621.04z"/>
		<path class="st20" d="M472.18,621.04h-0.2c-0.6,0-1.08-0.49-1.08-1.08v-19.18c0-0.6,0.49-1.08,1.08-1.08h0.2
			c0.6,0,1.08,0.49,1.08,1.08v19.18C473.27,620.55,472.78,621.04,472.18,621.04z"/>
		<path class="st20" d="M392.72,612.85h-5.08c-3.56,0-6.47-2.91-6.47-6.47l0,0c0-3.56,2.91-6.47,6.47-6.47h5.08
			c3.56,0,6.47,2.91,6.47,6.47l0,0C399.19,609.94,396.28,612.85,392.72,612.85z"/>
		<g>
			<g>
				<path class="st23" d="M107.41,608.09c2.73,4.58-2.35,8.51-0.01,19.26c1.19,5.5,3.04,6.88,2.02,10.13
					c-1.25,3.98-6.12,8.57-11.55,9.32c-2.27,0.31-5,0-5.88,1.59c-0.56,1-0.07,2.22,0,2.38c1.34,3.23,6.9,1.82,9.92,4.57
					c3.37,3.07,2.96,10.7-0.41,15.09c-6.2,8.07-22.85,5.74-27.35-1.21c-0.4-0.61-0.74-4.19-1.41-11.32
					c-0.74-7.79-1.08-11.74,0.21-14.49c1.38-2.95,2.79-3.15,3.65-6.15c1.07-3.77-0.19-6.86-0.81-9.13
					c-1.83-6.71-0.77-16.28,3.66-21.04C86.27,599.75,103.38,601.33,107.41,608.09z"/>
				<path class="st24" d="M89.59,589.81c-2.56,0.36-10.1,1.51-16.01,7.34c-3.33,3.29-4.09,6.04-7.5,15.48
					c-8.02,22.17-8.95,21.05-10.14,28.18c-0.53,3.18,0.12,0.62-0.82,21.04c-0.52,11.31-0.85,14.86,1.41,16.28
					c3.26,2.05,10.45-1.28,14.79-6.15c6.95-7.79,3.23-15.73,5.63-36.51c1.51-13.1,3.44-28.3,12.44-31.77
					c3.31-1.28,7.08-0.78,9.72,0.6c6.05,3.16,6.9,11.33,7.83,20.26c0.86,8.28,1.41,13.55-1.97,17.46
					c-4.36,5.04-10.38,2.24-12.97,6.35c-3.81,6.06,3.66,21.09,15.38,24.43c2.6,0.74,6.3,1.79,9.52,0
					c6.51-3.62,3.35-14.63,0.43-51.81c-1.24-15.83-1.32-22.14-6.87-26.8C103.01,587.94,91.58,589.54,89.59,589.81z"/>
				<path class="st25" d="M58.24,688.34c2.4,1.94,2.84,4.93,3.14,14.39c0.26,8.38,0.39,12.56-0.01,13.88
					c-2.65,8.7-12.54,12.83-15.74,14.38C13.59,746.5-15.46,857.41-3.2,824.52c-5.49,10.48-17.89,36.05-9.27,43.96
					c2.29,2.1,5.2,2.15,9.79,2.27c16.78,0.44,33.52,1.96,50.31,2.24c15.42,0.26,13.23,1.73,32.24,2.72
					c38.32,2,57.48,2.99,68.18-8.32c10.11-10.68,8.09-27.43,6.14-43.55c-2.28-18.88-7.93-18.04-19.99-55.74
					c0,0-4.39-13.73-11.32-24.15c-3.83-5.77-9.4-11.69-10.81-13.06c-0.97-0.94-1.97-1.84-1.97-1.84c0,0-1.41-1.28-2.89-2.51
					c-5.2-4.32-11.9-7.04-13.66-11.14c-3.69-8.6,13.56-24.99,13.59-25.03c0,0,3.59-6.25,6.79-6.26c2.88,0,6,5.06,6.38,9.78
					c0.53,6.54-4.22,11.66-5.8,13.2c-7.89,7.71-18.9,6.43-19.38,10.6c-0.24,2.09,2.36,3.92,2.7,4.15
					c7.21,4.93,21.92-4.87,26.03-7.61c9.56-6.37,17.19-11.45,17.22-18.63c0.04-9.57-13.44-16.93-24.18-22.78
					c-6.63-3.61-12.58-5.8-16.84-7.12c-0.12,0.64-1.56,7.97-7.66,10.25c-5.36,2.01-10.71-1.23-12.26-2.17
					c-5.22-3.16-4.98-6.69-10.67-10.16c-0.33-0.2-3.97-2.38-8.01-2.95c-12.06-1.7-22.9,11.62-28.49,18.49
					c-6.57,8.08-10.68,13.13-9.52,19.1c0.79,4.07,3.17,4.11,16.62,16.55c7.61,7.04,10.1,10.03,13.81,9.51
					c3.51-0.5,7.46-4.05,7.49-7.69c0.09-9.48-26.35-13.96-25.5-21.64c0.37-3.33,5.73-5.91,7.64-6.84c1.56-0.75,4.7-2.22,8.82-1.79
					C53.85,686.51,56.29,686.76,58.24,688.34z"/>
			</g>
			<path class="st26" d="M105.88,611.77c-1.74-0.58-3.53,0.37-4.97,1.25c-1.54,0.94-2.94,2.09-4.15,3.41
				c-0.42,0.45,0.26,1.12,0.68,0.67c1.09-1.19,2.33-2.24,3.7-3.11c1.27-0.8,2.92-1.84,4.48-1.31
				C106.21,612.88,106.46,611.97,105.88,611.77z"/>
			<path class="st26" d="M109.91,614.21c-5.04-0.73-10.02,1.86-12.1,6.45c-0.06,0.14-0.06,0.27-0.01,0.38
				c-0.16,0.2-0.19,0.53,0.08,0.73c1.39,1.04,3.03,1.87,4.73,2.26c0.68,0.47,1.52,0.68,2.37,0.5c0.29-0.06,0.57-0.18,0.81-0.33
				c0.86-0.12,1.71-0.39,2.53-0.84c0.54-0.3,0.06-1.11-0.49-0.82c-0.33,0.18-0.67,0.33-1.02,0.44c0.11-0.26,0.18-0.54,0.2-0.83
				c0.04-0.61-0.93-0.61-0.96,0c-0.03,0.47-0.29,0.87-0.65,1.14c-0.79,0.08-1.58,0.03-2.36-0.13c-0.3-0.24-0.55-0.55-0.75-0.89
				c-0.9-1.53-0.84-3.49,0.1-4.98c0.12-0.2,0.08-0.39-0.04-0.52c2.09-1.39,4.67-2.04,7.3-1.66
				C110.26,615.21,110.52,614.3,109.91,614.21z M98.63,621.14c0-0.01,0.01-0.01,0.01-0.01c0.59-1.3,1.43-2.44,2.45-3.37
				c-0.62,1.59-0.53,3.43,0.32,4.92C100.43,622.29,99.49,621.75,98.63,621.14z"/>
			<path class="st27" d="M106.89,620.16c-0.02-0.66-0.12-1.31-0.23-1.95c-0.11-0.57-0.24-1.19-0.58-1.67
				c-0.11-0.15-0.24-0.26-0.39-0.34c0.17-0.27,0.05-0.73-0.38-0.76c-1.36-0.09-2.73,0.67-3.31,1.89c-0.31,0.65-0.39,1.34-0.36,2.03
				c-0.04,0.06-0.06,0.13-0.07,0.22c0,0.15,0.01,0.31,0.01,0.46c0,0.05,0,0.09,0.01,0.14c0.05,0.98,0.23,1.99,0.98,2.7
				c0.75,0.71,2.3,1.07,3.24,0.52C106.85,622.82,106.93,621.2,106.89,620.16z"/>
			<path class="st5" d="M101.58,622.07c-0.61-1.06-0.71-2.32-0.3-3.46c0.02-0.07,0.03-0.13,0.02-0.2c0.03-0.05,0.07-0.1,0.1-0.14
				c0.34-0.51-0.49-0.98-0.83-0.48c-0.34,0.51-0.68,1.02-1.05,1.51c-0.35,0.46-0.76,0.88-0.95,1.43c-0.05,0.15,0.01,0.35,0.12,0.46
				c0.66,0.62,1.41,1.14,2.24,1.53C101.34,622.91,101.84,622.51,101.58,622.07z"/>
			<path class="st5" d="M106.15,617.6c-0.06-0.19-0.16-0.34-0.33-0.45c-0.12-0.08-0.29-0.12-0.44-0.11c-0.07,0-0.13,0.02-0.2,0.04
				c-0.04,0.01-0.08,0.01-0.12,0.01c-0.15,0.03-0.32,0.11-0.42,0.23c-0.05,0.06-0.08,0.11-0.11,0.17c-0.01,0.01-0.02,0.02-0.02,0.03
				c-0.05,0.1-0.07,0.17-0.08,0.28c-0.01,0.06-0.02,0.11-0.01,0.17c0,0.08,0.02,0.16,0.03,0.24c0.02,0.11,0.04,0.21,0.1,0.31
				c0.13,0.2,0.36,0.3,0.6,0.28c0.08-0.01,0.16-0.02,0.24-0.04c0.08-0.02,0.16-0.05,0.23-0.09c0.04-0.02,0.07-0.04,0.11-0.06
				c0.04-0.03,0.08-0.06,0.12-0.09c0.01-0.01,0.02,0,0.03-0.01c0.16-0.09,0.28-0.25,0.32-0.43
				C106.21,617.92,106.2,617.76,106.15,617.6z"/>
			<g>
				<path class="st26" d="M105.48,618.38C105.48,618.38,105.48,618.38,105.48,618.38c0.01,0,0.01,0,0.01-0.01c0,0,0,0,0,0
					C105.49,618.37,105.48,618.38,105.48,618.38z"/>
				<path class="st26" d="M106.93,617.86c-0.13-0.35-0.38-0.68-0.65-0.93c-0.33-0.31-0.79-0.5-1.25-0.38
					c-0.02,0.01-0.04,0.02-0.06,0.03c-0.36,0.01-0.69,0.15-0.92,0.44c-0.28,0.34-0.37,0.77-0.39,1.2c-0.02,0.38,0.05,0.78,0.28,1.09
					c0.23,0.3,0.55,0.53,0.93,0.62c0.74,0.18,1.51-0.19,1.89-0.82C106.98,618.73,107.08,618.27,106.93,617.86z"/>
			</g>
			<path class="st26" d="M108.43,621.93c-0.09-0.82-0.24-1.64-0.46-2.44c-0.35-1.31-0.88-2.58-1.55-3.77
				c0.3,0.07,0.6,0.18,0.89,0.29c0.24,0.09,0.53-0.1,0.59-0.33c0.07-0.27-0.09-0.49-0.34-0.58c-0.51-0.19-1.03-0.37-1.58-0.39
				c-0.11-0.01-0.22,0-0.33,0.01c-0.09-0.02-0.17-0.01-0.25,0.02c-0.4,0.04-0.79,0.14-1.17,0.25c-0.98,0.28-1.96,0.69-2.54,1.55
				c-0.02,0-0.04-0.01-0.06-0.01c-0.58-0.01-1.04,0.4-1.43,0.77c-0.37,0.35-0.7,0.74-0.99,1.16c-0.59,0.82-1.02,1.74-1.37,2.68
				c-0.09,0.24,0.1,0.52,0.34,0.58c0.27,0.07,0.5-0.09,0.59-0.33c0.3-0.8,0.68-1.57,1.16-2.28c0.23-0.34,0.48-0.65,0.76-0.94
				c0.15-0.16,0.31-0.31,0.48-0.45c-0.22,0.87-0.28,1.79-0.26,2.69c0.01,0.54,0.01,1.11,0.18,1.63c0.18,0.53,0.49,0.99,0.8,1.44
				c0.35,0.5,1.18,0.03,0.83-0.48c-0.27-0.38-0.55-0.77-0.7-1.21c-0.16-0.48-0.15-0.99-0.15-1.49c-0.01-1.02,0.06-2.02,0.43-2.98
				c0.01-0.02,0-0.03,0.01-0.04c0.06-0.04,0.11-0.09,0.15-0.16c0.45-0.74,1.35-1.02,2.15-1.25c0.24-0.07,0.48-0.12,0.72-0.16
				c0.71,1.18,1.28,2.43,1.66,3.75c0.2,0.68,0.35,1.38,0.45,2.08c0.05,0.36,0.09,0.72,0.11,1.09c0.02,0.34,0.11,0.76-0.1,1.05
				c-0.35,0.5,0.48,0.98,0.83,0.48C108.69,623.53,108.5,622.62,108.43,621.93z"/>
			<path class="st5" d="M105.55,617.2c-0.62,0-0.62,0.94,0,0.94C106.18,618.14,106.18,617.2,105.55,617.2z"/>
			<path class="st26" d="M89.59,616.68c-2.28-2.33-5.02-4.21-8.04-5.5c-0.56-0.24-1.05,0.57-0.49,0.82
				c2.95,1.27,5.61,3.08,7.84,5.36C89.34,617.79,90.02,617.12,89.59,616.68z"/>
			<path class="st26" d="M88.62,620.5c0.03-0.1,0.02-0.22-0.07-0.34c-1-1.46-2.03-3.04-3.4-4.19c-0.68-0.58-1.45-1.08-2.21-1.55
				c-0.74-0.46-1.55-0.82-2.44-0.78c-0.62,0.03-0.62,0.97,0,0.94c0.79-0.04,1.48,0.35,2.12,0.76c0.16,0.1,0.31,0.21,0.47,0.31
				c-0.53,0.22-0.74,0.87-0.87,1.41c-0.18,0.77-0.24,1.57-0.15,2.36c0.11,0.93,0.39,1.98,1.03,2.71c-1.73,0.31-3.5,0.36-5.25,0.11
				c-0.61-0.09-0.87,0.82-0.26,0.91c2.2,0.31,4.42,0.21,6.56-0.29c0,0,0,0,0,0c0.19,0.07,0.34,0.01,0.45-0.1
				c1.36-0.35,2.67-0.86,3.92-1.53C88.85,621.05,88.81,620.7,88.62,620.5z M86.67,619.13c-0.06,0.02-0.13,0.04-0.17,0.09
				c-0.02,0.02-0.04,0.04-0.06,0.06c-0.01,0-0.01,0.01-0.03,0.02c-0.05,0.03-0.06,0.03-0.02,0.01c-0.03,0.01-0.06,0.02-0.1,0.02
				c0.07-0.01-0.1,0-0.12-0.01c0.07,0.01-0.11-0.03-0.14-0.04c-0.22-0.08-0.45-0.27-0.63-0.44c-0.19-0.18-0.2-0.36-0.2-0.6
				c0-0.16,0-0.24,0.05-0.37c0,0,0.02-0.02,0.03-0.03c0,0.01,0.04-0.01,0.01-0.01c0,0,0,0,0,0c0.12,0,0.21-0.04,0.28-0.1
				C85.96,618.18,86.32,618.65,86.67,619.13z M84.26,621.87c-0.8-0.41-1.09-1.57-1.21-2.35c-0.08-0.56-0.08-1.14,0-1.7
				c0.03-0.2,0.21-1.29,0.38-1.3c0.24-0.01,0.38-0.15,0.44-0.33c0.28,0.2,0.55,0.4,0.8,0.63c0.01,0.01,0.02,0.02,0.03,0.03
				c-0.01,0.01-0.02,0.01-0.04,0.02c-0.04,0.03-0.07,0.06-0.1,0.1c-0.21,0.01-0.37,0.15-0.45,0.34c-0.1,0.23-0.16,0.48-0.2,0.72
				c-0.15,0.49-0.18,1.03-0.06,1.5c0.09,0.37,0.28,0.66,0.53,0.9c0.12,0.15,0.26,0.29,0.44,0.38c0.3,0.16,0.65,0.24,0.99,0.29
				c0.19,0.03,0.37,0.05,0.56,0.06C85.69,621.44,84.98,621.69,84.26,621.87z"/>
			<path class="st27" d="M86.07,620.75c-0.72-0.19-1.4-0.42-1.68-1.16c-0.13-0.35-0.16-0.72-0.13-1.09
				c0.01-0.21,0.05-0.41,0.09-0.61c0.02-0.1,0.04-0.19,0.07-0.29c0.01-0.05,0.02-0.09,0.03-0.14c0.36-0.11,0.46-0.66,0.08-0.86
				c-0.06-0.43-0.5-0.74-0.96-0.51c-0.42,0.22-0.54,0.79-0.64,1.21c-0.12,0.46-0.18,0.93-0.19,1.4c-0.02,0.96,0.18,1.91,0.58,2.79
				c0.24,0.53,0.59,0.96,1.24,0.8c0.56-0.14,1.13-0.42,1.64-0.68C86.55,621.42,86.46,620.85,86.07,620.75z"/>
			<path class="st5" d="M86.65,618.16c-0.09-0.12-0.19-0.24-0.3-0.34c-0.14-0.12-0.3-0.25-0.49-0.3c-0.24-0.07-0.52,0-0.68,0.19
				c-0.08,0.09-0.14,0.19-0.17,0.3c-0.03,0.13-0.03,0.24,0,0.37c0.04,0.18,0.16,0.34,0.28,0.47c0.04,0.05,0.09,0.09,0.15,0.13
				c0.01,0.04,0.02,0.08,0.04,0.12c0.06,0.1,0.17,0.2,0.29,0.22c0.19,0.03,0.41,0.07,0.59,0c0.12-0.05,0.22-0.1,0.31-0.19
				c0.11-0.12,0.18-0.27,0.19-0.44C86.86,618.49,86.77,618.31,86.65,618.16z"/>
			<path class="st5" d="M83.04,621.59c-0.08-0.01-0.16-0.02-0.23-0.02c-0.39-0.83-0.5-1.75-0.45-2.66c0.04-0.85,0.06-2.07,0.75-2.69
				c0.35-0.31,0.04-0.77-0.33-0.79c-0.38-0.31-0.97-0.8-1.43-0.69c-0.22,0.05-0.35,0.2-0.43,0.4c-0.13,0.05-0.24,0.14-0.29,0.29
				c-0.2,0.67-0.38,1.34-0.57,2.01c-0.02,0.06-0.05,0.11-0.08,0.17c-0.25,0.65-0.41,1.35-0.53,2.06c-0.17,0.65-0.35,1.3-0.5,1.96
				c-0.05,0.22,0.04,0.39,0.18,0.49c-0.01,0.03-0.02,0.05-0.03,0.08c-0.04,0.26,0.07,0.51,0.32,0.63c0.24,0.12,0.54,0.1,0.81,0.1
				c0.32,0,0.63-0.02,0.95-0.05c0.63-0.07,1.25-0.19,1.85-0.37C83.46,622.38,83.54,621.67,83.04,621.59z"/>
			<path class="st26" d="M80.39,614.44c-0.44,1.39-0.88,2.79-1.31,4.18c-0.21,0.68-0.43,1.37-0.64,2.05
				c-0.2,0.62-0.31,1.47-0.73,1.99c-0.38,0.47,0.3,1.15,0.68,0.67c0.44-0.55,0.6-1.2,0.8-1.86c0.24-0.76,0.48-1.53,0.72-2.29
				c0.47-1.5,0.94-3,1.41-4.5C81.5,614.11,80.57,613.86,80.39,614.44z"/>
			<path class="st26" d="M84.39,622.03c-0.49-0.26-1.03-0.53-1.39-0.96c-0.39-0.48-0.4-1.12-0.35-1.71c0.06-0.62,0.24-1.24,0.5-1.81
				c0.13-0.29,0.28-0.58,0.44-0.85c0.08-0.14,0.17-0.27,0.25-0.41c0.03-0.05,0.16-0.31,0.21-0.33c0.58-0.2,0.33-1.11-0.26-0.91
				c-0.39,0.13-0.58,0.44-0.79,0.76c-0.23,0.35-0.44,0.72-0.62,1.1c-0.35,0.74-0.6,1.51-0.69,2.33c-0.08,0.75-0.03,1.59,0.42,2.24
				c0.44,0.63,1.12,1.02,1.79,1.37C84.45,623.13,84.93,622.31,84.39,622.03z"/>
			<path class="st26" d="M94.48,631.87c-0.06-0.23-0.35-0.42-0.59-0.33c-0.53,0.2-1.12,0.16-1.66,0.06
				c-0.57-0.11-1.12-0.31-1.63-0.59c-0.54-0.3-1.03,0.52-0.49,0.82c0.6,0.33,1.25,0.57,1.92,0.7c0.69,0.12,1.45,0.19,2.11-0.07
				C94.38,632.36,94.55,632.13,94.48,631.87z"/>
			<path class="st26" d="M97.25,642.17c-0.61-0.97-0.82-2.09-0.99-3.2c-0.17-1.13-0.29-2.35,0.28-3.39
				c0.21-0.38-0.13-0.77-0.54-0.69c-3.18,0.62-6.46,0.52-9.6-0.28c-0.09-0.02-0.18-0.02-0.25,0.01c-0.3-0.22-0.82-0.11-0.77,0.34
				c0.22,1.99,1.63,4.8-0.15,6.47c-0.3,0.28-0.08,0.82,0.34,0.81c3.77-0.12,7.51,0.54,11.27,0.66
				C97.2,642.89,97.44,642.47,97.25,642.17z M86.9,637.93c0.01,0,0.02,0.01,0.03,0.01c1.42,0.29,2.87,0.49,4.32,0.58
				c1.27,0.08,2.74,0.22,3.97-0.2c0.02,0.18,0.03,0.35,0.06,0.53c0.04,0.32,0.1,0.64,0.16,0.96c-1.38,0.1-2.77,0.11-4.15-0.01
				c-1.41-0.13-2.83-0.54-4.25-0.5C87.03,638.85,86.98,638.39,86.9,637.93z M95.37,635.94c-0.13,0.46-0.19,0.94-0.2,1.42
				c-0.02,0-0.03,0-0.05,0.01c-1.18,0.45-2.63,0.29-3.87,0.21c-1.37-0.09-2.72-0.27-4.06-0.54c-0.18-0.04-0.33,0.03-0.43,0.13
				c-0.11-0.54-0.23-1.07-0.32-1.58C89.36,636.28,92.39,636.4,95.37,635.94z M86.56,641.27c0.19-0.33,0.31-0.67,0.38-1.03
				c1.45-0.06,2.9,0.37,4.34,0.5c1.45,0.13,2.91,0.12,4.37,0c0.11,0.39,0.23,0.78,0.39,1.15C92.87,641.74,89.73,641.28,86.56,641.27
				z"/>
			<path class="st28" d="M95.61,638.65c-0.01-0.49-0.63-0.58-0.87-0.28c-1.33,0.09-2.67,0.09-4-0.01c-0.67-0.05-1.34-0.13-2.01-0.24
				c-0.37-0.06-0.78-0.17-1.09-0.05c-0.16-0.41-0.91-0.35-0.93,0.18l-0.02,0.59c-0.01,0.2,0.16,0.4,0.35,0.46
				c0.65,0.17,1.3,0.34,1.97,0.44c0.7,0.1,1.4,0.1,2.11,0.1c0.21,0,0.42,0.01,0.63,0.03c1.12,0.19,2.26,0.25,3.4,0.18
				c0.26-0.02,0.49-0.2,0.48-0.47C95.63,639.26,95.62,638.96,95.61,638.65z"/>
			<path class="st5" d="M95.6,636.11c-0.04-0.31-0.4-0.65-0.73-0.41c-0.48,0.35-1.13,0.24-1.69,0.22c-0.68-0.02-1.36-0.04-2.04-0.06
				c-1.31-0.04-2.7,0.04-3.99-0.26c-0.07-0.52-0.93-0.5-0.95,0.08c-0.01,0.37-0.08,0.94,0.15,1.26c0.27,0.39,1.05,0.37,1.48,0.44
				c1.08,0.18,2.16,0.41,3.24,0.53c0.53,0.06,1.06,0.04,1.59,0.04c0.48,0,1.02,0.07,1.49-0.05c0.38-0.1,0.92-0.34,1.2-0.6
				C95.67,637.02,95.65,636.5,95.6,636.11z"/>
			<path class="st5" d="M96.15,641.3c-0.12-0.27-0.25-0.53-0.4-0.79c-0.12-0.19-0.33-0.25-0.54-0.22c-1.32,0.24-2.67,0.06-4.01,0.12
				c-0.02,0-0.03,0-0.05,0c-0.03-0.01-0.06-0.03-0.1-0.04c-1.21-0.2-2.43-0.28-3.66-0.25c-0.25-0.24-0.81-0.13-0.85,0.33
				c0,0.09-0.02,0.19-0.06,0.27c-0.14,0.31,0.02,0.71,0.42,0.71c0.35,0,0.69,0.02,1.04,0.02c0.48,0.1,1,0.09,1.51,0.05
				c2.1,0.12,4.19,0.36,6.29,0.49C96.14,642.04,96.28,641.6,96.15,641.3z"/>
			<path class="st26" d="M97,641.76c-0.03-0.25-0.2-0.44-0.35-0.64c-0.31-0.38-0.62-0.76-0.77-1.22c-0.01-0.04-0.02-0.08-0.03-0.12
				c-0.01-0.05-0.04-0.1-0.04-0.15c-0.1-0.6,0.02-1.23,0.1-1.82c0.08-0.65,0.17-1.31,0.25-1.96c0.26-0.39-0.34-0.92-0.77-0.56
				c-0.21,0.17-0.9,0.11-1.16,0.12c-0.36,0.02-0.72,0.03-1.08,0.03c-0.78,0.01-1.56,0-2.33-0.03c-1.39-0.06-2.91-0.09-4.15-0.79
				c-0.26-0.15-0.51-0.03-0.63,0.16c-0.19,0.05-0.35,0.19-0.37,0.43c-0.09,1.16,0.35,2.24,0.64,3.34c0.13,0.5,0.23,1.02,0.2,1.54
				c-0.02,0.23-0.06,0.46-0.14,0.67c-0.04,0.12-0.12,0.34-0.22,0.46c-0.05,0.01-0.1,0.02-0.14,0.05c-0.21,0.12-0.33,0.44-0.17,0.65
				c0.01,0.01,0.02,0.02,0.02,0.03c0.09,0.12,0.24,0.26,0.42,0.23c0.2-0.03,0.36-0.13,0.5-0.27c0.81-0.07,1.59,0.17,2.39,0.26
				c0.82,0.09,1.65,0.09,2.47,0.12c1.66,0.05,3.33,0.11,4.99,0.16C97.03,642.48,97.15,642.05,97,641.76z M94.81,639.47
				c-2.47-0.14-4.94-0.24-7.41-0.27c0-0.01,0-0.02,0-0.03c-0.04-0.28-0.11-0.56-0.18-0.83c1.48,0.12,2.97,0.21,4.46,0.23
				c1.05,0.02,2.23,0.1,3.19-0.36c-0.04,0.34-0.08,0.67-0.07,1.01C94.8,639.3,94.81,639.38,94.81,639.47z M90.98,636.37
				c0.9,0.03,1.8,0.04,2.69,0.01c0.44-0.01,0.96,0.02,1.44-0.05c-0.03,0.22-0.06,0.44-0.08,0.66c-0.06,0.02-0.12,0.06-0.18,0.11
				c-0.44,0.42-1.05,0.51-1.64,0.53c-0.68,0.03-1.36,0-2.03-0.02c-1.41-0.04-2.82-0.12-4.23-0.24c-0.17-0.56-0.31-1.13-0.34-1.72
				C87.96,636.27,89.52,636.31,90.98,636.37z M91.61,641.36c-0.82-0.03-1.66-0.02-2.47-0.12c-0.62-0.08-1.23-0.23-1.85-0.26
				c0,0,0,0,0,0c0.09-0.27,0.13-0.55,0.15-0.83c2.53,0.03,5.05,0.12,7.58,0.28c0.05,0.13,0.11,0.25,0.18,0.37
				c0.12,0.21,0.28,0.41,0.43,0.6c0.03,0.03,0.05,0.07,0.08,0.1C94.35,641.45,92.98,641.4,91.61,641.36z"/>
			<path class="st29" d="M81.07,611.99c4.62,0.51,6.94,0.76,8.03,1.84c1.77,1.75,0.98,3.78,3.08,5.05c0.09,0.05,1.92,1.14,2.94,0.44
				c1.49-1.01-0.69-4.45,0.88-6.12c0.99-1.05,2.44-0.32,7.04-0.27c5.21,0.05,6.64-0.86,7.46,0.14c1.05,1.29-1.02,3.18-2.08,8.85
				c-0.71,3.78-0.11,4.67-1.03,5.41c-2.49,2.02-7.3-4.17-15.01-4.24c-7.81-0.07-12.75,6.2-15.14,4.18
				c-0.85-0.72-0.26-1.54-0.65-6.09c-0.51-5.87-1.8-7.96-0.52-9.13C76.3,611.87,76.78,611.52,81.07,611.99z"/>
			<path class="st30" d="M78.68,722.93c-6.99,0.03-3.2,31.78-23.96,77.51c-15.16,33.41-32.56,50.35-25.07,61.81
				c2.89,4.42,12.85,6.19,32.66,9.55c25.66,4.35,38.48,6.53,43.66,2.23c9.18-7.62,3.03-25.26-5.91-63.29
				C85.29,747.9,84.88,722.91,78.68,722.93z"/>
		</g>
	</g>
	<g id="Layer_3_00000023267596614364882040000001985420522828313231_">
	</g>
</g>
<g id="Layer_4_00000177461541142541970450000018161484352560182200_">
	<path d="M498.43,317.08"/>
</g>
</svg>
