<?xml version="1.0" encoding="utf-8"?>
<!-- Generator: Adobe Illustrator 27.2.0, SVG Export Plug-In . SVG Version: 6.00 Build 0)  -->
<svg version="1.1" id="Layer_1" xmlns="http://www.w3.org/2000/svg" xmlns:xlink="http://www.w3.org/1999/xlink" x="0px" y="0px"
	 viewBox="0 0 612 792" style="enable-background:new 0 0 612 792;" xml:space="preserve">
<style type="text/css">
	.st0{fill:none;stroke:#231F20;stroke-width:5;stroke-miterlimit:10;}
</style>
<path class="st0" d="M334.24,165.43c0.54,11.24,3.37,14.58,1.37,21.72c-1.71,6.13-4.33,5.65-6.91,13.15
	c-2.75,8.03-3.04,18.21-0.46,20.41c1.62,1.37,3.37-1.19,5.53,0.65c1.54,1.31,2.12,3.93,2.75,6.6c0.87,3.75,0.92,6.84,0.92,7.26
	c0.21,10.35,16.02,44.5,32.2,53.96c1.71,1.01,5.03,2.68,6.91,7.26c2.12,5.18,0.12,8.75,2.29,13.15c2.41,4.88,6.12,3.21,8.28,7.91
	c1.79,3.87,0.71,8.15,0.46,11.84c-1.16,18.5,19.22,25.23,22.09,50.04c0.79,6.72,0.92,20.41,0.92,20.41
	c0.46,18.8,0.46,19.1,0.46,19.1c0.87,30.16,49.46,79.73,46.01,123.69c-0.33,4.34-1.12,7.5-1.37,8.57
	c-5.08,19.81-23.46,36.29-37.73,32.9c-2.91-0.71-6.37-2.38-11.02-0.65c-4.83,1.78-6.78,5.65-9.65,8.57
	c-9.73,9.76-19.47-2.5-37.28,1.96c-9.53,2.38-7.45,6.13-17.47,9.22c-12.98,3.99-21.42-0.65-39.11-5.24
	c-19.76-5.12-16.77-1.25-34.49-5.95c-29.12-7.68-31.16-16.54-56.58-21.06c-12.52-2.2-15.52-0.71-25.75-4.58
	c-10.69-4.05-27.46-10.41-31.28-25.64c-1.37-5.41-1.66-14.16,20.26-57.24c20.93-41.23,30.99-52.6,31.74-76.33
	c0.46-14.64-3.29-13.57-3.2-28.32c0.12-31.71,17.43-57.06,39.56-89.48c0,0,19.26-28.2,26.67-51.35c1.71-5.24,3.2-11.19,3.2-11.19
	c1.16-4.52,1.75-6.78,1.83-7.91c0.75-8.86-7.53-11.9-10.57-23.03c-3.2-11.66,3.58-16.84,0.46-28.97
	c-2.33-9.04-8.53-15.83-14.27-18.44c-7.95-3.63-14.64,0.95-16.1-3.27c-0.96-2.8,1.83-4.94,2.29-12.49
	c0.42-7.02-1.71-9.64-0.46-13.15c1.79-5,8.07-5.24,9.19-5.24c2.29,0,8.03,0.6,24.38,20.41c7.53,9.1,9.82,13.27,15.64,15.77
	c1.58,0.65,2,0.65,11.02,1.96c15.27,2.26,16.85,2.74,18.85,0.65c4.2-4.34,4.95-14.64,3.66-21.72c-1.83-10.35-7.95-13.62-6.91-17.14
	c1.16-3.87,9.9-4.34,16.1,1.31c5.91,5.41,7.78,14.87,8.28,18.44C338.85,146.62,333.49,149.36,334.24,165.43z"/>
</svg>
