<?xml version="1.0" encoding="utf-8"?>
<!-- Generator: Adobe Illustrator 27.2.0, SVG Export Plug-In . SVG Version: 6.00 Build 0)  -->
<svg version="1.1" id="Layer_1" xmlns="http://www.w3.org/2000/svg" xmlns:xlink="http://www.w3.org/1999/xlink" x="0px" y="0px"
	 viewBox="0 0 595.28 841.89" style="enable-background:new 0 0 595.28 841.89;" xml:space="preserve">
<style type="text/css">
	.st0{fill:#D89F8B;}
	.st1{stroke:#000000;stroke-width:0.75;stroke-miterlimit:10;}
	.st2{fill:none;stroke:#010101;stroke-width:4;stroke-miterlimit:10;}
</style>
<path class="st0" d="M266.48,234.07"/>
<path class="st1" d="M385.31,704.48"/>
<path d="M266.03,290.85c0.17-0.22,0.3-0.46,0.39-0.74c2.9-8.67,3.96-17.94,3.07-27.04c-0.13-1.34-1.05-2.5-2.5-2.5
	c-1.25,0-2.63,1.15-2.5,2.5c0.34,3.49,0.38,6.97,0.14,10.43c-2.17,4.72-4.07,9.75-3.34,14.96c-0.35,2.51-0.56,5.04-0.54,7.59
	c0.06,6.99,2.83,14.12,1.4,21.09c-0.27,1.32,0.38,2.7,1.75,3.08c1.24,0.34,2.8-0.42,3.08-1.75c1.5-7.25-0.95-14.23-1.2-21.45
	C265.7,294.95,265.81,292.9,266.03,290.85z"/>
<path d="M248.97,273.68c-0.73,1.38-1.29,2.81-1.83,4.28c-0.48,1.3-1.05,2.58-2.17,3.46c-0.27,0.21-0.22,0.67,0,0.88
	c0.26,0.26,0.62,0.21,0.88,0c1.16-0.91,1.82-2.25,2.34-3.6c0.57-1.49,1.1-2.97,1.85-4.39C250.43,273.6,249.35,272.97,248.97,273.68z
	"/>
<path d="M241.26,281.86c-1.48,0.72-3,1.22-4.53,1.51c0.01-0.24-0.1-0.51-0.29-0.65c-0.75-0.58-1.74-0.51-2.7-0.39
	c-0.05-0.03-0.09-0.07-0.15-0.09c-1.12-0.44-2.4-0.37-3.58-0.51c-1.36-0.16-2.7-0.42-4.03-0.76c-0.27-0.07-0.47,0.03-0.61,0.19
	c-1.29-0.4-2.51-0.96-3.54-1.89c-0.6-0.54-1.48,0.35-0.88,0.88c0.24,0.22,0.5,0.42,0.76,0.6c-1.35-0.69-2.66-1.47-3.89-2.32
	c-0.66-0.46-1.29,0.62-0.63,1.08c7.19,4.98,16.49,7.44,24.71,3.43C242.62,282.59,241.98,281.51,241.26,281.86z"/>
<path class="st2" d="M263.38,293.04c0.51,11.17,3.17,14.47,1.29,21.56c-1.61,6.08-4.07,5.61-6.5,13.06
	c-2.59,7.98-2.86,18.08-0.43,20.26c1.53,1.36,3.17-1.18,5.21,0.65c1.45,1.3,2,3.9,2.59,6.56c0.82,3.72,0.86,6.79,0.86,7.21
	c0.2,10.28,15.08,44.19,30.32,53.58c1.61,1,4.74,2.66,6.5,7.21c2,5.14,0.12,8.68,2.15,13.06c2.27,4.84,5.76,3.19,7.8,7.86
	c1.68,3.84,0.67,8.09,0.43,11.76c-1.1,18.37,18.1,25.05,20.8,49.68c0.74,6.68,0.86,20.26,0.86,20.26
	c0.43,18.67,0.43,18.96,0.43,18.96c0.82,29.95,46.58,79.16,43.32,122.82c-0.31,4.31-1.06,7.44-1.29,8.51
	c-4.78,19.67-22.09,36.04-35.53,32.67c-2.74-0.71-5.99-2.36-10.38-0.65c-4.54,1.77-6.39,5.61-9.09,8.51
	c-9.17,9.69-18.33-2.48-35.1,1.95c-8.97,2.36-7.01,6.08-16.45,9.16c-12.22,3.96-20.17-0.65-36.82-5.2
	c-18.61-5.08-15.79-1.24-32.47-5.91c-27.42-7.62-29.34-16.42-53.27-20.91c-11.79-2.19-14.61-0.71-24.25-4.55
	c-10.07-4.02-25.85-10.34-29.46-25.46c-1.29-5.38-1.57-14.06,19.08-56.83c19.7-40.94,29.18-52.22,29.89-75.79
	c0.43-14.53-3.09-13.47-3.02-28.12c0.12-31.49,16.41-56.65,37.25-88.85c0,0,18.14-28,25.11-50.98c1.61-5.2,3.02-11.11,3.02-11.11
	c1.1-4.49,1.65-6.73,1.72-7.86c0.71-8.8-7.09-11.82-9.95-22.86c-3.02-11.58,3.37-16.72,0.43-28.77
	c-2.19-8.98-8.03-15.71-13.44-18.31c-7.48-3.6-13.79,0.95-15.16-3.25c-0.9-2.78,1.72-4.9,2.15-12.41c0.39-6.97-1.61-9.57-0.43-13.06
	c1.68-4.96,7.6-5.2,8.66-5.2c2.15,0,7.56,0.59,22.95,20.26c7.09,9.04,9.24,13.17,14.73,15.66c1.49,0.65,1.88,0.65,10.38,1.95
	c14.38,2.24,15.86,2.72,17.75,0.65c3.96-4.31,4.66-14.53,3.45-21.56c-1.72-10.28-7.48-13.53-6.5-17.01c1.1-3.84,9.32-4.31,15.16,1.3
	c5.56,5.38,7.33,14.77,7.8,18.31C267.72,274.37,262.67,277.09,263.38,293.04z"/>
</svg>
