<?xml version="1.0" encoding="utf-8"?>
<!-- Generator: Adobe Illustrator 27.2.0, SVG Export Plug-In . SVG Version: 6.00 Build 0)  -->
<svg version="1.1" id="Layer_1" xmlns="http://www.w3.org/2000/svg" xmlns:xlink="http://www.w3.org/1999/xlink" x="0px" y="0px"
	 viewBox="0 0 612 792" style="enable-background:new 0 0 612 792;" xml:space="preserve">
<style type="text/css">
	.st0{fill:none;stroke:#000000;stroke-width:5;stroke-miterlimit:10;}
	.st1{fill:none;stroke:#231F20;stroke-width:4;stroke-miterlimit:10;}
</style>
<path class="st0" d="M347.83,66.49c0.77,13.81,4.78,17.9,1.95,26.67c-2.42,7.53-6.13,6.94-9.79,16.15
	c-3.89,9.86-4.31,22.36-0.65,25.06c2.3,1.68,4.78-1.46,7.85,0.8c2.19,1.61,3.01,4.82,3.89,8.11c1.24,4.6,1.3,8.4,1.3,8.92
	c0.3,12.71,22.71,54.66,45.66,66.28c2.42,1.24,7.13,3.29,9.79,8.92c3.01,6.36,0.18,10.74,3.24,16.15c3.42,5.99,8.67,3.95,11.74,9.72
	c2.54,4.75,1,10.01,0.65,14.54c-1.65,22.72,27.26,30.98,31.33,61.46c1.12,8.25,1.3,25.06,1.3,25.06
	c0.65,23.09,0.65,23.45,0.65,23.45c1.24,37.05,69.94,97.91,65.05,151.91c-0.47,5.33-1.59,9.21-1.95,10.52
	c-7.2,24.33-33.27,44.57-53.51,40.41c-4.13-0.87-9.02-2.92-15.63-0.8c-6.85,2.19-9.62,6.94-13.69,10.52
	c-13.81,11.99-27.61-3.07-52.86,2.41c-13.51,2.92-10.56,7.53-24.78,11.33c-18.41,4.9-30.38-0.8-55.46-6.43
	c-28.02-6.29-23.78-1.54-48.91-7.31c-41.3-9.43-44.19-20.31-80.23-25.86c-17.76-2.7-22.01-0.87-36.52-5.62
	c-15.16-4.97-38.93-12.79-44.36-31.5c-1.95-6.65-2.36-17.39,28.73-70.29c29.68-50.63,44.16-64.59,45.23-93.75
	c0.65-17.97-4.66-16.66-4.54-34.78c0.18-38.95,24.72-70.07,56.1-109.9c0,0,27.32-34.64,37.81-63.06c2.42-6.43,4.54-13.74,4.54-13.74
	c1.65-5.55,2.47-8.33,2.59-9.72c1.07-10.88-10.67-14.62-14.98-28.27c-4.54-14.32,5.08-20.68,0.65-35.58
	c-3.31-11.11-12.09-19.44-20.24-22.65c-11.27-4.46-20.76,1.17-22.83-4.02c-1.35-3.43,2.59-6.06,3.24-15.34
	c0.59-8.62-2.42-11.84-0.65-16.15c2.54-6.14,11.44-6.43,13.04-6.43c3.24,0,11.39,0.73,34.57,25.06
	c10.67,11.18,13.93,16.3,22.18,19.37c2.24,0.8,2.84,0.8,15.63,2.41c21.65,2.78,23.9,3.36,26.72,0.8c5.96-5.33,7.02-17.97,5.19-26.67
	c-2.59-12.71-11.27-16.74-9.79-21.04c1.65-4.75,14.04-5.33,22.83,1.61c8.38,6.65,11.04,18.26,11.74,22.65
	C354.39,43.39,346.77,46.76,347.83,66.49z"/>
<path class="st1" d="M340.72,656c-1.42,0.15-1.12,2.75-5,9.88c-3.82,7.02-6,7.98-7.77,11.52c-2.94,5.88-0.2,9.81,5.55,25.93
	c3.96,11.1,5.95,16.65,6.66,21.4c0.98,6.48,0.97,15.81-3.89,27.57c6.69,1.91,10.78,1.35,13.32,0.41c3.67-1.35,3.7-3.34,8.88-6.58
	c3.26-2.05,7.67-4.81,11.66-4.12c4.21,0.73,5.32,4.91,8.33,9.47c4.85,7.36,11.99,11.59,18.32,15.34
	c15.37,9.12,39.29,12.93,50.77,6.66c1.32-0.72,4.67-2.55,5.39-5.5c0.77-3.11-1.93-5.29-5.83-10.96c-3.07-4.47-2.07-4.11-5.41-9.35
	c-6.07-9.55-12.93-16.31-13.83-15.95c-0.72,0.29,3.51,4.61,1.11,8.64c-1.45,2.45-4.5,3.54-5,3.7c-4.87,1.67-10.83-0.09-16.68-2.65
	c-19.91-8.74-29.39-20.39-29.39-20.39C353.03,690.44,345.95,655.46,340.72,656z"/>
<path class="st1" d="M233.17,650.58c-1.75,0.17-1.38,3.22-6.16,11.59c-4.7,8.23-7.4,9.36-9.58,13.52
	c-3.63,6.9-0.25,11.51,6.84,30.41c4.89,13.02,7.33,19.54,8.21,25.1c1.2,7.6,1.19,18.55-4.79,32.34c8.24,2.24,13.29,1.58,16.42,0.48
	c4.52-1.58,4.57-3.91,10.95-7.72c4.02-2.4,9.45-5.64,14.37-4.83c5.19,0.86,6.56,5.76,10.26,11.1c5.98,8.63,14.78,13.59,22.58,18
	c18.95,10.69,48.44,15.17,62.58,7.81c1.63-0.85,5.75-2.99,6.65-6.45c0.94-3.65-2.38-6.21-7.18-12.86
	c-3.78-5.25-2.55-4.83-6.66-10.97c-7.49-11.2-15.94-19.13-17.05-18.71c-0.89,0.34,4.32,5.4,1.37,10.14
	c-1.79,2.87-5.55,4.15-6.16,4.34c-6.01,1.96-13.35-0.1-20.56-3.11c-24.55-10.25-36.23-23.92-36.24-23.92
	C248.34,690.97,239.61,649.94,233.17,650.58z"/>
<rect x="423.59" y="1288.59" style="fill:none;" width="0" height="2.88"/>
</svg>
