<?xml version="1.0" encoding="utf-8"?>
<!-- Generator: Adobe Illustrator 27.2.0, SVG Export Plug-In . SVG Version: 6.00 Build 0)  -->
<svg version="1.1" id="Layer_1" xmlns="http://www.w3.org/2000/svg" xmlns:xlink="http://www.w3.org/1999/xlink" x="0px" y="0px"
	 viewBox="0 0 612 792" style="enable-background:new 0 0 612 792;" xml:space="preserve">
<style type="text/css">
	.st0{fill:none;stroke:#231F20;stroke-width:4;stroke-miterlimit:10;}
	.st1{fill:#D99F89;}
	.st2{fill:#AEC3CD;stroke:#231F20;stroke-width:0.75;stroke-miterlimit:10;}
</style>
<path class="st0" d="M225.27,461.73c-0.57,0.11-0.45,1.98-2,7.13c-1.53,5.07-2.41,5.77-3.12,8.32c-1.18,4.25-0.08,7.09,2.23,18.73
	c1.59,8.02,2.38,12.03,2.67,15.46c0.39,4.68,0.39,11.42-1.56,19.92c2.68,1.38,4.32,0.97,5.34,0.3c1.47-0.98,1.48-2.41,3.56-4.76
	c1.31-1.48,3.07-3.47,4.67-2.97c1.69,0.53,2.13,3.55,3.34,6.84c1.95,5.31,4.81,8.37,7.34,11.08c6.16,6.59,15.75,9.34,20.35,4.81
	c0.53-0.52,1.87-1.84,2.16-3.97c0.31-2.25-0.78-3.82-2.34-7.92c-1.23-3.23-0.83-2.97-2.17-6.76c-2.44-6.9-5.18-11.78-5.55-11.52
	c-0.29,0.21,1.41,3.33,0.45,6.24c-0.58,1.77-1.81,2.55-2,2.68c-1.95,1.21-4.34-0.06-6.69-1.92c-7.98-6.31-11.78-14.73-11.78-14.73
	C230.21,486.6,227.37,461.34,225.27,461.73z"/>
<path class="st0" d="M182.15,457.81c-0.7,0.12-0.55,2.33-2.47,8.37c-1.89,5.95-2.97,6.76-3.84,9.76c-1.45,4.98-0.1,8.31,2.74,21.97
	c1.96,9.41,2.94,14.11,3.29,18.13c0.48,5.49,0.48,13.4-1.92,23.36c3.3,1.62,5.33,1.14,6.58,0.35c1.81-1.14,1.83-2.83,4.39-5.58
	c1.61-1.73,3.79-4.08,5.76-3.49c2.08,0.62,2.63,4.16,4.12,8.02c2.4,6.23,5.92,9.82,9.05,13c7.6,7.73,19.42,10.96,25.09,5.64
	c0.65-0.61,2.31-2.16,2.66-4.66c0.38-2.64-0.96-4.48-2.88-9.29c-1.52-3.79-1.02-3.49-2.67-7.92c-3-8.09-6.39-13.82-6.84-13.51
	c-0.36,0.24,1.73,3.9,0.55,7.32c-0.72,2.08-2.23,3-2.47,3.14c-2.41,1.42-5.35-0.07-8.24-2.25c-9.84-7.41-14.53-17.28-14.53-17.28
	C188.24,486.99,184.74,457.35,182.15,457.81z"/>
<rect x="423.59" y="1288.59" style="fill:none;" width="0" height="2.88"/>
<g>
	<path class="st1" d="M218.56,431.68"/>
	<path class="st1" d="M224.64,431.23"/>
</g>
<path class="st2" d="M1071.55,521.55c-6.61-4.11-9.76-9.6-9.76-9.6c-8.26-14.4-10.62-30.86-12.35-30.61"/>
<path class="st2" d="M1049.44,481.34c-0.47,0.07-0.37,1.29-1.66,4.65c-1.27,3.3-1.99,3.76-2.58,5.42
	c-0.98,2.77-0.07,4.62,1.84,12.21c1.32,5.23,1.97,7.84,2.21,10.07c0.32,3.05,0.32,7.44-1.29,12.98c2.22,0.9,3.58,0.63,4.42,0.19
	c1.22-0.64,1.23-1.57,2.95-3.1c1.08-0.96,2.55-2.26,3.87-1.94c1.4,0.35,1.77,2.31,2.77,4.46c1.61,3.46,3.98,5.46,6.08,7.22"/>
<path class="st2" d="M1057.28,534.57c-1.26-2.47-0.85-2.27-2.21-5.16c-2.49-5.27-5.29-9-5.66-8.81c-0.29,0.16,1.43,2.54,0.45,4.77
	c-0.6,1.35-1.84,1.95-2.05,2.05c-2,0.92-4.43-0.05-6.83-1.47c-8.15-4.83-12.03-11.26-12.03-11.26
	c-10.19-16.89-13.09-36.2-15.23-35.9"/>
<path class="st2" d="M1011.68,484.24c-1.56,3.88-2.46,4.41-3.18,6.36c-1.2,3.25-0.08,5.42,2.27,14.32c1.62,6.13,2.43,9.2,2.73,11.82
	c0.4,3.58,0.4,8.73-1.59,15.23c2.74,1.05,4.41,0.74,5.45,0.23c1.5-0.75,1.52-1.84,3.64-3.64c1.34-1.13,3.14-2.66,4.77-2.27
	c1.73,0.41,2.18,2.71,3.41,5.23c1.99,4.06,4.91,6.4,7.5,8.47"/>
</svg>
