<?xml version="1.0" encoding="utf-8"?>
<!-- Generator: Adobe Illustrator 27.9.0, SVG Export Plug-In . SVG Version: 6.00 Build 0)  -->
<svg version="1.1" xmlns="http://www.w3.org/2000/svg" xmlns:xlink="http://www.w3.org/1999/xlink" x="0px" y="0px"
	 viewBox="0 0 595.28 841.89" style="enable-background:new 0 0 595.28 841.89;" xml:space="preserve">
<style type="text/css">
	.st0{fill:#943E20;stroke:#F1F2F2;stroke-miterlimit:10;}
	.st1{fill:#FFFFFF;stroke:#000000;stroke-miterlimit:10;}
	.st2{fill:#F1F2F2;}
	.st3{filter:url(#Adobe_OpacityMaskFilter);}
	.st4{mask:url(#SVGID_1_);fill:#FFFFFF;stroke:#000000;stroke-miterlimit:10;}
</style>
<g id="Layer_1">
	<g>
		<path class="st0" d="M318.25,327.53c-5.01,1.94-8.03,5.99-9.5,8.02c-6.54,9-10.44,25.02-5.81,37.58
			c4.17,11.31,14.78,18.51,13.02,26.39c-0.21,0.92-0.78,2.77-0.35,5.07c0.62,3.27,3.07,6.4,5.98,7.18c1.87,0.5,2.34-0.4,4.22,0
			c3.29,0.7,5.26,4.19,5.98,5.28c4.61,6.98,21.91,12.58,32.91,5.91c6.56-3.98,12.37-13.23,17.95-11.82c0.56,0.14,1.62,0.52,2.82,0
			c2.1-0.9,2.65-3.71,4.93-9.29c1.34-3.28,1.52-3.21,2.64-5.91c1.94-4.66,6.93-16.62,8.27-27.66c0.73-6.01,2.88-23.65-6.86-34.84
			c-9.25-10.63-25.68-11.35-33.26-3.38c-5.31,5.58-6.52,15.69-9.33,15.2c-1.33-0.23-1.52-2.59-3.34-5.7
			c-2.69-4.58-6.35-6.39-10.91-8.66C331.72,327.99,325.29,324.8,318.25,327.53z"/>
		<path class="st1" d="M332.76,350.18c-0.51-1-1.93-3.49-4.58-4.64c-3.09-1.35-6.77-0.41-8.8,1.9c-4.55,5.18-0.74,17.09,1.76,24.91
			c2.08,6.51,3.8,11.65,7.57,12.67c2.95,0.8,6.85-1.01,7.92-4.01c0.63-1.76-0.2-2.59,0-5.07c0.4-5.07,4.24-6.58,5.1-9.92
			C342.42,363.35,341.42,358.71,332.76,350.18z"/>
		<path class="st1" d="M368.91,351.62c0.51-1,1.95-3.49,4.62-4.64c3.12-1.35,6.83-0.41,8.88,1.9c4.6,5.18,0.75,17.09-1.78,24.91
			c-2.1,6.51-3.83,11.65-7.64,12.67c-2.98,0.8-6.91-1.01-7.99-4.01c-0.64-1.76,0.2-2.59,0-5.07c-0.4-5.07-4.28-6.58-5.15-9.92
			C359.16,364.79,360.16,360.14,368.91,351.62z"/>
		<path class="st1" d="M353.08,389.69c1.18,0.27,2.69,0.64,4.13,2.08c2.05,2.05,3.76,6.05,2.63,9.29c-1.52,4.38-7.15,4.31-8.62,4.29
			c-1.57-0.02-6.98-0.09-8.7-4.67c-1.07-2.84-0.29-6.27,1.15-8.38C346.5,388.17,351.7,389.37,353.08,389.69z"/>
		<g>
			<g>
				<path class="st2" d="M310.34,357.84c3.22,0,3.22-5,0-5C307.13,352.84,307.12,357.84,310.34,357.84L310.34,357.84z"/>
			</g>
		</g>
		<g>
			<g>
				<path class="st2" d="M322.13,340.55c3.22,0,3.22-5,0-5C318.92,335.55,318.91,340.55,322.13,340.55L322.13,340.55z"/>
			</g>
		</g>
		<g>
			<g>
				<path class="st2" d="M345.28,349.45c3.22,0,3.22-5,0-5C342.06,344.45,342.06,349.45,345.28,349.45L345.28,349.45z"/>
			</g>
		</g>
		<g>
			<g>
				<path class="st2" d="M346.15,364.65c3.22,0,3.22-5,0-5C342.93,359.65,342.93,364.65,346.15,364.65L346.15,364.65z"/>
			</g>
		</g>
		<g>
			<g>
				<path class="st2" d="M344.84,379.32c3.22,0,3.22-5,0-5C341.62,374.32,341.62,379.32,344.84,379.32L344.84,379.32z"/>
			</g>
		</g>
		<g>
			<g>
				<path class="st2" d="M330.43,401.85c3.22,0,3.22-5,0-5C327.21,396.85,327.21,401.85,330.43,401.85L330.43,401.85z"/>
			</g>
		</g>
		<g>
			<g>
				<path class="st2" d="M319.51,380.89c3.22,0,3.22-5,0-5C316.3,375.89,316.29,380.89,319.51,380.89L319.51,380.89z"/>
			</g>
		</g>
		<g>
			<g>
				<path class="st2" d="M319.08,407.61c3.22,0,3.22-5,0-5C315.86,402.61,315.86,407.61,319.08,407.61L319.08,407.61z"/>
			</g>
		</g>
		<g>
			<g>
				<path class="st2" d="M343.97,415.47c3.22,0,3.22-5,0-5C340.75,410.47,340.75,415.47,343.97,415.47L343.97,415.47z"/>
			</g>
		</g>
		<g>
			<g>
				<path class="st2" d="M356.63,415.47c3.22,0,3.22-5,0-5C353.42,410.47,353.41,415.47,356.63,415.47L356.63,415.47z"/>
			</g>
		</g>
		<g>
			<g>
				<path class="st2" d="M374.97,415.47c3.22,0,3.22-5,0-5C371.76,410.47,371.75,415.47,374.97,415.47L374.97,415.47z"/>
			</g>
		</g>
		<g>
			<g>
				<path class="st2" d="M381.09,405.51c3.22,0,3.22-5,0-5C377.87,400.51,377.86,405.51,381.09,405.51L381.09,405.51z"/>
			</g>
		</g>
		<g>
			<g>
				<path class="st2" d="M369.3,400.27c3.22,0,3.22-5,0-5C366.08,395.27,366.07,400.27,369.3,400.27L369.3,400.27z"/>
			</g>
		</g>
		<g>
			<g>
				<path class="st2" d="M355.32,381.41c3.22,0,3.22-5,0-5C352.11,376.41,352.1,381.41,355.32,381.41L355.32,381.41z"/>
			</g>
		</g>
		<g>
			<g>
				<path class="st2" d="M353.14,365.69c3.22,0,3.22-5,0-5C349.92,360.69,349.92,365.69,353.14,365.69L353.14,365.69z"/>
			</g>
		</g>
		<g>
			<g>
				<path class="st2" d="M358.82,355.22c3.22,0,3.22-5,0-5C355.6,350.22,355.59,355.22,358.82,355.22L358.82,355.22z"/>
			</g>
		</g>
		<g>
			<g>
				<path class="st2" d="M372.35,343.69c3.22,0,3.22-5,0-5C369.14,338.69,369.13,343.69,372.35,343.69L372.35,343.69z"/>
			</g>
		</g>
		<g>
			<g>
				<path class="st2" d="M388.51,346.83c3.22,0,3.22-5,0-5C385.29,341.83,385.29,346.83,388.51,346.83L388.51,346.83z"/>
			</g>
		</g>
		<g>
			<g>
				<path class="st2" d="M388.95,359.93c3.22,0,3.22-5,0-5C385.73,354.93,385.72,359.93,388.95,359.93L388.95,359.93z"/>
			</g>
		</g>
		<g>
			<g>
				<path class="st2" d="M388.95,382.98c3.22,0,3.22-5,0-5C385.73,377.98,385.72,382.98,388.95,382.98L388.95,382.98z"/>
			</g>
		</g>
	</g>
</g>
<g id="Layer_2">
	<defs>
		<filter id="Adobe_OpacityMaskFilter" filterUnits="userSpaceOnUse" x="-127.24" y="-11.57" width="868.15" height="849.16">
			<feColorMatrix  type="matrix" values="1 0 0 0 0  0 1 0 0 0  0 0 1 0 0  0 0 0 1 0"/>
		</filter>
	</defs>
	<mask maskUnits="userSpaceOnUse" x="-127.24" y="-11.57" width="868.15" height="849.16" id="SVGID_1_">
		<g class="st3">
		</g>
	</mask>
	<rect x="-126.74" y="-11.07" class="st4" width="867.15" height="848.16"/>
</g>
</svg>
